{
.appVersion = "3323";
.formatVersion = 3;
DisplayStrings = (
"gğ̒ģģ̇ġğ"
);
axes = (
{
name = Weight;
tag = wght;
}
);
classes = (
{
automatic = 1;
code = "A B C D E F G H I J K L M N O P Q R S T U V W X Y Z Aacute Abreve Acaron Acircumflex Adieresis Agrave Amacron Aogonek Aring Atilde AE AEacute Cacute Ccaron Ccedilla Cdotaccent Eth Dcaron Dcroat Eacute Ebreve Ecaron Ecircumflex Edieresis Edotaccent Egrave Emacron Eogonek Etilde Schwa Gbreve Gcommaaccent Gdotaccent Hbar IJ Iacute Ibreve Icircumflex Idieresis Idotaccent Igrave Imacron Iogonek Itilde Kcommaaccent Lacute Lcaron Lcommaaccent Ldot Lslash Nacute Ncaron Ncommaaccent Ntilde Eng Oacute Obreve Ocircumflex Odieresis Ograve Ohungarumlaut Omacron Oslash Otilde OE Thorn Racute Rcaron Rcommaaccent Sacute Scaron Scedilla Scommaaccent Germandbls Tcaron Tcedilla Tcommaaccent Uacute Ubreve Ucircumflex Udieresis Ugrave Uhungarumlaut Umacron Uogonek Uring Utilde Wacute Wcircumflex Wdieresis Wgrave Yacute Ycircumflex Ydieresis Ygrave Ytilde Zacute Zcaron Zdotaccent";
name = Uppercase;
},
{
automatic = 1;

glyphs = (
{
glyphname = .notdef;
lastChange = "2024-05-09 20:05:48 +0000";
layers = (
{
layerId = "BD1314B0-2F62-4F06-89D3-8B766BA843F0";
shapes = (
{
closed = 1;
nodes = (
(675,0,l),
(675,700,l),
(94,700,l),
(94,0,l)
);
},
{
closed = 1;
nodes = (
(144,628,l),
(363,357,l),
(144,85,l)
);
},
{
closed = 1;
nodes = (
(390,324,l),
(611,50,l),
(169,50,l)
);
},
{
closed = 1;
nodes = (
(179,650,l),
(601,650,l),
(390,389,l)
);
},
{
closed = 1;
nodes = (
(417,357,l),
(625,614,l),
(625,99,l)
);
}
);
width = 640;
},
{
layerId = "897F30B6-1700-43C7-9C60-A606C7C7F267";
shapes = (
{
closed = 1;
nodes = (
(675,0,l),
(675,700,l),
(94,700,l),
(94,0,l)
);
},
{
closed = 1;
nodes = (
(144,628,l),
(363,357,l),
(144,85,l)
);
},
{
closed = 1;
nodes = (
(390,324,l),
(611,50,l),
(169,50,l)
);
},
{
closed = 1;
nodes = (
(179,650,l),
(601,650,l),
(390,389,l)
);
},
{
closed = 1;
nodes = (
(417,357,l),
(625,614,l),
(625,99,l)
);
}
);
width = 640;
}
);
},
{
color = 8;
glyphname = A;
kernLeft = A;
kernRight = A;
lastChange = "2024-05-09 20:05:48 +0000";
layers = (
{
associatedMasterId = "897F30B6-1700-43C7-9C60-A606C7C7F267";
layerId = "02575D39-7864-4EEF-9012-950E1A85E8A1";
name = public.background;
shapes = (
{
closed = 1;
nodes = (
(106,0,l),
(343,654,l),
(309,654,l),
(546,0,l),
(620,0,l),
(362,700,l),
(291,700,l),
(32,0,l)
);
},
{
closed = 1;
nodes = (
(500,166,l),
(479,224,l),
(173,224,l),
(152,166,l)
);
}
);
width = 712;
},
{
anchors = (
{
name = ogonek;
pos = (638,0);
},
{
name = top;
pos = (399,700);
}
);
layerId = "BD1314B0-2F62-4F06-89D3-8B766BA843F0";
shapes = (
{
closed = 1;
nodes = (
(116,0,l),
(419,624,l),
(363,624,l),
(491,0,l),
(637,0,l),
(480,700,l),
(320,700,l),
(-33,0,l)
);
},
{
closed = 1;
nodes = (
(535,157,l),
(514,266,l),
(154,266,l),
(102,157,l)
);
}
);
width = 674;
},
{
anchors = (
{
name = ogonek;
pos = (596,0);
},
{
name = top;
pos = (402,700);
}
);
layerId = "897F30B6-1700-43C7-9C60-A606C7C7F267";
shapes = (
{
closed = 1;
nodes = (
(82,0,l),
(411,654,l),
(377,654,l),
(522,0,l),
(596,0,l),
(437,700,l),
(365,700,l),
(8,0,l)
);
},
{
closed = 1;
nodes = (
(503,186,l),
(489,244,l),
(184,244,l),
(155,186,l)
);
}
);
width = 674;
}
);
unicode = 65;
},
{
color = 8;
glyphname = B;
kernLeft = H;
kernRight = B;
lastChange = "2024-05-09 20:05:48 +0000";
layers = (
{
associatedMasterId = "897F30B6-1700-43C7-9C60-A606C7C7F267";
layerId = "C2F9BAFC-5580-4CF8-8BE5-F0A0A7E63D04";
name = "#instance";
shapes = (
{
closed = 1;
nodes = (
(367,0,ls),
(515,0,o),
(598,78,o),
(598,191,cs),
(598,283,o),
(528,361,o),
(432,364,c),
(416,353,l),
(505,360,o),
(582,414,o),
(582,520,cs),
(582,627,o),
(502,700,o),
(357,700,cs),
(66,700,l),
(66,0,l)
);
},
{
closed = 1;
nodes = (
(206,305,l),
(343,305,ls),
(413,305,o),
(456,268,o),
(456,208,cs),
(456,147,o),
(415,114,o),
(345,114,cs),
(206,114,l)
);
},
{
closed = 1;
nodes = (
(206,588,l),
(333,588,ls),
(403,588,o),
(439,555,o),
(439,499,cs),
(439,441,o),
(402,409,o),
(334,409,cs),
(206,409,l)
);
}
);
width = 639;
},
{
associatedMasterId = "897F30B6-1700-43C7-9C60-A606C7C7F267";
layerId = "02575D39-7864-4EEF-9012-950E1A85E8A1";
name = public.background;
shapes = (
{
closed = 1;
nodes = (
(318,0,ls),
(465,0,o),
(544,82,o),
(544,187,cs),
(544,284,o),
(467,362,o),
(378,364,c),
(365,354,l),
(447,363,o),
(528,414,o),
(528,523,c),
(528,621,o),
(458,699,o),
(311,699,cs),
(76,699,l),
(76,0,l)
);
},
{
closed = 1;
nodes = (
(146,332,l),
(310,332,ls),
(410,332,o),
(474,278,o),
(474,194,cs),
(474,110,o),
(414,59,o),
(313,59,cs),
(146,59,l)
);
},
{
closed = 1;
nodes = (
(146,640,l),
(306,640,ls),
(407,640,o),
(457,591,o),
(457,516,c),
(457,438,o),
(404,390,o),
(309,390,cs),
(146,390,l)
);
}
);
width = 593;
},
{
layerId = "BD1314B0-2F62-4F06-89D3-8B766BA843F0";
shapes = (
{
closed = 1;
nodes = (
(317,0,ls),
(465,0,o),
(555,74,o),
(571,183,cs),
(585,279,o),
(522,360,o),
(427,364,c),
(415,353,l),
(505,359,o),
(586,410,o),
(601,512,cs),
(617,623,o),
(544,700,o),
(399,700,cs),
(111,700,l),
(12,0,l)
);
},
{
closed = 1;
nodes = (
(196,305,l),
(335,305,ls),
(405,305,o),
(441,272,o),
(433,216,cs),
(424,151,o),
(375,114,o),
(304,114,cs),
(169,114,l)
);
},
{
closed = 1;
nodes = (
(235,587,l),
(366,587,ls),
(435,587,o),
(464,558,o),
(456,506,cs),
(447,445,o),
(403,409,o),
(335,409,cs),
(210,409,l)
);
}
);
width = 597;
},
{
layerId = "897F30B6-1700-43C7-9C60-A606C7C7F267";
shapes = (
{
closed = 1;
nodes = (
(295,0,ls),
(442,0,o),
(534,86,o),
(549,191,cs),
(563,287,o),
(495,362,o),
(407,364,c),
(392,354,l),
(476,362,o),
(564,414,o),
(579,523,cs),
(592,621,o),
(534,700,o),
(387,700,cs),
(142,700,l),
(44,0,l)
);
},
{
closed = 1;
nodes = (
(160,332,l),
(334,332,ls),
(434,332,o),
(488,278,o),
(477,194,cs),
(466,110,o),
(400,59,o),
(299,59,cs),
(122,59,l)
);
},
{
closed = 1;
nodes = (
(203,641,l),
(374,641,ls),
(475,641,o),
(516,591,o),
(506,516,cs),
(495,437,o),
(436,390,o),
(341,390,cs),
(168,390,l)
);
}
);
width = 597;
}
);
unicode = 66;
},
{
color = 11;
glyphname = C;
kernLeft = O;
kernRight = C;
lastChange = "2024-05-09 20:05:48 +0000";
layers = (
{
associatedMasterId = "897F30B6-1700-43C7-9C60-A606C7C7F267";
layerId = "02575D39-7864-4EEF-9012-950E1A85E8A1";
name = public.background;
shapes = (
{
closed = 1;
nodes = (
(523,-12,o),
(639,66,o),
(679,198,c),
(599,198,l),
(568,107,o),
(486,49,o),
(377,49,cs),
(232,49,o),
(117,162,o),
(117,350,cs),
(117,538,o),
(232,651,o),
(377,651,cs),
(486,651,o),
(568,593,o),
(599,500,c),
(679,500,l),
(639,634,o),
(523,712,o),
(377,712,cs),
(189,712,o),
(45,565,o),
(45,350,cs),
(45,134,o),
(189,-12,o),
(377,-12,cs)
);
}
);
width = 735;
},
{
anchors = (
{
name = bottom;
pos = (334,0);
},
{
name = top;
pos = (433,700);
}
);
guides = (
{
pos = (-4,1141);
}
);
layerId = "BD1314B0-2F62-4F06-89D3-8B766BA843F0";
shapes = (
{
closed = 1;
nodes = (
(504,-12,o),
(631,80,o),
(677,228,c),
(520,228,l),
(494,156,o),
(431,114,o),
(341,114,cs),
(220,114,o),
(161,199,o),
(181,342,cs),
(202,492,o),
(292,585,o),
(419,585,cs),
(504,585,o),
(551,539,o),
(556,465,c),
(708,465,l),
(704,620,o),
(600,712,o),
(427,712,cs),
(217,712,o),
(70,567,o),
(42,356,cs),
(13,139,o),
(121,-12,o),
(336,-12,cs)
);
}
);
width = 705;
},
{
anchors = (
{
name = bottom;
pos = (336,0);
},
{
name = top;
pos = (435,700);
}
);
guides = (
{
pos = (6,358);
}
);
layerId = "897F30B6-1700-43C7-9C60-A606C7C7F267";
shapes = (
{
closed = 1;
nodes = (
(493,-12,o),
(605,66,o),
(657,207,c),
(579,207,l),
(540,105,o),
(462,49,o),
(344,49,cs),
(186,49,o),
(100,162,o),
(126,350,cs),
(152,537,o),
(271,651,o),
(428,651,cs),
(547,651,o),
(607,591,o),
(616,500,c),
(694,500,l),
(684,634,o),
(595,712,o),
(436,712,cs),
(233,712,o),
(84,565,o),
(54,350,cs),
(24,134,o),
(131,-12,o),
(335,-12,cs)
);
}
);
width = 705;
}
);
unicode = 67;
},
{
color = 11;
glyphname = D;
kernLeft = H;
kernRight = O;
lastChange = "2024-05-09 20:05:48 +0000";
layers = (
{
associatedMasterId = "897F30B6-1700-43C7-9C60-A606C7C7F267";
layerId = "02575D39-7864-4EEF-9012-950E1A85E8A1";
name = public.background;
shapes = (
{
closed = 1;
nodes = (
(283,0,ls),
(516,0,o),
(653,131,o),
(653,348,cs),
(653,568,o),
(516,700,o),
(283,700,cs),
(76,700,l),
(76,0,l)
);
},
{
closed = 1;
nodes = (
(146,642,l),
(283,642,ls),
(481,642,o),
(581,530,o),
(581,348,cs),
(581,168,o),
(481,58,o),
(283,58,cs),
(146,58,l)
);
}
);
width = 709;
},
{
anchors = (
{
name = top;
pos = (337,700);
}
);
layerId = "BD1314B0-2F62-4F06-89D3-8B766BA843F0";
shapes = (
{
closed = 1;
nodes = (
(261,0,ls),
(506,0,o),
(636,135,o),
(665,343,cs),
(695,557,o),
(598,700,o),
(354,700,cs),
(111,700,l),
(12,0,l)
);
},
{
closed = 1;
nodes = (
(234,581,l),
(335,581,ls),
(504,581,o),
(544,498,o),
(524,357,cs),
(503,208,o),
(433,120,o),
(264,120,cs),
(169,120,l)
);
}
);
width = 685;
},
{
anchors = (
{
name = top;
pos = (350,700);
}
);
layerId = "897F30B6-1700-43C7-9C60-A606C7C7F267";
shapes = (
{
closed = 1;
nodes = (
(250,0,ls),
(497,0,o),
(629,131,o),
(659,348,cs),
(689,568,o),
(596,700,o),
(349,700,cs),
(142,700,l),
(44,0,l)
);
},
{
closed = 1;
nodes = (
(203,642,l),
(341,642,ls),
(552,642,o),
(614,530,o),
(588,348,cs),
(562,168,o),
(471,58,o),
(258,58,cs),
(122,58,l)
);
}
);
width = 685;
}
);
unicode = 68;
},
{
glyphname = E;
kernLeft = H;
kernRight = E;
lastChange = "2024-05-09 20:05:48 +0000";
layers = (
{
associatedMasterId = "897F30B6-1700-43C7-9C60-A606C7C7F267";
layerId = "02575D39-7864-4EEF-9012-950E1A85E8A1";
name = public.background;
shapes = (
{
closed = 1;
nodes = (
(471,0,l),
(471,58,l),
(146,58,l),
(146,323,l),
(441,323,l),
(441,381,l),
(146,381,l),
(146,642,l),
(471,642,l),
(471,700,l),
(76,700,l),
(76,0,l)
);
}
);
width = 559;
},
{
anchors = (
{
name = bottom;
pos = (246,0);
},
{
name = ogonek;
pos = (475,0);
},
{
name = top;
pos = (344,700);
}
);
layerId = "BD1314B0-2F62-4F06-89D3-8B766BA843F0";
shapes = (
{
closed = 1;
nodes = (
(475,0,l),
(491,112,l),
(168,112,l),
(194,301,l),
(487,301,l),
(502,410,l),
(210,410,l),
(235,587,l),
(557,587,l),
(573,700,l),
(111,700,l),
(12,0,l)
);
}
);
width = 539;
},
{
anchors = (
{
name = bottom;
pos = (262,0);
},
{
name = ogonek;
pos = (469,0);
},
{
name = top;
pos = (360,700);
}
);
layerId = "897F30B6-1700-43C7-9C60-A606C7C7F267";
shapes = (
{
closed = 1;
nodes = (
(469,0,l),
(477,58,l),
(123,58,l),
(159,323,l),
(484,323,l),
(492,381,l),
(167,381,l),
(204,642,l),
(559,642,l),
(567,700,l),
(142,700,l),
(44,0,l)
);
}
);
width = 539;
}
);
unicode = 69;
},
{
color = 8;
glyphname = F;
kernLeft = H;
lastChange = "2024-05-09 20:05:48 +0000";
layers = (
{
associatedMasterId = "897F30B6-1700-43C7-9C60-A606C7C7F267";
layerId = "02575D39-7864-4EEF-9012-950E1A85E8A1";
name = public.background;
shapes = (
{
closed = 1;
nodes = (
(146,0,l),
(146,322,l),
(406,322,l),
(406,380,l),
(146,380,l),
(146,641,l),
(454,641,l),
(454,699,l),
(76,699,l),
(76,0,l)
);
}
);
width = 529;
},
{
layerId = "BD1314B0-2F62-4F06-89D3-8B766BA843F0";
shapes = (
{
closed = 1;
nodes = (
(152,0,l),
(193,296,l),
(449,296,l),
(464,406,l),
(209,406,l),
(235,587,l),
(554,587,l),
(569,700,l),
(111,700,l),
(12,0,l)
);
}
);
width = 523;
},
{
layerId = "897F30B6-1700-43C7-9C60-A606C7C7F267";
shapes = (
{
closed = 1;
nodes = (
(114,0,l),
(159,322,l),
(459,322,l),
(467,380,l),
(167,380,l),
(203,642,l),
(551,642,l),
(560,700,l),
(142,700,l),
(44,0,l)
);
}
);
width = 523;
}
);
unicode = 70;
},
{
color = 11;
glyphname = G;
kernLeft = O;
kernRight = G;
lastChange = "2024-08-28 21:30:41 +0000";
layers = (
{
associatedMasterId = "897F30B6-1700-43C7-9C60-A606C7C7F267";
layerId = "02575D39-7864-4EEF-9012-950E1A85E8A1";
name = public.background;
shapes = (
{
closed = 1;
nodes = (
(576,-12,o),
(700,117,o),
(700,346,cs),
(700,371,l),
(404,371,l),
(404,314,l),
(624,314,l),
(621,147,o),
(536,51,o),
(372,51,cs),
(222,51,o),
(117,164,o),
(117,350,cs),
(117,536,o),
(222,648,o),
(382,648,cs),
(498,648,o),
(575,590,o),
(594,500,c),
(676,500,l),
(646,633,o),
(536,712,o),
(382,712,cs),
(176,712,o),
(45,564,o),
(45,350,cs),
(45,135,o),
(176,-12,o),
(378,-12,cs)
);
}
);
width = 797;
},
{
anchors = (
{
name = bottom;
pos = (336,0);
},
{
name = top;
pos = (441,700);
}
);
background = {
shapes = (
{
closed = 1;
nodes = (
(537,-12,o),
(690,102,o),
(722,327,cs),
(730,388,l),
(398,388,l),
(384,284,l),
(574,284,l),
(559,176,o),
(481,112,o),
(371,112,cs),
(227,112,o),
(161,197,o),
(182,344,cs),
(203,492,o),
(291,583,o),
(426,583,cs),
(509,583,o),
(556,548,o),
(568,488,c),
(724,488,l),
(712,628,o),
(610,712,o),
(444,712,cs),
(225,712,o),
(71,561,o),
(40,345,cs),
(10,131,o),
(121,-12,o),
(352,-12,cs)
);
}
);
};
layerId = "BD1314B0-2F62-4F06-89D3-8B766BA843F0";
shapes = (
{
closed = 1;
nodes = (
(541,-12,o),
(690,98,o),
(722,323,cs),
(731,387,l),
(399,387,l),
(384,284,l),
(575,287,l),
(557,180,o),
(478,112,o),
(366,112,cs),
(224,112,o),
(162,194,o),
(182,336,cs),
(204,489,o),
(295,583,o),
(432,583,cs),
(513,583,o),
(559,544,o),
(572,484,c),
(724,484,l),
(711,624,o),
(607,712,o),
(439,712,cs),
(223,712,o),
(72,565,o),
(42,352,cs),
(11,134,o),
(125,-12,o),
(358,-12,cs)
);
}
);
width = 733;
},
{
anchors = (
{
name = bottom;
pos = (338,0);
},
{
name = top;
pos = (437,700);
}
);
layerId = "897F30B6-1700-43C7-9C60-A606C7C7F267";
shapes = (
{
closed = 1;
nodes = (
(531,-12,o),
(678,117,o),
(705,346,cs),
(708,371,l),
(414,371,l),
(406,309,l),
(631,309,l),
(603,145,o),
(499,51,o),
(351,51,cs),
(190,51,o),
(96,164,o),
(121,342,cs),
(148,534,o),
(269,648,o),
(430,648,cs),
(545,648,o),
(614,590,o),
(620,500,c),
(703,500,l),
(691,633,o),
(592,712,o),
(438,712,cs),
(232,712,o),
(81,562,o),
(49,343,cs),
(19,136,o),
(132,-12,o),
(344,-12,cs)
);
}
);
width = 733;
}
);
unicode = 71;
},
{
glyphname = H;
kernLeft = H;
kernRight = H;
lastChange = "2024-05-09 20:05:48 +0000";
layers = (
{
associatedMasterId = "897F30B6-1700-43C7-9C60-A606C7C7F267";
layerId = "02575D39-7864-4EEF-9012-950E1A85E8A1";
name = public.background;
shapes = (
{
closed = 1;
nodes = (
(595,0,l),
(595,699,l),
(525,699,l),
(525,0,l)
);
},
{
closed = 1;
nodes = (
(146,0,l),
(146,699,l),
(76,699,l),
(76,0,l)
);
},
{
closed = 1;
nodes = (
(545,327,l),
(545,385,l),
(130,385,l),
(130,327,l)
);
}
);
width = 713;
},
{
layerId = "BD1314B0-2F62-4F06-89D3-8B766BA843F0";
shapes = (
{
closed = 1;
nodes = (
(152,0,l),
(251,700,l),
(111,700,l),
(12,0,l)
);
},
{
closed = 1;
nodes = (
(518,301,l),
(534,414,l),
(192,414,l),
(177,301,l)
);
},
{
closed = 1;
nodes = (
(593,0,l),
(691,700,l),
(552,700,l),
(453,0,l)
);
}
);
width = 675;
},
{
layerId = "897F30B6-1700-43C7-9C60-A606C7C7F267";
shapes = (
{
closed = 1;
nodes = (
(114,0,l),
(212,700,l),
(142,700,l),
(44,0,l)
);
},
{
closed = 1;
nodes = (
(559,327,l),
(567,385,l),
(152,385,l),
(143,327,l)
);
},
{
closed = 1;
nodes = (
(563,0,l),
(661,700,l),
(591,700,l),
(493,0,l)
);
}
);
width = 675;
}
);
unicode = 72;
},
{
glyphname = I;
kernLeft = I;
kernRight = I;
lastChange = "2024-05-09 20:05:48 +0000";
layers = (
{
associatedMasterId = "897F30B6-1700-43C7-9C60-A606C7C7F267";
layerId = "02575D39-7864-4EEF-9012-950E1A85E8A1";
name = public.background;
shapes = (
{
closed = 1;
nodes = (
(146,0,l),
(146,699,l),
(76,699,l),
(76,0,l)
);
}
);
width = 264;
},
{
anchors = (
{
name = ogonek;
pos = (152,0);
},
{
name = top;
pos = (183,700);
}
);
layerId = "BD1314B0-2F62-4F06-89D3-8B766BA843F0";
shapes = (
{
closed = 1;
nodes = (
(152,0,l),
(251,700,l),
(112,700,l),
(13,0,l)
);
}
);
width = 234;
},
{
anchors = (
{
name = ogonek;
pos = (118,1);
},
{
name = top;
pos = (182,700);
}
);
layerId = "897F30B6-1700-43C7-9C60-A606C7C7F267";
shapes = (
{
closed = 1;
nodes = (
(118,0,l),
(216,700,l),
(146,700,l),
(48,0,l)
);
}
);
width = 234;
}
);
unicode = 73;
},
{
color = 4;
glyphname = J;
kernLeft = J;
kernRight = J;
lastChange = "2024-08-28 18:35:20 +0000";
layers = (
{
associatedMasterId = "897F30B6-1700-43C7-9C60-A606C7C7F267";
layerId = "02575D39-7864-4EEF-9012-950E1A85E8A1";
name = public.background;
shapes = (
{
closed = 1;
nodes = (
(333,-7,o),
(403,64,o),
(403,170,cs),
(403,699,l),
(333,699,l),
(333,170,ls),
(333,112,o),
(304,55,o),
(223,55,cs),
(140,55,o),
(109,114,o),
(108,184,c),
(37,184,l),
(37,66,o),
(110,-7,o),
(223,-7,cs)
);
}
);
width = 512;
},
{
anchors = (
{
name = bottom;
pos = (166,0);
},
{
name = top;
pos = (265,700);
}
);
layerId = "BD1314B0-2F62-4F06-89D3-8B766BA843F0";
shapes = (
{
closed = 1;
nodes = (
(238,0,o),
(330,73,o),
(350,216,cs),
(418,700,l),
(278,700,l),
(211,223,ls),
(203,165,o),
(172,125,o),
(115,125,cs),
(-14,125,l),
(-31,0,l),
(103,0,ls)
);
}
);
width = 401;
},
{
anchors = (
{
name = bottom;
pos = (166,0);
},
{
name = top;
pos = (265,700);
}
);
layerId = "897F30B6-1700-43C7-9C60-A606C7C7F267";
shapes = (
{
closed = 1;
nodes = (
(230,0,o),
(310,71,o),
(327,192,cs),
(399,700,l),
(328,700,l),
(257,192,ls),
(247,119,o),
(209,62,o),
(119,62,cs),
(0,62,l),
(-9,0,l),
(110,0,ls)
);
}
);
width = 401;
}
);
unicode = 74;
},
{
glyphname = K;
kernLeft = H;
kernRight = K;
lastChange = "2024-05-09 20:05:48 +0000";
layers = (
{
associatedMasterId = "897F30B6-1700-43C7-9C60-A606C7C7F267";
layerId = "02575D39-7864-4EEF-9012-950E1A85E8A1";
name = public.background;
shapes = (
{
closed = 1;
nodes = (
(541,0,l),
(201,360,l),
(196,334,l),
(538,699,l),
(449,699,l),
(123,347,l),
(449,0,l)
);
},
{
closed = 1;
nodes = (
(146,0,l),
(146,699,l),
(76,699,l),
(76,0,l)
);
}
);
width = 564;
},
{
anchors = (
{
name = bottom;
pos = (275,0);
},
{
name = top;
pos = (372,700);
}
);
layerId = "BD1314B0-2F62-4F06-89D3-8B766BA843F0";
shapes = (
{
closed = 1;
nodes = (
(152,0,l),
(188,245,l),
(264,315,l),
(412,0,l),
(581,0,l),
(377,423,l),
(674,700,l),
(500,700,l),
(211,427,l),
(251,700,l),
(111,700,l),
(12,0,l)
);
}
);
width = 630;
},
{
anchors = (
{
name = bottom;
pos = (252,0);
},
{
name = top;
pos = (351,700);
}
);
layerId = "897F30B6-1700-43C7-9C60-A606C7C7F267";
shapes = (
{
closed = 1;
nodes = (
(114,0,l),
(153,280,l),
(280,387,l),
(468,0,l),
(546,0,l),
(332,438,l),
(614,700,l),
(525,700,l),
(166,372,l),
(212,700,l),
(142,700,l),
(44,0,l)
);
}
);
width = 630;
}
);
unicode = 75;
},
{
glyphname = L;
kernLeft = H;
kernRight = L;
lastChange = "2024-08-28 18:16:53 +0000";
layers = (
{
associatedMasterId = "897F30B6-1700-43C7-9C60-A606C7C7F267";
layerId = "02575D39-7864-4EEF-9012-950E1A85E8A1";
name = public.background;
shapes = (
{
closed = 1;
nodes = (
(397,0,l),
(397,57,l),
(146,57,l),
(146,699,l),
(76,699,l),
(76,0,l)
);
}
);
width = 517;
},
{
anchors = (
{
name = bottom;
pos = (262,0);
},
{
name = center;
pos = (282,350);
},
{
name = commaaccent;
pos = (263,7);
},
{
name = top;
pos = (189,700);
},
{
name = topright;
pos = (315,700);
}
);
layerId = "BD1314B0-2F62-4F06-89D3-8B766BA843F0";
shapes = (
{
closed = 1;
nodes = (
(458,0,l),
(473,109,l),
(167,109,l),
(250,700,l),
(111,700,l),
(12,0,l)
);
}
);
width = 521;
},
{
anchors = (
{
name = bottom;
pos = (259,0);
},
{
name = center;
pos = (299,350);
},
{
name = commaaccent;
pos = (259,0);
},
{
name = top;
pos = (183,700);
},
{
name = topright;
pos = (300,700);
}
);
layerId = "897F30B6-1700-43C7-9C60-A606C7C7F267";
shapes = (
{
closed = 1;
nodes = (
(444,0,l),
(453,57,l),
(121,57,l),
(212,700,l),
(142,700,l),
(44,0,l)
);
}
);
width = 521;
}
);
unicode = 76;
},
{
glyphname = M;
kernLeft = H;
kernRight = H;
lastChange = "2024-05-09 20:05:48 +0000";
layers = (
{
associatedMasterId = "897F30B6-1700-43C7-9C60-A606C7C7F267";
layerId = "02575D39-7864-4EEF-9012-950E1A85E8A1";
name = public.background;
shapes = (
{
closed = 1;
nodes = (
(146,0,l),
(146,620,l),
(119,619,l),
(392,0,l),
(443,0,l),
(715,619,l),
(689,620,l),
(689,0,l),
(759,0,l),
(759,700,l),
(678,700,l),
(400,62,l),
(435,62,l),
(156,700,l),
(76,700,l),
(76,0,l)
);
}
);
width = 877;
},
{
layerId = "BD1314B0-2F62-4F06-89D3-8B766BA843F0";
shapes = (
{
closed = 1;
nodes = (
(152,0,l),
(235,592,l),
(184,557,l),
(338,0,l),
(451,0,l),
(759,557,l),
(716,592,l),
(633,0,l),
(774,0,l),
(872,700,l),
(704,700,l),
(378,106,l),
(438,114,l),
(278,700,l),
(111,700,l),
(12,0,l)
);
}
);
width = 855;
},
{
layerId = "897F30B6-1700-43C7-9C60-A606C7C7F267";
shapes = (
{
closed = 1;
nodes = (
(122,0,l),
(208,620,l),
(182,621,l),
(369,0,l),
(420,0,l),
(778,621,l),
(752,620,l),
(664,0,l),
(734,0,l),
(833,700,l),
(752,700,l),
(386,67,l),
(422,67,l),
(230,700,l),
(150,700,l),
(52,0,l)
);
}
);
width = 855;
}
);
unicode = 77;
},
{
glyphname = N;
kernLeft = H;
kernRight = H;
lastChange = "2024-05-09 20:05:48 +0000";
layers = (
{
associatedMasterId = "897F30B6-1700-43C7-9C60-A606C7C7F267";
layerId = "02575D39-7864-4EEF-9012-950E1A85E8A1";
name = public.background;
shapes = (
{
closed = 1;
nodes = (
(146,0,l),
(146,588,l),
(533,0,l),
(603,0,l),
(603,699,l),
(533,699,l),
(533,112,l),
(146,699,l),
(76,699,l),
(76,0,l)
);
}
);
width = 721;
},
{
anchors = (
{
name = bottom;
pos = (311,0);
},
{
name = top;
pos = (410,700);
}
);
layerId = "BD1314B0-2F62-4F06-89D3-8B766BA843F0";
shapes = (
{
closed = 1;
nodes = (
(151,0,l),
(219,473,l),
(470,0,l),
(609,0,l),
(708,700,l),
(567,700,l),
(499,225,l),
(249,700,l),
(111,700,l),
(12,0,l)
);
}
);
width = 691;
},
{
anchors = (
{
name = bottom;
pos = (312,0);
},
{
name = top;
pos = (410,700);
}
);
layerId = "897F30B6-1700-43C7-9C60-A606C7C7F267";
shapes = (
{
closed = 1;
nodes = (
(118,0,l),
(199,583,l),
(504,0,l),
(574,0,l),
(673,700,l),
(603,700,l),
(521,118,l),
(216,700,l),
(146,700,l),
(48,0,l)
);
}
);
width = 691;
}
);
unicode = 78;
},
{
color = 11;
glyphname = O;
kernLeft = O;
kernRight = O;
lastChange = "2024-05-09 20:05:48 +0000";
layers = (
{
associatedMasterId = "897F30B6-1700-43C7-9C60-A606C7C7F267";
layerId = "02575D39-7864-4EEF-9012-950E1A85E8A1";
name = public.background;
shapes = (
{
closed = 1;
nodes = (
(588,-12,o),
(737,135,o),
(737,350,cs),
(737,564,o),
(588,712,o),
(391,712,cs),
(195,712,o),
(45,564,o),
(45,350,cs),
(45,135,o),
(195,-12,o),
(391,-12,cs)
);
},
{
closed = 1;
nodes = (
(240,49,o),
(117,162,o),
(117,350,cs),
(117,538,o),
(240,650,o),
(391,650,cs),
(542,650,o),
(665,538,o),
(665,350,cs),
(665,162,o),
(542,49,o),
(391,49,cs)
);
}
);
width = 793;
},
{
anchors = (
{
name = top;
pos = (443,700);
}
);
layerId = "BD1314B0-2F62-4F06-89D3-8B766BA843F0";
shapes = (
{
closed = 1;
nodes = (
(555,-12,o),
(716,132,o),
(745,336,cs),
(775,549,o),
(651,712,o),
(428,712,cs),
(232,712,o),
(72,568,o),
(43,364,cs),
(13,153,o),
(136,-12,o),
(359,-12,cs)
);
},
{
closed = 1;
nodes = (
(229,114,o),
(161,211,o),
(182,350,cs),
(204,495,o),
(302,586,o),
(423,586,cs),
(557,586,o),
(624,490,o),
(604,351,cs),
(583,205,o),
(484,114,o),
(364,114,cs)
);
}
);
width = 760;
},
{
anchors = (
{
name = top;
pos = (444,700);
}
);
layerId = "897F30B6-1700-43C7-9C60-A606C7C7F267";
shapes = (
{
closed = 1;
nodes = (
(551,-12,o),
(707,135,o),
(737,337,cs),
(767,540,o),
(653,712,o),
(435,712,cs),
(239,712,o),
(82,564,o),
(52,359,cs),
(22,155,o),
(138,-12,o),
(354,-12,cs)
);
},
{
closed = 1;
nodes = (
(191,49,o),
(100,181,o),
(126,359,cs),
(152,539,o),
(276,650,o),
(427,650,cs),
(598,650,o),
(692,515,o),
(665,337,cs),
(638,161,o),
(513,49,o),
(363,49,cs)
);
}
);
width = 760;
}
);
unicode = 79;
},
{
glyphname = P;
kernLeft = H;
lastChange = "2024-05-09 20:05:48 +0000";
layers = (
{
associatedMasterId = "897F30B6-1700-43C7-9C60-A606C7C7F267";
layerId = "02575D39-7864-4EEF-9012-950E1A85E8A1";
name = public.background;
shapes = (
{
closed = 1;
nodes = (
(146,0,l),
(146,298,l),
(287,298,ls),
(451,298,o),
(523,385,o),
(523,498,cs),
(523,613,o),
(449,699,o),
(287,699,cs),
(76,699,l),
(76,0,l)
);
},
{
closed = 1;
nodes = (
(146,640,l),
(287,640,ls),
(405,640,o),
(451,588,o),
(451,498,cs),
(451,412,o),
(405,358,o),
(287,358,cs),
(146,358,l)
);
}
);
width = 570;
},
{
layerId = "BD1314B0-2F62-4F06-89D3-8B766BA843F0";
shapes = (
{
closed = 1;
nodes = (
(152,0,l),
(189,265,l),
(319,265,ls),
(493,265,o),
(579,364,o),
(596,475,cs),
(615,602,o),
(543,700,o),
(374,700,cs),
(111,700,l),
(12,0,l)
);
},
{
closed = 1;
nodes = (
(235,586,l),
(356,586,ls),
(438,586,o),
(465,551,o),
(457,490,cs),
(448,422,o),
(404,378,o),
(320,378,cs),
(205,378,l)
);
}
);
width = 589;
},
{
layerId = "897F30B6-1700-43C7-9C60-A606C7C7F267";
shapes = (
{
closed = 1;
nodes = (
(114,0,l),
(156,299,l),
(307,299,ls),
(470,299,o),
(555,386,o),
(571,499,cs),
(587,614,o),
(526,700,o),
(363,700,cs),
(142,700,l),
(44,0,l)
);
},
{
closed = 1;
nodes = (
(204,641,l),
(355,641,ls),
(472,641,o),
(512,589,o),
(498,499,cs),
(484,412,o),
(433,359,o),
(315,359,cs),
(164,359,l)
);
}
);
width = 589;
}
);
unicode = 80;
},
{
color = 0;
glyphname = Q;
kernLeft = O;
kernRight = O;
lastChange = "2024-08-29 14:23:35 +0000";
layers = (
{
associatedMasterId = "897F30B6-1700-43C7-9C60-A606C7C7F267";
layerId = "02575D39-7864-4EEF-9012-950E1A85E8A1";
name = public.background;
shapes = (
{
closed = 1;
nodes = (
(322,-137,l),
(109,59,l),
(45,33,l),
(228,-137,l)
);
},
{
alignment = -1;
pos = (45,0);
ref = O;
}
);
width = 834;
},
{
anchors = (
{
name = top;
pos = (391,700);
}
);
associatedMasterId = "897F30B6-1700-43C7-9C60-A606C7C7F267";
layerId = "E3160E8F-7C5D-4886-9BD2-DEE45D055A52";
name = "3 Jan 23 17:04";
shapes = (
{
closed = 1;
nodes = (
(537,0,o),
(734,101,o),
(734,355,cs),
(734,569,o),
(598,712,o),
(391,712,cs),
(185,712,o),
(48,569,o),
(48,355,cs),
(48,140,o),
(185,0,o),
(391,0,cs)
);
},
{
closed = 1;
nodes = (
(230,62,o),
(120,167,o),
(120,355,cs),
(120,543,o),
(230,650,o),
(391,650,cs),
(552,650,o),
(662,543,o),
(662,355,cs),
(662,167,o),
(552,62,o),
(391,62,cs)
);
},
{
closed = 1;
nodes = (
(495,293,l),
(407,293,l),
(686,0,l),
(770,0,l)
);
}
);
width = 795;
},
{
anchors = (
{
name = top;
pos = (395,700);
}
);
associatedMasterId = "BD1314B0-2F62-4F06-89D3-8B766BA843F0";
layerId = "BF73D2D9-CA50-47B5-AC17-B80F771C1F84";
name = "3 Jan 23 17:21";
shapes = (
{
closed = 1;
nodes = (
(783,0,l),
(784,129,l),
(462,128,l),
(395,0,l)
);
},
{
closed = 1;
nodes = (
(522,0,o),
(747,117,o),
(747,355,cs),
(747,569,o),
(604,712,o),
(395,712,cs),
(186,712,o),
(43,569,o),
(43,355,cs),
(43,141,o),
(186,0,o),
(395,0,cs)
);
},
{
closed = 1;
nodes = (
(267,126,o),
(185,209,o),
(185,355,cs),
(185,501,o),
(267,586,o),
(395,586,cs),
(522,586,o),
(604,501,o),
(604,355,cs),
(604,209,o),
(522,126,o),
(395,126,cs)
);
}
);
width = 807;
},
{
anchors = (
{
name = top;
pos = (442,700);
}
);
layerId = "BD1314B0-2F62-4F06-89D3-8B766BA843F0";
name = Heavy;
shapes = (
{
closed = 1;
nodes = (
(733,0,l),
(751,121,l),
(699,121,ls),
(674,121,o),
(667,122,o),
(658,134,cs),
(474,382,l),
(373,308,l),
(590,28,ls),
(605,9,o),
(614,0,o),
(648,0,cs)
);
},
{
closed = 1;
nodes = (
(555,-12,o),
(716,132,o),
(745,336,cs),
(775,549,o),
(651,712,o),
(428,712,cs),
(232,712,o),
(72,568,o),
(43,364,cs),
(13,153,o),
(136,-12,o),
(359,-12,cs)
);
},
{
closed = 1;
nodes = (
(229,114,o),
(161,211,o),
(182,350,cs),
(204,495,o),
(302,586,o),
(423,586,cs),
(557,586,o),
(624,490,o),
(604,351,cs),
(583,205,o),
(484,114,o),
(364,114,cs)
);
}
);
width = 789;
},
{
anchors = (
{
name = top;
pos = (391,700);
}
);
associatedMasterId = "897F30B6-1700-43C7-9C60-A606C7C7F267";
layerId = "0FE4D649-DBC0-4594-973C-3EBAEF739317";
name = "3 Jan 23 17:21";
shapes = (
{
closed = 1;
nodes = (
(767,0,l),
(767,62,l),
(474,58,l),
(391,0,l)
);
},
{
closed = 1;
nodes = (
(537,0,o),
(734,101,o),
(734,355,cs),
(734,569,o),
(598,712,o),
(391,712,cs),
(185,712,o),
(48,569,o),
(48,355,cs),
(48,140,o),
(185,0,o),
(391,0,cs)
);
},
{
closed = 1;
nodes = (
(230,62,o),
(120,167,o),
(120,355,cs),
(120,543,o),
(230,650,o),
(391,650,cs),
(552,650,o),
(662,543,o),
(662,355,cs),
(662,167,o),
(552,62,o),
(391,62,cs)
);
}
);
width = 795;
},
{
anchors = (
{
name = top;
pos = (438,700);
}
);
layerId = "897F30B6-1700-43C7-9C60-A606C7C7F267";
name = Light;
shapes = (
{
closed = 1;
nodes = (
(715,0,l),
(724,62,l),
(671,62,ls),
(651,62,o),
(647,63,o),
(637,76,cs),
(466,293,l),
(418,254,l),
(596,22,ls),
(609,6,o),
(625,0,o),
(645,0,cs)
);
},
{
closed = 1;
nodes = (
(551,-12,o),
(707,135,o),
(737,337,cs),
(767,540,o),
(653,712,o),
(435,712,cs),
(239,712,o),
(82,564,o),
(52,359,cs),
(22,155,o),
(138,-12,o),
(354,-12,cs)
);
},
{
closed = 1;
nodes = (
(191,49,o),
(100,181,o),
(126,359,cs),
(152,539,o),
(276,650,o),
(427,650,cs),
(598,650,o),
(692,515,o),
(665,337,cs),
(638,161,o),
(513,49,o),
(363,49,cs)
);
}
);
width = 789;
},
{
anchors = (
{
name = top;
pos = (438,700);
}
);
associatedMasterId = "897F30B6-1700-43C7-9C60-A606C7C7F267";
layerId = "A3CA6043-A143-40E2-8409-B6D6BD8FF367";
name = "29 Aug 24 at 16:23";
shapes = (
{
closed = 1;
nodes = (
(715,0,l),
(724,62,l),
(671,62,ls),
(651,62,o),
(647,63,o),
(637,76,cs),
(466,293,l),
(418,254,l),
(596,22,ls),
(609,6,o),
(625,0,o),
(645,0,cs)
);
},
{
ref = O;
}
);
width = 789;
},
{
anchors = (
{
name = top;
pos = (442,700);
}
);
associatedMasterId = "BD1314B0-2F62-4F06-89D3-8B766BA843F0";
layerId = "7C9E36ED-39DE-4F69-807A-A08CD2B7B5AA";
name = "29 Aug 24 at 16:23";
shapes = (
{
closed = 1;
nodes = (
(733,0,l),
(751,121,l),
(699,121,ls),
(674,121,o),
(667,122,o),
(658,134,cs),
(474,382,l),
(373,308,l),
(590,28,ls),
(605,9,o),
(614,0,o),
(648,0,cs)
);
},
{
ref = O;
}
);
width = 789;
}
);
unicode = 81;
},
{
color = 0;
glyphname = R;
kernLeft = H;
kernRight = R;
lastChange = "2024-08-29 14:24:02 +0000";
layers = (
{
anchors = (
{
name = bottom;
pos = (317,0);
},
{
name = top;
pos = (375,700);
}
);
layerId = "BD1314B0-2F62-4F06-89D3-8B766BA843F0";
shapes = (
{
closed = 1;
nodes = (
(154,0,l),
(192,266,l),
(392,266,ls),
(451,266,o),
(464,226,o),
(460,167,cs),
(448,0,l),
(585,0,l),
(598,159,ls),
(604,228,o),
(585,284,o),
(540,321,c),
(593,358,o),
(630,412,o),
(639,475,cs),
(658,602,o),
(586,700,o),
(417,700,cs),
(113,700,l),
(14,0,l)
);
},
{
closed = 1;
nodes = (
(237,586,l),
(398,586,ls),
(481,586,o),
(508,551,o),
(499,490,cs),
(489,422,o),
(446,378,o),
(363,378,cs),
(207,378,l)
);
}
);
width = 640;
},
{
anchors = (
{
name = bottom;
pos = (299,0);
},
{
name = top;
pos = (358,700);
}
);
layerId = "897F30B6-1700-43C7-9C60-A606C7C7F267";
shapes = (
{
closed = 1;
nodes = (
(114,0,l),
(154,293,l),
(346,293,ls),
(473,293,o),
(504,248,o),
(494,136,cs),
(482,0,l),
(550,0,l),
(563,147,ls),
(570,230,o),
(552,291,o),
(489,323,c),
(561,359,o),
(602,424,o),
(612,497,cs),
(627,612,o),
(570,700,o),
(408,700,cs),
(142,700,l),
(44,0,l)
);
},
{
closed = 1;
nodes = (
(203,641,l),
(394,641,ls),
(512,641,o),
(551,585,o),
(540,497,cs),
(529,412,o),
(468,350,o),
(353,350,cs),
(163,350,l)
);
}
);
width = 640;
},
{
associatedMasterId = "897F30B6-1700-43C7-9C60-A606C7C7F267";
layerId = "02575D39-7864-4EEF-9012-950E1A85E8A1";
name = public.background;
shapes = (
{
closed = 1;
nodes = (
(146,0,l),
(146,293,l),
(287,293,ls),
(451,293,o),
(524,385,o),
(524,497,cs),
(524,612,o),
(448,700,o),
(286,700,cs),
(76,700,l),
(76,0,l)
);
},
{
closed = 1;
nodes = (
(532,0,l),
(341,315,l),
(261,315,l),
(448,0,l)
);
},
{
closed = 1;
nodes = (
(146,641,l),
(286,641,ls),
(404,641,o),
(452,585,o),
(452,497,cs),
(452,412,o),
(401,350,o),
(287,350,cs),
(146,350,l)
);
}
);
width = 583;
},
{
anchors = (
{
name = bottom;
pos = (299,0);
},
{
name = top;
pos = (358,700);
}
);
associatedMasterId = "897F30B6-1700-43C7-9C60-A606C7C7F267";
layerId = "D911CC8E-BF2A-4C19-8C92-C32855DFA9B3";
name = "29 Aug 24 at 16:23";
shapes = (
{
closed = 1;
nodes = (
(114,0,l),
(154,293,l),
(346,293,ls),
(510,293,o),
(597,385,o),
(612,497,cs),
(627,612,o),
(570,700,o),
(408,700,cs),
(142,700,l),
(44,0,l)
);
},
{
closed = 1;
nodes = (
(550,0,l),
(563,147,ls),
(574,273,o),
(527,348,o),
(353,347,c),
(352,337,o),
(347,307,o),
(346,293,c),
(473,293,o),
(504,248,o),
(494,136,cs),
(482,0,l)
);
},
{
closed = 1;
nodes = (
(203,641,l),
(394,641,ls),
(512,641,o),
(551,585,o),
(540,497,cs),
(529,412,o),
(468,350,o),
(353,350,cs),
(163,350,l)
);
}
);
width = 640;
},
{
anchors = (
{
name = bottom;
pos = (317,0);
},
{
name = top;
pos = (375,700);
}
);
associatedMasterId = "BD1314B0-2F62-4F06-89D3-8B766BA843F0";
layerId = "273A3606-F5DC-4C21-862B-DE356F7B84D8";
name = "29 Aug 24 at 16:23";
shapes = (
{
closed = 1;
nodes = (
(154,0,l),
(192,265,l),
(362,265,ls),
(499,265,o),
(621,353,o),
(639,475,cs),
(658,602,o),
(586,700,o),
(417,700,cs),
(113,700,l),
(14,0,l)
);
},
{
closed = 1;
nodes = (
(585,0,l),
(598,159,ls),
(608,287,o),
(536,368,o),
(372,372,c),
(371,349,o),
(362,286,o),
(363,269,c),
(445,266,o),
(465,235,o),
(460,167,cs),
(448,0,l)
);
},
{
closed = 1;
nodes = (
(237,586,l),
(398,586,ls),
(481,586,o),
(508,551,o),
(499,490,cs),
(489,422,o),
(446,378,o),
(363,378,cs),
(207,378,l)
);
}
);
width = 640;
}
);
unicode = 82;
},
{
color = 0;
glyphname = S;
kernLeft = S;
kernRight = S;
lastChange = "2024-08-29 14:25:20 +0000";
layers = (
{
associatedMasterId = "897F30B6-1700-43C7-9C60-A606C7C7F267";
layerId = "02575D39-7864-4EEF-9012-950E1A85E8A1";
name = public.background;
shapes = (
{
closed = 1;
nodes = (
(440,-7,o),
(517,89,o),
(517,184,cs),
(517,444,o),
(133,320,o),
(133,522,cs),
(133,603,o),
(201,648,o),
(283,647,c),
(380,646,o),
(427,586,o),
(435,537,c),
(511,537,l),
(499,633,o),
(419,707,o),
(286,707,c),
(151,707,o),
(62,628,o),
(62,520,cs),
(62,257,o),
(446,387,o),
(446,181,cs),
(446,109,o),
(389,52,o),
(292,52,cs),
(179,52,o),
(136,122,o),
(130,180,c),
(56,180,l),
(60,73,o),
(152,-7,o),
(292,-7,cs)
);
}
);
width = 602;
},
{
anchors = (
{
name = bottom;
pos = (272,0);
},
{
name = top;
pos = (361,700);
}
);
layerId = "BD1314B0-2F62-4F06-89D3-8B766BA843F0";
shapes = (
{
closed = 1;
nodes = (
(428,-12,o),
(559,76,o),
(559,223,cs),
(559,311,o),
(509,369,o),
(403,400,cs),
(306,428,ls),
(245,446,o),
(220,475,o),
(225,513,cs),
(233,573,o),
(294,593,o),
(344,593,cs),
(399,593,o),
(463,570,o),
(464,480,c),
(589,480,l),
(597,641,o),
(491,712,o),
(349,712,cs),
(212,712,o),
(100,628,o),
(100,485,cs),
(100,395,o),
(154,342,o),
(251,313,cs),
(355,282,ls),
(406,267,o),
(430,243,o),
(430,204,cs),
(430,140,o),
(371,108,o),
(298,108,cs),
(240,108,o),
(158,139,o),
(157,242,c),
(34,242,l),
(24,61,o),
(163,-12,o),
(292,-12,cs)
);
}
);
width = 607;
},
{
anchors = (
{
name = bottom;
pos = (265,1);
},
{
name = top;
pos = (380,699);
}
);
layerId = "897F30B6-1700-43C7-9C60-A606C7C7F267";
shapes = (
{
closed = 1;
nodes = (
(434,-12,o),
(548,71,o),
(548,213,cs),
(548,286,o),
(506,341,o),
(417,369,cs),
(288,409,ls),
(223,429,o),
(189,462,o),
(189,510,cs),
(189,593,o),
(264,650,o),
(359,650,cs),
(459,650,o),
(523,600,o),
(518,507,c),
(589,507,l),
(599,638,o),
(504,711,o),
(372,711,cs),
(238,711,o),
(119,623,o),
(119,495,cs),
(119,416,o),
(174,372,o),
(268,344,cs),
(387,308,ls),
(447,290,o),
(479,255,o),
(479,202,cs),
(479,107,o),
(394,49,o),
(291,49,cs),
(174,49,o),
(97,117,o),
(111,215,c),
(41,215,l),
(26,65,o),
(134,-12,o),
(283,-12,cs)
);
}
);
width = 607;
},
{
anchors = (
{
name = bottom;
pos = (265,1);
},
{
name = top;
pos = (380,699);
}
);
associatedMasterId = "897F30B6-1700-43C7-9C60-A606C7C7F267";
layerId = "F56B52D9-1F57-408B-9E50-C78D56AF753A";
name = "29 Aug 24 at 16:24";
shapes = (
{
closed = 1;
nodes = (
(406,-14,o),
(523,45,o),
(545,175,cs),
(561,267,o),
(521,337,o),
(417,369,cs),
(288,409,ls),
(214,432,o),
(180,471,o),
(191,531,cs),
(205,607,o),
(274,652,o),
(365,650,cs),
(461,649,o),
(523,599,o),
(518,508,c),
(589,506,l),
(599,635,o),
(506,709,o),
(377,711,cs),
(254,713,o),
(141,640,o),
(122,530,cs),
(104,428,o),
(161,377,o),
(268,344,cs),
(387,308,ls),
(457,286,o),
(488,243,o),
(476,174,cs),
(460,89,o),
(379,48,o),
(288,49,cs),
(180,51,o),
(100,105,o),
(111,214,c),
(41,216,l),
(24,66,o),
(136,-9,o),
(277,-12,cs)
);
}
);
width = 607;
},
{
anchors = (
{
name = bottom;
pos = (272,0);
},
{
name = top;
pos = (361,700);
}
);
associatedMasterId = "BD1314B0-2F62-4F06-89D3-8B766BA843F0";
layerId = "A6C5A3ED-EE4C-4B6B-B287-C37E0C0D45C7";
name = "29 Aug 24 at 16:24";
shapes = (
{
closed = 1;
nodes = (
(413,-12,o),
(536,61,o),
(556,184,cs),
(572,294,o),
(524,366,o),
(403,400,cs),
(306,428,ls),
(245,446,o),
(220,475,o),
(225,513,cs),
(233,573,o),
(294,593,o),
(344,593,cs),
(399,593,o),
(463,570,o),
(464,480,c),
(589,479,l),
(597,640,o),
(491,712,o),
(349,712,cs),
(222,712,o),
(120,638,o),
(103,526,cs),
(85,411,o),
(140,345,o),
(251,313,cs),
(355,282,ls),
(412,265,o),
(436,237,o),
(429,189,cs),
(422,142,o),
(374,108,o),
(298,108,cs),
(240,108,o),
(158,138,o),
(157,241,c),
(34,242,l),
(24,61,o),
(163,-12,o),
(292,-12,cs)
);
}
);
width = 607;
}
);
unicode = 83;
},
{
glyphname = T;
kernLeft = T;
kernRight = T;
lastChange = "2024-05-09 20:05:48 +0000";
layers = (
{
associatedMasterId = "897F30B6-1700-43C7-9C60-A606C7C7F267";
layerId = "02575D39-7864-4EEF-9012-950E1A85E8A1";
name = public.background;
shapes = (
{
closed = 1;
nodes = (
(310,0,l),
(310,641,l),
(504,641,l),
(504,699,l),
(45,699,l),
(45,641,l),
(240,641,l),
(240,0,l)
);
}
);
width = 599;
},
{
anchors = (
{
name = bottom;
pos = (257,0);
},
{
name = top;
pos = (355,700);
}
);
layerId = "BD1314B0-2F62-4F06-89D3-8B766BA843F0";
shapes = (
{
closed = 1;
nodes = (
(329,0,l),
(412,587,l),
(615,587,l),
(630,700,l),
(84,700,l),
(68,587,l),
(272,587,l),
(189,0,l)
);
}
);
width = 587;
},
{
anchors = (
{
name = bottom;
pos = (258,0);
},
{
name = top;
pos = (358,700);
}
);
layerId = "897F30B6-1700-43C7-9C60-A606C7C7F267";
shapes = (
{
closed = 1;
nodes = (
(294,0,l),
(385,642,l),
(594,642,l),
(602,700,l),
(112,700,l),
(103,642,l),
(315,642,l),
(224,0,l)
);
}
);
width = 587;
}
);
unicode = 84;
},
{
color = 4;
glyphname = U;
kernLeft = U;
kernRight = U;
lastChange = "2024-08-28 21:32:08 +0000";
layers = (
{
associatedMasterId = "897F30B6-1700-43C7-9C60-A606C7C7F267";
layerId = "02575D39-7864-4EEF-9012-950E1A85E8A1";
name = public.background;
shapes = (
{
closed = 1;
nodes = (
(466,-7,o),
(578,75,o),
(578,260,cs),
(578,699,l),
(508,699,l),
(508,259,ls),
(508,114,o),
(434,55,o),
(325,55,cs),
(216,55,o),
(140,114,o),
(140,259,cs),
(140,699,l),
(70,699,l),
(70,260,ls),
(70,75,o),
(182,-7,o),
(324,-7,cs)
);
}
);
width = 688;
},
{
anchors = (
{
name = ogonek;
pos = (360,1);
},
{
name = top;
pos = (381,700);
}
);
background = {
shapes = (
{
closed = 1;
nodes = (
(433,-12,o),
(575,80,o),
(602,271,cs),
(662,700,l),
(522,700,l),
(462,270,ls),
(447,168,o),
(387,117,o),
(298,117,cs),
(208,117,o),
(163,168,o),
(178,270,cs),
(238,700,l),
(98,700,l),
(38,271,ls),
(11,80,o),
(121,-12,o),
(277,-12,cs)
);
}
);
};
layerId = "BD1314B0-2F62-4F06-89D3-8B766BA843F0";
shapes = (
{
closed = 1;
nodes = (
(437,-12,o),
(575,76,o),
(602,268,cs),
(663,700,l),
(523,700,l),
(463,274,ls),
(449,172,o),
(385,117,o),
(293,117,cs),
(203,117,o),
(164,169,o),
(176,250,cs),
(239,700,l),
(99,700,l),
(39,275,ls),
(12,83,o),
(125,-12,o),
(284,-12,cs)
);
}
);
width = 634;
},
{
anchors = (
{
name = ogonek;
pos = (350,0);
},
{
name = top;
pos = (379,700);
}
);
layerId = "897F30B6-1700-43C7-9C60-A606C7C7F267";
shapes = (
{
closed = 1;
nodes = (
(422,-12,o),
(546,70,o),
(572,255,cs),
(635,700,l),
(565,700,l),
(502,254,ls),
(482,109,o),
(399,50,o),
(290,50,cs),
(182,50,o),
(114,109,o),
(134,254,cs),
(196,700,l),
(126,700,l),
(64,255,ls),
(38,70,o),
(139,-12,o),
(281,-12,cs)
);
}
);
width = 634;
}
);
unicode = 85;
},
{
glyphname = V;
lastChange = "2024-05-09 20:05:48 +0000";
layers = (
{
associatedMasterId = "897F30B6-1700-43C7-9C60-A606C7C7F267";
layerId = "02575D39-7864-4EEF-9012-950E1A85E8A1";
name = public.background;
shapes = (
{
closed = 1;
nodes = (
(369,0,l),
(634,699,l),
(560,699,l),
(329,76,l),
(100,699,l),
(24,699,l),
(289,0,l)
);
}
);
width = 708;
},
{
layerId = "BD1314B0-2F62-4F06-89D3-8B766BA843F0";
shapes = (
{
closed = 1;
nodes = (
(407,0,l),
(759,700,l),
(610,700,l),
(338,143,l),
(227,700,l),
(80,700,l),
(235,0,l)
);
}
);
width = 710;
},
{
layerId = "897F30B6-1700-43C7-9C60-A606C7C7F267";
shapes = (
{
closed = 1;
nodes = (
(360,0,l),
(724,700,l),
(650,700,l),
(331,76,l),
(189,700,l),
(113,700,l),
(280,0,l)
);
}
);
width = 710;
}
);
unicode = 86;
},
{
glyphname = W;
kernLeft = W;
kernRight = W;
lastChange = "2024-05-09 20:05:48 +0000";
layers = (
{
associatedMasterId = "897F30B6-1700-43C7-9C60-A606C7C7F267";
layerId = "02575D39-7864-4EEF-9012-950E1A85E8A1";
name = public.background;
shapes = (
{
closed = 1;
nodes = (
(296,0,l),
(488,634,l),
(465,634,l),
(652,0,l),
(730,0,l),
(928,699,l),
(853,699,l),
(681,42,l),
(705,42,l),
(518,699,l),
(440,699,l),
(248,43,l),
(272,43,l),
(101,699,l),
(26,699,l),
(220,-1,l)
);
}
);
width = 1021;
},
{
anchors = (
{
name = bottom;
pos = (471,0);
},
{
name = top;
pos = (570,700);
}
);
layerId = "BD1314B0-2F62-4F06-89D3-8B766BA843F0";
shapes = (
{
closed = 1;
nodes = (
(334,0,l),
(559,548,l),
(535,548,l),
(603,0,l),
(770,0,l),
(1056,700,l),
(904,700,l),
(679,75,l),
(716,75,l),
(647,700,l),
(493,700,l),
(243,76,l),
(281,76,l),
(231,700,l),
(84,700,l),
(169,0,l)
);
}
);
width = 1012;
},
{
anchors = (
{
name = bottom;
pos = (472,0);
},
{
name = top;
pos = (571,700);
}
);
layerId = "897F30B6-1700-43C7-9C60-A606C7C7F267";
shapes = (
{
closed = 1;
nodes = (
(290,0,l),
(572,635,l),
(549,635,l),
(646,0,l),
(724,0,l),
(1021,700,l),
(946,700,l),
(681,42,l),
(705,42,l),
(610,700,l),
(532,700,l),
(248,43,l),
(272,43,l),
(194,700,l),
(119,700,l),
(214,0,l)
);
}
);
width = 1012;
}
);
unicode = 87;
},
{
glyphname = X;
lastChange = "2024-05-09 20:05:48 +0000";
layers = (
{
associatedMasterId = "897F30B6-1700-43C7-9C60-A606C7C7F267";
layerId = "02575D39-7864-4EEF-9012-950E1A85E8A1";
name = public.background;
shapes = (
{
closed = 1;
nodes = (
(543,0,l),
(118,699,l),
(40,699,l),
(465,0,l)
);
},
{
closed = 1;
nodes = (
(118,0,l),
(305,323,l),
(265,375,l),
(40,0,l)
);
},
{
closed = 1;
nodes = (
(544,699,l),
(466,699,l),
(280,383,l),
(320,331,l)
);
}
);
width = 675;
},
{
layerId = "BD1314B0-2F62-4F06-89D3-8B766BA843F0";
shapes = (
{
closed = 1;
nodes = (
(591,0,l),
(234,700,l),
(74,700,l),
(431,0,l)
);
},
{
closed = 1;
nodes = (
(138,0,l),
(342,283,l),
(273,391,l),
(-24,0,l)
);
},
{
closed = 1;
nodes = (
(686,700,l),
(524,700,l),
(322,420,l),
(389,312,l)
);
}
);
width = 637;
},
{
layerId = "897F30B6-1700-43C7-9C60-A606C7C7F267";
shapes = (
{
closed = 1;
nodes = (
(536,0,l),
(209,700,l),
(130,700,l),
(458,0,l)
);
},
{
closed = 1;
nodes = (
(111,0,l),
(343,323,l),
(311,375,l),
(33,0,l)
);
},
{
closed = 1;
nodes = (
(635,700,l),
(556,700,l),
(326,383,l),
(359,331,l)
);
}
);
width = 637;
}
);
unicode = 88;
},
{
glyphname = Y;
kernLeft = Y;
kernRight = Y;
lastChange = "2024-05-09 20:05:48 +0000";
layers = (
{
associatedMasterId = "897F30B6-1700-43C7-9C60-A606C7C7F267";
layerId = "02575D39-7864-4EEF-9012-950E1A85E8A1";
name = public.background;
shapes = (
{
closed = 1;
nodes = (
(318,0,l),
(318,272,l),
(542,699,l),
(464,699,l),
(267,304,l),
(299,304,l),
(101,699,l),
(22,699,l),
(248,272,l),
(248,0,l)
);
}
);
width = 638;
},
{
anchors = (
{
name = top;
pos = (385,700);
}
);
layerId = "BD1314B0-2F62-4F06-89D3-8B766BA843F0";
shapes = (
{
closed = 1;
nodes = (
(355,0,l),
(391,244,l),
(692,700,l),
(532,700,l),
(317,348,l),
(353,348,l),
(235,700,l),
(78,700,l),
(251,244,l),
(216,0,l)
);
}
);
width = 642;
},
{
anchors = (
{
name = top;
pos = (387,700);
}
);
layerId = "897F30B6-1700-43C7-9C60-A606C7C7F267";
shapes = (
{
closed = 1;
nodes = (
(323,0,l),
(362,272,l),
(645,700,l),
(567,700,l),
(315,304,l),
(347,304,l),
(204,700,l),
(125,700,l),
(291,272,l),
(253,0,l)
);
}
);
width = 642;
}
);
unicode = 89;
},
{
glyphname = Z;
kernLeft = Z;
kernRight = Z;
lastChange = "2024-05-09 20:05:48 +0000";
layers = (
{
associatedMasterId = "897F30B6-1700-43C7-9C60-A606C7C7F267";
layerId = "02575D39-7864-4EEF-9012-950E1A85E8A1";
name = public.background;
shapes = (
{
closed = 1;
nodes = (
(482,0,l),
(482,62,l),
(125,62,l),
(477,643,l),
(477,699,l),
(49,699,l),
(49,637,l),
(395,637,l),
(43,56,l),
(43,0,l)
);
}
);
width = 574;
},
{
anchors = (
{
name = top;
pos = (334,700);
}
);
layerId = "BD1314B0-2F62-4F06-89D3-8B766BA843F0";
shapes = (
{
closed = 1;
nodes = (
(474,0,l),
(491,116,l),
(173,116,l),
(559,593,l),
(572,700,l),
(97,700,l),
(80,584,l),
(394,584,l),
(11,107,l),
(-3,0,l)
);
}
);
width = 542;
},
{
anchors = (
{
name = top;
pos = (335,700);
}
);
layerId = "897F30B6-1700-43C7-9C60-A606C7C7F267";
shapes = (
{
closed = 1;
nodes = (
(455,0,l),
(465,62,l),
(107,62,l),
(541,644,l),
(549,700,l),
(121,700,l),
(113,637,l),
(458,637,l),
(24,56,l),
(17,0,l)
);
}
);
width = 542;
}
);
unicode = 90;
},
{
color = 0;
glyphname = a;
kernLeft = a;
kernRight = a;
lastChange = "2024-08-29 14:27:01 +0000";
layers = (
{
associatedMasterId = "897F30B6-1700-43C7-9C60-A606C7C7F267";
layerId = "02575D39-7864-4EEF-9012-950E1A85E8A1";
name = public.background;
shapes = (
{
closed = 1;
nodes = (
(472,0,l),
(472,305,ls),
(472,425,o),
(407,508,o),
(270,508,cs),
(170,508,o),
(71,451,o),
(59,344,c),
(133,344,l),
(145,412,o),
(201,448,o),
(270,448,cs),
(351,448,o),
(402,398,o),
(402,305,cs),
(402,0,l)
);
},
{
closed = 1;
nodes = (
(352,-12,o),
(409,74,o),
(427,158,c),
(402,226,l),
(402,138,o),
(333,50,o),
(233,50,cs),
(157,50,o),
(115,88,o),
(115,144,cs),
(115,199,o),
(154,241,o),
(263,241,cs),
(432,241,l),
(432,301,l),
(258,301,ls),
(129,301,o),
(42,246,o),
(42,142,cs),
(42,60,o),
(101,-12,o),
(226,-12,cs)
);
}
);
width = 557;
},
{
associatedMasterId = "897F30B6-1700-43C7-9C60-A606C7C7F267";
layerId = "6C1A5388-76EA-4812-8815-21936706EF3B";
name = "27 Dec 22 23:44";
shapes = (
{
closed = 1;
nodes = (
(472,100,l),
(472,305,ls),
(472,425,o),
(407,508,o),
(270,508,cs),
(170,508,o),
(71,451,o),
(59,344,c),
(133,344,l),
(145,412,o),
(201,448,o),
(270,448,cs),
(351,448,o),
(402,398,o),
(402,305,cs),
(402,169,l),
(402,100,l)
);
},
{
closed = 1;
nodes = (
(360,-12,o),
(409,74,o),
(427,158,c),
(402,226,l),
(402,138,o),
(341,50,o),
(241,50,cs),
(165,50,o),
(123,88,o),
(123,144,cs),
(123,199,o),
(150,239,o),
(254,239,c),
(360,238,o),
(414,238,o),
(432,237,c),
(422,296,l),
(405,296,o),
(346,296,o),
(229,296,c),
(125,296,o),
(50,246,o),
(50,142,cs),
(50,60,o),
(109,-12,o),
(234,-12,cs)
);
},
{
closed = 1;
nodes = (
(402,23,o),
(457,0,o),
(516,0,cs),
(533,0,l),
(533,60,l),
(526,60,ls),
(496,60,o),
(472,62,o),
(472,135,c),
(472,135,o),
(402,122,o),
(402,122,c)
);
}
);
width = 571;
},
{
anchors = (
{
name = ogonek;
pos = (520,0);
},
{
name = top;
pos = (295,496);
}
);
guides = (
{
pos = (-22,344);
}
);
layerId = "BD1314B0-2F62-4F06-89D3-8B766BA843F0";
shapes = (
{
closed = 1;
nodes = (
(246,-12,o),
(306,20,o),
(347,64,c),
(364,15,o),
(411,0,o),
(482,0,cs),
(520,0,l),
(536,117,l),
(529,117,ls),
(488,117,o),
(478,123,o),
(483,160,cs),
(503,301,ls),
(522,432,o),
(437,508,o),
(285,508,cs),
(168,508,o),
(68,445,o),
(42,339,c),
(182,339,l),
(197,379,o),
(235,395,o),
(281,395,cs),
(337,395,o),
(373,372,o),
(364,308,cs),
(360,279,l),
(336,288,o),
(295,299,o),
(233,299,cs),
(85,299,o),
(0,220,o),
(0,125,cs),
(0,48,o),
(65,-12,o),
(173,-12,cs)
);
},
{
closed = 1;
nodes = (
(143,179,o),
(183,212,o),
(248,212,cs),
(281,212,o),
(314,204,o),
(340,196,c),
(317,138,o),
(273,94,o),
(208,94,cs),
(171,94,o),
(143,112,o),
(143,140,cs)
);
}
);
width = 555;
},
{
anchors = (
{
name = ogonek;
pos = (490,0);
},
{
name = top;
pos = (294,496);
}
);
background = {
shapes = (
{
closed = 1;
nodes = (
(279,-12,o),
(337,31,o),
(374,85,c),
(375,17,o),
(413,0,o),
(475,0,cs),
(490,0,l),
(499,63,l),
(491,63,ls),
(451,63,o),
(439,65,o),
(450,138,cs),
(473,305,ls),
(490,425,o),
(437,508,o),
(300,508,cs),
(200,508,o),
(96,461,o),
(69,354,c),
(142,354,l),
(163,422,o),
(221,448,o),
(291,448,cs),
(372,448,o),
(416,398,o),
(403,305,cs),
(400,284,l),
(370,294,o),
(322,305,o),
(267,305,cs),
(138,305,o),
(43,246,o),
(27,137,cs),
(17,60,o),
(65,-12,o),
(190,-12,cs)
);
},
{
closed = 1;
nodes = (
(107,199,o),
(154,246,o),
(264,246,cs),
(312,246,o),
(361,236,o),
(392,227,c),
(391,219,ls),
(375,132,o),
(303,48,o),
(206,48,cs),
(129,48,o),
(91,87,o),
(99,139,cs)
);
}
);
};
guides = (
{
pos = (4,344);
}
);
layerId = "897F30B6-1700-43C7-9C60-A606C7C7F267";
shapes = (
{
closed = 1;
nodes = (
(280,-12,o),
(337,31,o),
(375,86,c),
(375,17,o),
(413,0,o),
(475,0,cs),
(490,0,l),
(499,62,l),
(491,62,ls),
(451,62,o),
(440,69,o),
(447,118,cs),
(473,305,ls),
(490,425,o),
(437,508,o),
(299,508,cs),
(199,508,o),
(96,461,o),
(69,354,c),
(143,354,l),
(165,422,o),
(222,448,o),
(291,448,cs),
(372,448,o),
(417,398,o),
(403,305,cs),
(400,284,l),
(370,294,o),
(322,305,o),
(267,305,cs),
(131,305,o),
(26,234,o),
(26,119,cs),
(26,47,o),
(78,-12,o),
(191,-12,cs)
);
},
{
closed = 1;
nodes = (
(99,191,o),
(145,246,o),
(264,246,cs),
(311,246,o),
(360,236,o),
(391,227,c),
(365,101,o),
(289,50,o),
(206,50,cs),
(136,50,o),
(99,81,o),
(99,131,cs)
);
}
);
width = 555;
},
{
anchors = (
{
name = ogonek;
pos = (490,0);
},
{
name = top;
pos = (294,496);
}
);
associatedMasterId = "897F30B6-1700-43C7-9C60-A606C7C7F267";
background = {
shapes = (
{
closed = 1;
nodes = (
(279,-12,o),
(337,31,o),
(374,85,c),
(375,17,o),
(413,0,o),
(475,0,cs),
(490,0,l),
(499,63,l),
(491,63,ls),
(451,63,o),
(439,65,o),
(450,138,cs),
(473,305,ls),
(490,425,o),
(437,508,o),
(300,508,cs),
(200,508,o),
(96,461,o),
(69,354,c),
(142,354,l),
(163,422,o),
(221,448,o),
(291,448,cs),
(372,448,o),
(416,398,o),
(403,305,cs),
(400,284,l),
(370,294,o),
(322,305,o),
(267,305,cs),
(138,305,o),
(43,246,o),
(27,137,cs),
(17,60,o),
(65,-12,o),
(190,-12,cs)
);
},
{
closed = 1;
nodes = (
(107,199,o),
(154,246,o),
(264,246,cs),
(312,246,o),
(361,236,o),
(392,227,c),
(391,219,ls),
(375,132,o),
(303,48,o),
(206,48,cs),
(129,48,o),
(91,87,o),
(99,139,cs)
);
}
);
};
guides = (
{
pos = (4,344);
}
);
layerId = "0A81DE34-0E40-4744-90DE-748364D09E6E";
name = "29 Aug 24 at 16:25";
shapes = (
{
closed = 1;
nodes = (
(445,103,l),
(473,305,ls),
(490,425,o),
(437,508,o),
(299,508,cs),
(199,508,o),
(96,461,o),
(69,354,c),
(143,354,l),
(165,422,o),
(222,448,o),
(291,448,cs),
(372,448,o),
(417,398,o),
(403,305,cs),
(383,169,l),
(374,100,l)
);
},
{
closed = 1;
nodes = (
(317,-12,o),
(380,74,o),
(411,158,c),
(392,226,l),
(379,137,o),
(306,50,o),
(206,50,cs),
(130,50,o),
(93,87,o),
(100,144,cs),
(107,199,o),
(154,246,o),
(264,246,cs),
(332,246,o),
(403,225,o),
(420,216,c),
(428,272,l),
(413,281,o),
(347,305,o),
(267,305,cs),
(138,305,o),
(43,246,o),
(28,142,cs),
(16,60,o),
(66,-12,o),
(191,-12,cs)
);
},
{
closed = 1;
nodes = (
(490,0,l),
(499,62,l),
(491,62,ls),
(451,62,o),
(439,65,o),
(449,137,c),
(377,122,l),
(364,23,o),
(403,0,o),
(475,0,cs)
);
}
);
visible = 1;
width = 555;
},
{
anchors = (
{
name = ogonek;
pos = (520,0);
},
{
name = top;
pos = (295,496);
}
);
associatedMasterId = "BD1314B0-2F62-4F06-89D3-8B766BA843F0";
guides = (
{
pos = (-22,344);
}
);
layerId = "2E063D2A-B5DC-476A-A0EC-191621BE2EF8";
name = "29 Aug 24 at 16:25";
shapes = (
{
closed = 1;
nodes = (
(473,86,l),
(503,301,ls),
(521,432,o),
(437,508,o),
(285,508,cs),
(168,508,o),
(68,445,o),
(42,339,c),
(182,339,l),
(197,379,o),
(235,395,o),
(281,395,cs),
(337,395,o),
(373,372,o),
(364,308,cs),
(337,116,l),
(333,87,l)
);
},
{
closed = 1;
nodes = (
(288,-12,o),
(368,66,o),
(398,149,c),
(357,265,l),
(346,176,o),
(297,94,o),
(208,94,cs),
(169,94,o),
(139,114,o),
(143,146,cs),
(148,182,o),
(186,212,o),
(248,212,cs),
(303,212,o),
(360,190,o),
(378,182,c),
(385,268,l),
(372,274,o),
(327,299,o),
(233,299,cs),
(96,299,o),
(13,231,o),
(1,145,cs),
(-11,58,o),
(56,-12,o),
(173,-12,cs)
);
},
{
closed = 1;
nodes = (
(520,0,l),
(536,117,l),
(529,117,ls),
(486,117,o),
(478,123,o),
(484,165,c),
(343,155,l),
(325,32,o),
(379,0,o),
(482,0,cs)
);
}
);
width = 555;
}
);
unicode = 97;
},
{
color = 11;
glyphname = b;
kernLeft = h;
kernRight = o;
lastChange = "2024-05-09 20:05:48 +0000";
layers = (
{
associatedMasterId = "897F30B6-1700-43C7-9C60-A606C7C7F267";
layerId = "02575D39-7864-4EEF-9012-950E1A85E8A1";
name = public.background;
shapes = (
{
closed = 1;
nodes = (
(477,-12,o),
(573,97,o),
(573,247,cs),
(573,397,o),
(477,508,o),
(327,508,cs),
(233,508,o),
(172,460,o),
(140,410,c),
(140,720,l),
(70,720,l),
(70,0,l),
(140,0,l),
(140,88,l),
(174,25,o),
(242,-12,o),
(326,-12,cs)
);
},
{
closed = 1;
nodes = (
(218,49,o),
(144,128,o),
(144,248,cs),
(144,368,o),
(218,447,o),
(323,447,cs),
(428,447,o),
(502,368,o),
(502,248,cs),
(502,128,o),
(428,49,o),
(323,49,cs)
);
}
);
width = 616;
},
{
layerId = "BD1314B0-2F62-4F06-89D3-8B766BA843F0";
shapes = (
{
closed = 1;
nodes = (
(446,-12,o),
(563,94,o),
(583,240,cs),
(604,393,o),
(512,508,o),
(372,508,cs),
(292,508,o),
(240,474,o),
(203,431,c),
(246,720,l),
(105,720,l),
(4,0,l),
(144,0,l),
(155,67,l),
(182,19,o),
(234,-12,o),
(310,-12,cs)
);
},
{
closed = 1;
nodes = (
(207,110,o),
(164,165,o),
(174,241,cs),
(185,323,o),
(252,386,o),
(333,386,cs),
(408,386,o),
(454,331,o),
(442,254,cs),
(429,172,o),
(363,110,o),
(282,110,cs)
);
}
);
width = 602;
},
{
layerId = "897F30B6-1700-43C7-9C60-A606C7C7F267";
shapes = (
{
closed = 1;
nodes = (
(439,-12,o),
(548,104,o),
(569,245,cs),
(590,385,o),
(512,508,o),
(362,508,cs),
(268,508,o),
(201,460,o),
(161,410,c),
(205,720,l),
(135,720,l),
(34,0,l),
(104,0,l),
(116,87,l),
(141,25,o),
(204,-12,o),
(288,-12,cs)
);
},
{
closed = 1;
nodes = (
(186,49,o),
(124,128,o),
(139,242,cs),
(156,375,o),
(254,447,o),
(350,447,cs),
(457,447,o),
(515,358,o),
(499,246,cs),
(483,133,o),
(399,49,o),
(293,49,cs)
);
}
);
width = 602;
}
);
unicode = 98;
},
{
color = 11;
glyphname = c;
kernLeft = o;
kernRight = c;
lastChange = "2024-05-09 20:05:48 +0000";
layers = (
{
associatedMasterId = "897F30B6-1700-43C7-9C60-A606C7C7F267";
layerId = "02575D39-7864-4EEF-9012-950E1A85E8A1";
name = public.background;
shapes = (
{
closed = 1;
nodes = (
(423,-8,o),
(512,69,o),
(537,178,c),
(462,178,l),
(443,98,o),
(378,51,o),
(286,51,cs),
(179,51,o),
(92,125,o),
(92,273,c),
(92,421,o),
(179,494,o),
(286,494,cs),
(378,494,o),
(444,446,o),
(462,368,c),
(537,368,l),
(512,481,o),
(423,554,o),
(286,554,cs),
(132,554,o),
(21,446,o),
(21,273,c),
(21,100,o),
(132,-8,o),
(286,-8,cs)
);
}
);
width = 580;
},
{
anchors = (
{
name = bottom;
pos = (241,0);
},
{
name = top;
pos = (318,496);
}
);
guides = (
{
pos = (-19,344);
}
);
layerId = "BD1314B0-2F62-4F06-89D3-8B766BA843F0";
shapes = (
{
closed = 1;
nodes = (
(374,-12,o),
(480,67,o),
(520,181,c),
(369,181,l),
(350,136,o),
(305,107,o),
(253,107,cs),
(197,107,o),
(157,146,o),
(157,212,cs),
(157,296,o),
(212,387,o),
(304,387,cs),
(350,387,o),
(384,365,o),
(390,322,c),
(536,322,l),
(527,441,o),
(442,508,o),
(311,508,cs),
(139,508,o),
(16,374,o),
(16,212,cs),
(16,79,o),
(107,-12,o),
(249,-12,cs)
);
}
);
width = 548;
},
{
anchors = (
{
name = bottom;
pos = (242,-1);
},
{
name = top;
pos = (317,497);
}
);
background = {
anchors = (
{
name = bottom;
pos = (241,-1);
},
{
name = top;
pos = (316,497);
}
);
shapes = (
{
closed = 1;
nodes = (
(371,-12,o),
(463,56,o),
(498,152,c),
(427,152,l),
(403,85,o),
(336,50,o),
(266,50,cs),
(154,50,o),
(98,110,o),
(98,206,cs),
(98,341,o),
(190,448,o),
(316,448,cs),
(393,448,o),
(449,410,o),
(454,344,c),
(524,344,l),
(519,427,o),
(460,508,o),
(324,508,cs),
(146,508,o),
(31,358,o),
(31,197,cs),
(31,75,o),
(114,-12,o),
(254,-12,cs)
);
}
);
};
guides = (
{
pos = (-7,344);
}
);
layerId = "897F30B6-1700-43C7-9C60-A606C7C7F267";
shapes = (
{
closed = 1;
nodes = (
(358,-12,o),
(462,47,o),
(492,152,c),
(423,152,l),
(404,85,o),
(334,50,o),
(267,50,cs),
(150,50,o),
(89,140,o),
(103,249,cs),
(119,377,o),
(217,448,o),
(303,448,cs),
(383,448,o),
(438,406,o),
(449,344,c),
(516,344,l),
(506,442,o),
(424,508,o),
(310,508,cs),
(182,508,o),
(60,407,o),
(37,254,cs),
(14,101,o),
(107,-12,o),
(256,-12,cs)
);
}
);
width = 548;
},
{
associatedMasterId = "897F30B6-1700-43C7-9C60-A606C7C7F267";
layerId = "91CB4FC6-77A3-4400-BAFF-ACF44F18AD42";
name = "5 Jan 23 00:49";
shapes = (
{
closed = 1;
nodes = (
(380,-12,o),
(497,85,o),
(518,231,cs),
(540,377,o),
(452,488,o),
(308,488,cs),
(185,488,o),
(68,391,o),
(46,244,cs),
(25,97,o),
(113,-12,o),
(256,-12,cs)
);
},
{
closed = 1;
nodes = (
(154,48,o),
(95,134,o),
(109,239,cs),
(125,362,o),
(219,430,o),
(301,430,cs),
(414,430,o),
(472,341,o),
(456,232,cs),
(440,122,o),
(358,48,o),
(267,48,cs)
);
}
);
width = 580;
},
{
anchors = (
{
name = bottom;
pos = (241,-1);
},
{
name = top;
pos = (316,497);
}
);
associatedMasterId = "897F30B6-1700-43C7-9C60-A606C7C7F267";
background = {
shapes = (
{
closed = 1;
nodes = (
(384,-12,o),
(505,89,o),
(528,241,cs),
(551,393,o),
(459,508,o),
(309,508,cs),
(181,508,o),
(59,407,o),
(36,254,cs),
(13,101,o),
(106,-12,o),
(255,-12,cs)
);
},
{
closed = 1;
nodes = (
(149,50,o),
(88,140,o),
(102,249,cs),
(118,377,o),
(216,448,o),
(302,448,cs),
(419,448,o),
(480,355,o),
(463,242,cs),
(446,127,o),
(361,50,o),
(266,50,cs)
);
}
);
};
guides = (
{
pos = (-1,344);
}
);
layerId = "F86AFD25-1412-4A80-970A-C6784FAA487E";
name = "19 Apr 24 at 14:54";
shapes = (
{
closed = 1;
nodes = (
(371,-12,o),
(463,56,o),
(498,152,c),
(427,152,l),
(403,85,o),
(336,50,o),
(266,50,cs),
(154,50,o),
(98,110,o),
(98,206,cs),
(98,341,o),
(190,448,o),
(316,448,cs),
(393,448,o),
(449,410,o),
(454,344,c),
(524,344,l),
(519,427,o),
(460,508,o),
(324,508,cs),
(146,508,o),
(31,358,o),
(31,197,cs),
(31,75,o),
(114,-12,o),
(254,-12,cs)
);
}
);
width = 561;
}
);
unicode = 99;
},
{
color = 11;
glyphname = d;
kernLeft = o;
lastChange = "2024-09-01 14:21:32 +0000";
layers = (
{
associatedMasterId = "897F30B6-1700-43C7-9C60-A606C7C7F267";
layerId = "02575D39-7864-4EEF-9012-950E1A85E8A1";
name = public.background;
shapes = (
{
closed = 1;
nodes = (
(361,-12,o),
(422,36,o),
(454,86,c),
(454,0,l),
(524,0,l),
(524,720,l),
(454,720,l),
(454,408,l),
(420,471,o),
(352,508,o),
(268,508,cs),
(117,508,o),
(21,399,o),
(21,249,cs),
(21,99,o),
(117,-12,o),
(267,-12,cs)
);
},
{
closed = 1;
nodes = (
(166,49,o),
(92,128,o),
(92,248,cs),
(92,368,o),
(166,447,o),
(271,447,cs),
(376,447,o),
(450,368,o),
(450,248,cs),
(450,128,o),
(376,49,o),
(271,49,cs)
);
}
);
width = 653;
},
{
anchors = (
{
name = bottom;
pos = (271,0);
},
{
name = center;
pos = (306,248);
},
{
name = top;
pos = (372,720);
},
{
name = topright;
pos = (646,720);
}
);
layerId = "BD1314B0-2F62-4F06-89D3-8B766BA843F0";
shapes = (
{
closed = 1;
nodes = (
(311,-12,o),
(363,22,o),
(400,65,c),
(389,0,l),
(529,0,l),
(630,720,l),
(490,720,l),
(448,429,l),
(420,477,o),
(370,508,o),
(294,508,cs),
(157,508,o),
(41,402,o),
(20,256,cs),
(-2,104,o),
(91,-12,o),
(232,-12,cs)
);
},
{
closed = 1;
nodes = (
(196,110,o),
(150,166,o),
(161,242,cs),
(173,324,o),
(241,386,o),
(320,386,cs),
(395,386,o),
(440,331,o),
(429,255,cs),
(417,173,o),
(350,110,o),
(270,110,cs)
);
}
);
width = 602;
},
{
anchors = (
{
name = bottom;
pos = (263,0);
},
{
name = center;
pos = (298,248);
},
{
name = top;
pos = (364,720);
},
{
name = topright;
pos = (642,720);
}
);
layerId = "897F30B6-1700-43C7-9C60-A606C7C7F267";
shapes = (
{
closed = 1;
nodes = (
(337,-12,o),
(404,36,o),
(444,86,c),
(431,0,l),
(502,0,l),
(603,720,l),
(532,720,l),
(489,408,l),
(464,471,o),
(401,508,o),
(317,508,cs),
(166,508,o),
(56,392,o),
(36,251,cs),
(16,110,o),
(93,-12,o),
(243,-12,cs)
);
},
{
closed = 1;
nodes = (
(150,49,o),
(89,137,o),
(106,250,cs),
(123,362,o),
(206,447,o),
(312,447,cs),
(417,447,o),
(479,368,o),
(463,248,cs),
(447,128,o),
(361,49,o),
(255,49,cs)
);
}
);
width = 602;
}
);
unicode = 100;
},
{
color = 11;
glyphname = e;
kernLeft = o;
kernRight = e;
lastChange = "2024-08-29 14:33:01 +0000";
layers = (
{
associatedMasterId = "897F30B6-1700-43C7-9C60-A606C7C7F267";
layerId = "02575D39-7864-4EEF-9012-950E1A85E8A1";
name = public.background;
shapes = (
{
closed = 1;
nodes = (
(377,-12,o),
(452,55,o),
(477,146,c),
(409,146,l),
(387,85,o),
(335,48,o),
(261,48,cs),
(175,48,o),
(89,112,o),
(89,247,cs),
(89,274,ls),
(89,387,o),
(169,448,o),
(260,448,cs),
(351,448,o),
(419,390,o),
(423,293,c),
(75,293,l),
(75,233,l),
(490,233,l),
(491,252,o),
(491,265,o),
(491,279,cs),
(491,398,o),
(407,508,o),
(263,508,cs),
(120,508,o),
(21,407,o),
(21,249,cs),
(21,91,o),
(121,-12,o),
(261,-12,cs)
);
}
);
width = 581;
},
{
anchors = (
{
name = bottom;
pos = (243,-3);
},
{
name = ogonek;
pos = (349,11);
},
{
name = top;
pos = (315,496);
}
);
layerId = "BD1314B0-2F62-4F06-89D3-8B766BA843F0";
shapes = (
{
closed = 1;
nodes = (
(368,-12,o),
(470,66,o),
(513,161,c),
(364,161,l),
(342,128,o),
(303,102,o),
(254,102,cs),
(185,102,o),
(145,148,o),
(155,224,cs),
(159,253,ls),
(173,346,o),
(238,395,o),
(309,395,cs),
(367,395,o),
(404,357,o),
(400,298,c),
(128,298,l),
(116,214,l),
(528,214,l),
(531,229,o),
(533,245,o),
(534,254,cs),
(555,399,o),
(464,508,o),
(313,508,cs),
(158,508,o),
(43,401,o),
(21,250,cs),
(-1,96,o),
(95,-12,o),
(251,-12,cs)
);
}
);
width = 557;
},
{
anchors = (
{
name = bottom;
pos = (237,-1);
},
{
name = ogonek;
pos = (347,12);
},
{
name = top;
pos = (311,496);
}
);
layerId = "897F30B6-1700-43C7-9C60-A606C7C7F267";
shapes = (
{
closed = 1;
nodes = (
(356,-12,o),
(442,55,o),
(479,146,c),
(412,146,l),
(380,85,o),
(323,48,o),
(252,48,cs),
(163,48,o),
(79,125,o),
(104,253,cs),
(109,279,ls),
(128,380,o),
(213,448,o),
(301,448,cs),
(395,448,o),
(455,390,o),
(446,293,c),
(97,293,l),
(89,233,l),
(504,233,l),
(508,250,o),
(510,263,o),
(512,279,cs),
(529,398,o),
(460,508,o),
(312,508,cs),
(172,508,o),
(60,407,o),
(37,255,cs),
(14,103,o),
(100,-12,o),
(243,-12,cs)
);
}
);
width = 557;
}
);
unicode = 101;
},
{
color = 8;
glyphname = f;
kernLeft = f;
lastChange = "2024-05-09 20:05:48 +0000";
layers = (
{
associatedMasterId = "897F30B6-1700-43C7-9C60-A606C7C7F267";
layerId = "02575D39-7864-4EEF-9012-950E1A85E8A1";
name = public.background;
shapes = (
{
closed = 1;
nodes = (
(168,0,l),
(168,584,ls),
(168,663,o),
(198,697,o),
(291,697,c),
(291,757,l),
(153,757,o),
(98,701,o),
(98,584,cs),
(98,0,l)
);
},
{
closed = 1;
nodes = (
(295,487,l),
(295,546,l),
(22,546,l),
(22,487,l)
);
}
);
width = 367;
},
{
layerId = "BD1314B0-2F62-4F06-89D3-8B766BA843F0";
shapes = (
{
closed = 1;
nodes = (
(181,0,l),
(257,543,ls),
(263,586,o),
(279,601,o),
(326,601,cs),
(358,601,l),
(375,720,l),
(310,720,ls),
(186,720,o),
(140,704,o),
(119,557,cs),
(41,0,l)
);
},
{
closed = 1;
nodes = (
(327,379,l),
(344,496,l),
(44,496,l),
(27,379,l)
);
}
);
width = 334;
},
{
layerId = "897F30B6-1700-43C7-9C60-A606C7C7F267";
shapes = (
{
closed = 1;
nodes = (
(141,0,l),
(223,587,ls),
(232,649,o),
(246,660,o),
(306,660,cs),
(345,660,l),
(353,720,l),
(303,720,ls),
(207,720,o),
(167,690,o),
(154,594,cs),
(71,0,l)
);
},
{
closed = 1;
nodes = (
(314,436,l),
(322,496,l),
(65,496,l),
(56,436,l)
);
}
);
width = 334;
}
);
unicode = 102;
},
{
color = 0;
glyphname = g;
kernLeft = g;
kernRight = g;
lastChange = "2024-10-09 14:18:24 +0000";
layers = (
{
associatedMasterId = "897F30B6-1700-43C7-9C60-A606C7C7F267";
layerId = "02575D39-7864-4EEF-9012-950E1A85E8A1";
name = public.background;
shapes = (
{
closed = 1;
nodes = (
(414,-232,o),
(482,-145,o),
(482,-63,cs),
(482,7,o),
(441,64,o),
(325,87,cs),
(107,131,l),
(109,93,l),
(200,187,l),
(136,211,l),
(52,115,l),
(52,76,l),
(279,32,ls),
(387,11,o),
(410,-17,o),
(410,-64,cs),
(410,-129,o),
(352,-172,o),
(264,-172,cs),
(173,-172,o),
(108,-141,o),
(108,-69,cs),
(108,-32,o),
(125,24,o),
(205,57,c),
(147,80,l),
(58,38,o),
(36,-30,o),
(36,-76,cs),
(36,-186,o),
(131,-232,o),
(264,-232,cs)
);
},
{
closed = 1;
nodes = (
(381,158,o),
(457,236,o),
(457,333,cs),
(457,430,o),
(381,508,o),
(262,508,cs),
(142,508,o),
(66,430,o),
(66,333,cs),
(66,236,o),
(142,158,o),
(262,158,cs)
);
},
{
closed = 1;
nodes = (
(191,218,o),
(137,259,o),
(137,333,cs),
(137,407,o),
(191,448,o),
(262,448,cs),
(332,448,o),
(386,407,o),
(386,333,cs),
(386,259,o),
(332,218,o),
(262,218,cs)
);
},
{
closed = 1;
nodes = (
(521,436,l),
(521,496,l),
(316,496,l),
(342,436,l)
);
}
);
width = 668;
},
{
anchors = (
{
name = top;
pos = (324,496);
}
);
layerId = "BD1314B0-2F62-4F06-89D3-8B766BA843F0";
shapes = (
{
closed = 1;
nodes = (
(395,-232,o),
(527,-147,o),
(552,27,cs),
(619,496,l),
(478,496,l),
(467,428,l),
(440,472,o),
(385,508,o),
(309,508,cs),
(153,508,o),
(28,376,o),
(28,220,cs),
(28,92,o),
(118,-1,o),
(250,-1,cs),
(327,-1,o),
(385,34,o),
(422,80,c),
(412,27,ls),
(395,-65,o),
(329,-111,o),
(256,-111,cs),
(193,-111,o),
(147,-84,o),
(145,-25,c),
(7,-25,l),
(3,-170,o),
(126,-232,o),
(254,-232,cs)
);
},
{
closed = 1;
nodes = (
(213,120,o),
(171,165,o),
(171,227,cs),
(171,315,o),
(243,386,o),
(333,386,cs),
(404,386,o),
(446,341,o),
(446,279,cs),
(446,192,o),
(375,120,o),
(283,120,cs)
);
}
);
width = 620;
},
{
anchors = (
{
name = top;
pos = (338,496);
}
);
guides = (
{
pos = (4,312);
}
);
layerId = "897F30B6-1700-43C7-9C60-A606C7C7F267";
shapes = (
{
closed = 1;
nodes = (
(382,-232,o),
(498,-131,o),
(521,29,cs),
(587,496,l),
(517,496,l),
(504,401,l),
(478,460,o),
(412,508,o),
(320,508,cs),
(158,508,o),
(30,367,o),
(30,208,cs),
(30,79,o),
(120,-12,o),
(245,-12,cs),
(348,-12,o),
(423,46,o),
(462,104,c),
(452,29,ls),
(435,-102,o),
(344,-171,o),
(240,-171,cs),
(151,-171,o),
(89,-120,o),
(77,-46,c),
(7,-46,l),
(13,-160,o),
(101,-232,o),
(232,-232,cs)
);
},
{
closed = 1;
nodes = (
(164,50,o),
(105,112,o),
(105,210,cs),
(105,335,o),
(188,448,o),
(315,448,cs),
(412,448,o),
(471,384,o),
(471,288,cs),
(471,160,o),
(382,50,o),
(259,50,cs)
);
}
);
width = 620;
}
);
unicode = 103;
},
{
color = 0;
glyphname = h;
kernLeft = h;
kernRight = n;
lastChange = "2024-08-29 14:27:52 +0000";
layers = (
{
associatedMasterId = "897F30B6-1700-43C7-9C60-A606C7C7F267";
layerId = "02575D39-7864-4EEF-9012-950E1A85E8A1";
name = public.background;
shapes = (
{
closed = 1;
nodes = (
(548,0,l),
(548,320,ls),
(548,480,o),
(451,556,o),
(330,556,c),
(224,556,o),
(136,498,o),
(120,389,c),
(140,298,l),
(140,431,o),
(211,495,o),
(313,495,c),
(413,495,o),
(479,433,o),
(479,312,cs),
(479,0,l)
);
},
{
closed = 1;
nodes = (
(140,0,l),
(140,740,l),
(70,740,l),
(70,0,l)
);
}
);
width = 664;
},
{
anchors = (
{
name = bottom;
pos = (254,0);
},
{
name = center;
pos = (304,360);
},
{
name = top;
pos = (176,720);
}
);
layerId = "BD1314B0-2F62-4F06-89D3-8B766BA843F0";
shapes = (
{
closed = 1;
nodes = (
(502,0,l),
(540,273,ls),
(561,422,o),
(502,508,o),
(375,508,cs),
(303,508,o),
(243,477,o),
(204,426,c),
(246,720,l),
(106,720,l),
(5,0,l),
(144,0,l),
(182,266,ls),
(193,343,o),
(256,390,o),
(323,390,cs),
(390,390,o),
(412,349,o),
(401,268,cs),
(363,0,l)
);
}
);
width = 569;
},
{
anchors = (
{
name = bottom;
pos = (251,0);
},
{
name = center;
pos = (299,360);
},
{
name = top;
pos = (178,720);
}
);
layerId = "897F30B6-1700-43C7-9C60-A606C7C7F267";
shapes = (
{
closed = 1;
nodes = (
(470,0,l),
(512,293,ls),
(533,441,o),
(465,508,o),
(354,508,cs),
(282,508,o),
(209,471,o),
(166,409,c),
(210,720,l),
(140,720,l),
(39,0,l),
(109,0,l),
(146,263,ls),
(163,382,o),
(244,447,o),
(334,447,cs),
(419,447,o),
(457,394,o),
(442,285,cs),
(402,0,l)
);
}
);
width = 569;
},
{
anchors = (
{
name = bottom;
pos = (251,0);
},
{
name = center;
pos = (299,360);
},
{
name = top;
pos = (178,720);
}
);
associatedMasterId = "897F30B6-1700-43C7-9C60-A606C7C7F267";
layerId = "E2CFE72A-3608-4F7C-98B6-B9D2A17616C6";
name = "29 Aug 24 at 16:27";
shapes = (
{
closed = 1;
nodes = (
(470,0,l),
(512,293,ls),
(533,441,o),
(465,508,o),
(354,508,cs),
(261,508,o),
(167,447,o),
(138,349,c),
(145,257,l),
(162,380,o),
(242,447,o),
(334,447,cs),
(419,447,o),
(457,394,o),
(442,285,cs),
(402,0,l)
);
},
{
closed = 1;
nodes = (
(109,0,l),
(210,720,l),
(140,720,l),
(39,0,l)
);
}
);
width = 569;
},
{
anchors = (
{
name = bottom;
pos = (254,0);
},
{
name = center;
pos = (304,360);
},
{
name = top;
pos = (176,720);
}
);
associatedMasterId = "BD1314B0-2F62-4F06-89D3-8B766BA843F0";
layerId = "3447CE4E-9E2B-4493-8B46-16E6DBA95C02";
name = "29 Aug 24 at 16:27";
shapes = (
{
closed = 1;
nodes = (
(502,0,l),
(540,273,ls),
(561,422,o),
(502,508,o),
(375,508,cs),
(282,508,o),
(209,456,o),
(177,378,c),
(179,252,l),
(192,336,o),
(252,390,o),
(323,390,cs),
(390,390,o),
(412,349,o),
(401,268,cs),
(363,0,l)
);
},
{
closed = 1;
nodes = (
(144,0,l),
(246,720,l),
(106,720,l),
(5,0,l)
);
}
);
width = 569;
}
);
unicode = 104;
},
{
glyphname = i;
kernLeft = i;
kernRight = i;
lastChange = "2024-05-09 20:05:48 +0000";
layers = (
{
associatedMasterId = "897F30B6-1700-43C7-9C60-A606C7C7F267";
layerId = "02575D39-7864-4EEF-9012-950E1A85E8A1";
name = public.background;
shapes = (
{
closed = 1;
nodes = (
(150,0,l),
(150,518,l),
(80,518,l),
(80,0,l)
);
},
{
closed = 1;
nodes = (
(143,605,o),
(166,627,o),
(166,657,cs),
(166,687,o),
(143,708,o),
(115,708,cs),
(87,708,o),
(64,687,o),
(64,657,cs),
(64,627,o),
(87,605,o),
(115,605,cs)
);
}
);
width = 275;
},
{
anchors = (
{
name = ogonek;
pos = (139,0);
}
);
layerId = "BD1314B0-2F62-4F06-89D3-8B766BA843F0";
shapes = (
{
closed = 1;
nodes = (
(139,0,l),
(209,496,l),
(70,496,l),
(0,0,l)
);
},
{
closed = 1;
nodes = (
(236,564,l),
(258,720,l),
(85,720,l),
(63,564,l)
);
}
);
width = 212;
},
{
anchors = (
{
name = ogonek;
pos = (106,0);
}
);
layerId = "897F30B6-1700-43C7-9C60-A606C7C7F267";
shapes = (
{
closed = 1;
nodes = (
(106,0,l),
(175,496,l),
(105,496,l),
(35,0,l)
);
},
{
closed = 1;
nodes = (
(209,617,l),
(224,720,l),
(121,720,l),
(106,617,l)
);
}
);
width = 212;
}
);
unicode = 105;
},
{
color = 8;
glyphname = j;
kernLeft = j;
kernRight = j;
lastChange = "2024-05-09 20:05:48 +0000";
layers = (
{
associatedMasterId = "897F30B6-1700-43C7-9C60-A606C7C7F267";
layerId = "02575D39-7864-4EEF-9012-950E1A85E8A1";
name = public.background;
shapes = (
{
closed = 1;
nodes = (
(102,-232,o),
(154,-191,o),
(154,-88,cs),
(154,496,l),
(84,496,l),
(84,-87,ls),
(84,-147,o),
(57,-172,o),
(16,-172,cs),
(-6,-172,o),
(-27,-168,o),
(-44,-161,c),
(-44,-221,l),
(-23,-228,o),
(0,-232,o),
(25,-232,cs)
);
},
{
closed = 1;
nodes = (
(148,617,o),
(170,639,o),
(170,669,cs),
(170,699,o),
(148,720,o),
(120,720,cs),
(92,720,o),
(69,699,o),
(69,669,cs),
(69,639,o),
(92,617,o),
(120,617,cs)
);
}
);
width = 276;
},
{
layerId = "BD1314B0-2F62-4F06-89D3-8B766BA843F0";
shapes = (
{
closed = 1;
nodes = (
(-47,-220,ls),
(61,-220,o),
(116,-193,o),
(134,-65,cs),
(212,496,l),
(73,496,l),
(-4,-51,ls),
(-10,-91,o),
(-22,-101,o),
(-65,-101,cs),
(-111,-101,l),
(-127,-220,l)
);
},
{
closed = 1;
nodes = (
(238,564,l),
(260,720,l),
(89,720,l),
(68,564,l)
);
}
);
width = 207;
},
{
layerId = "897F30B6-1700-43C7-9C60-A606C7C7F267";
shapes = (
{
closed = 1;
nodes = (
(-46,-220,ls),
(41,-220,o),
(81,-189,o),
(93,-101,cs),
(176,496,l),
(106,496,l),
(23,-98,ls),
(16,-151,o),
(3,-160,o),
(-49,-160,cs),
(-97,-160,l),
(-105,-220,l)
);
},
{
closed = 1;
nodes = (
(209,617,l),
(224,720,l),
(123,720,l),
(108,617,l)
);
}
);
width = 207;
}
);
unicode = 106;
},
{
color = 8;
glyphname = k;
kernLeft = h;
kernRight = k;
lastChange = "2024-08-28 18:21:48 +0000";
layers = (
{
associatedMasterId = "897F30B6-1700-43C7-9C60-A606C7C7F267";
layerId = "02575D39-7864-4EEF-9012-950E1A85E8A1";
name = public.background;
shapes = (
{
closed = 1;
nodes = (
(452,0,l),
(177,297,l),
(176,250,l),
(425,496,l),
(338,496,l),
(114,273,l),
(361,0,l)
);
},
{
closed = 1;
nodes = (
(140,0,l),
(140,720,l),
(70,720,l),
(70,0,l)
);
}
);
width = 484;
},
{
anchors = (
{
name = bottom;
pos = (229,0);
}
);
layerId = "BD1314B0-2F62-4F06-89D3-8B766BA843F0";
shapes = (
{
closed = 1;
nodes = (
(548,496,l),
(384,496,l),
(100,215,l),
(160,135,l)
);
},
{
closed = 1;
nodes = (
(145,0,l),
(247,720,l),
(107,720,l),
(5,0,l)
);
},
{
closed = 1;
nodes = (
(513,0,l),
(284,326,l),
(190,243,l),
(344,0,l)
);
}
);
width = 530;
},
{
anchors = (
{
name = bottom;
pos = (201,0);
}
);
layerId = "897F30B6-1700-43C7-9C60-A606C7C7F267";
shapes = (
{
closed = 1;
nodes = (
(489,496,l),
(400,496,l),
(122,253,l),
(122,179,l)
);
},
{
closed = 1;
nodes = (
(109,0,l),
(210,720,l),
(140,720,l),
(39,0,l)
);
},
{
closed = 1;
nodes = (
(445,0,l),
(252,322,l),
(200,273,l),
(371,0,l)
);
}
);
width = 530;
}
);
unicode = 107;
},
{
glyphname = l;
kernLeft = h;
kernRight = l;
lastChange = "2024-09-01 14:21:04 +0000";
layers = (
{
associatedMasterId = "897F30B6-1700-43C7-9C60-A606C7C7F267";
layerId = "02575D39-7864-4EEF-9012-950E1A85E8A1";
name = public.background;
shapes = (
{
closed = 1;
nodes = (
(140,0,l),
(140,700,l),
(70,700,l),
(70,0,l)
);
}
);
width = 269;
},
{
anchors = (
{
name = bottom;
pos = (72,0);
},
{
name = commaaccent;
pos = (74,10);
},
{
name = top;
pos = (173,720);
},
{
name = topright;
pos = (253,720);
}
);
layerId = "BD1314B0-2F62-4F06-89D3-8B766BA843F0";
shapes = (
{
closed = 1;
nodes = (
(140,0,l),
(242,720,l),
(102,720,l),
(1,0,l)
);
}
);
width = 212;
},
{
anchors = (
{
name = bottom;
pos = (71,0);
},
{
name = commaaccent;
pos = (73,10);
},
{
name = top;
pos = (172,720);
},
{
name = topright;
pos = (246,720);
}
);
layerId = "897F30B6-1700-43C7-9C60-A606C7C7F267";
shapes = (
{
closed = 1;
nodes = (
(106,0,l),
(207,720,l),
(137,720,l),
(36,0,l)
);
}
);
width = 212;
}
);
unicode = 108;
},
{
color = 0;
glyphname = m;
kernLeft = n;
kernRight = n;
lastChange = "2024-08-29 14:28:29 +0000";
layers = (
{
associatedMasterId = "897F30B6-1700-43C7-9C60-A606C7C7F267";
layerId = "02575D39-7864-4EEF-9012-950E1A85E8A1";
name = public.background;
shapes = (
{
closed = 1;
nodes = (
(824,0,l),
(824,293,ls),
(824,441,o),
(745,508,o),
(630,508,cs),
(541,508,o),
(457,447,o),
(441,349,c),
(482,257,l),
(482,380,o),
(545,447,o),
(628,447,cs),
(708,447,o),
(754,394,o),
(754,285,cs),
(754,0,l)
);
},
{
closed = 1;
nodes = (
(140,0,l),
(140,496,l),
(70,496,l),
(70,0,l)
);
},
{
closed = 1;
nodes = (
(482,0,l),
(482,293,ls),
(482,439,o),
(407,508,o),
(293,508,cs),
(201,508,o),
(129,448,o),
(114,350,c),
(140,257,l),
(140,380,o),
(203,447,o),
(286,447,cs),
(366,447,o),
(412,394,o),
(412,285,cs),
(412,0,l)
);
}
);
width = 940;
},
{
layerId = "BD1314B0-2F62-4F06-89D3-8B766BA843F0";
shapes = (
{
closed = 1;
nodes = (
(145,0,l),
(181,252,ls),
(193,336,o),
(246,390,o),
(314,390,cs),
(377,390,o),
(398,349,o),
(387,268,cs),
(350,0,l),
(490,0,l),
(525,254,ls),
(535,324,o),
(588,390,o),
(658,390,cs),
(721,390,o),
(742,349,o),
(731,268,cs),
(694,0,l),
(832,0,l),
(871,273,ls),
(892,422,o),
(830,508,o),
(696,508,cs),
(624,508,o),
(558,476,o),
(514,423,c),
(488,478,o),
(436,508,o),
(361,508,cs),
(297,508,o),
(245,483,o),
(207,441,c),
(215,496,l),
(75,496,l),
(5,0,l)
);
}
);
width = 899;
},
{
layerId = "897F30B6-1700-43C7-9C60-A606C7C7F267";
shapes = (
{
closed = 1;
nodes = (
(109,0,l),
(145,257,ls),
(162,380,o),
(235,447,o),
(317,447,cs),
(397,447,o),
(437,394,o),
(421,285,cs),
(380,0,l),
(450,0,l),
(487,257,ls),
(505,380,o),
(576,447,o),
(660,447,cs),
(740,447,o),
(779,394,o),
(763,285,cs),
(722,0,l),
(793,0,l),
(834,293,ls),
(855,441,o),
(785,508,o),
(670,508,cs),
(600,508,o),
(529,471,o),
(487,408,c),
(467,476,o),
(411,508,o),
(333,508,cs),
(267,508,o),
(208,478,o),
(168,425,c),
(178,496,l),
(109,496,l),
(39,0,l)
);
}
);
width = 899;
},
{
associatedMasterId = "897F30B6-1700-43C7-9C60-A606C7C7F267";
layerId = "A23AE076-CD2A-40C6-98F8-91B88C6B26D4";
name = "29 Aug 24 at 16:27";
shapes = (
{
closed = 1;
nodes = (
(793,0,l),
(834,293,ls),
(855,441,o),
(785,508,o),
(670,508,cs),
(580,508,o),
(489,447,o),
(459,349,c),
(487,257,l),
(504,380,o),
(576,447,o),
(660,447,cs),
(740,447,o),
(779,394,o),
(763,285,cs),
(722,0,l)
);
},
{
closed = 1;
nodes = (
(109,0,l),
(165,400,l),
(178,496,l),
(109,496,l),
(39,0,l)
);
},
{
closed = 1;
nodes = (
(450,0,l),
(492,293,ls),
(513,439,o),
(447,508,o),
(333,508,cs),
(241,508,o),
(161,448,o),
(131,350,c),
(145,257,l),
(162,380,o),
(235,447,o),
(317,447,cs),
(397,447,o),
(437,394,o),
(421,285,cs),
(380,0,l)
);
}
);
width = 899;
},
{
associatedMasterId = "BD1314B0-2F62-4F06-89D3-8B766BA843F0";
layerId = "541D998E-8F25-4CE8-AD20-2BA8303ABA4D";
name = "29 Aug 24 at 16:27";
shapes = (
{
closed = 1;
nodes = (
(832,0,l),
(871,273,ls),
(892,422,o),
(830,508,o),
(696,508,cs),
(606,508,o),
(526,458,o),
(485,380,c),
(526,252,l),
(536,336,o),
(590,390,o),
(658,390,cs),
(721,390,o),
(742,349,o),
(731,268,cs),
(694,0,l)
);
},
{
closed = 1;
nodes = (
(145,0,l),
(202,402,l),
(215,496,l),
(75,496,l),
(5,0,l)
);
},
{
closed = 1;
nodes = (
(490,0,l),
(528,273,ls),
(549,422,o),
(489,508,o),
(361,508,cs),
(270,508,o),
(201,456,o),
(168,378,c),
(181,252,l),
(193,336,o),
(246,390,o),
(314,390,cs),
(377,390,o),
(398,349,o),
(387,268,cs),
(350,0,l)
);
}
);
width = 899;
}
);
unicode = 109;
},
{
color = 0;
glyphname = n;
kernLeft = n;
kernRight = n;
lastChange = "2024-08-29 14:28:47 +0000";
layers = (
{
associatedMasterId = "897F30B6-1700-43C7-9C60-A606C7C7F267";
layerId = "02575D39-7864-4EEF-9012-950E1A85E8A1";
name = public.background;
shapes = (
{
closed = 1;
nodes = (
(502,0,l),
(502,293,ls),
(502,441,o),
(425,508,o),
(310,508,cs),
(215,508,o),
(136,447,o),
(120,349,c),
(140,257,l),
(140,380,o),
(207,447,o),
(298,447,cs),
(384,447,o),
(432,394,o),
(432,285,cs),
(432,0,l)
);
},
{
closed = 1;
nodes = (
(140,0,l),
(140,496,l),
(70,496,l),
(70,0,l)
);
}
);
width = 618;
},
{
anchors = (
{
name = bottom;
pos = (254,0);
},
{
name = top;
pos = (344,496);
}
);
layerId = "BD1314B0-2F62-4F06-89D3-8B766BA843F0";
shapes = (
{
closed = 1;
nodes = (
(502,0,l),
(540,273,ls),
(561,422,o),
(502,508,o),
(374,508,cs),
(301,508,o),
(242,477,o),
(204,426,c),
(214,496,l),
(75,496,l),
(5,0,l),
(144,0,l),
(181,262,l),
(197,340,o),
(254,390,o),
(320,390,cs),
(389,390,o),
(412,349,o),
(401,268,cs),
(363,0,l)
);
}
);
width = 569;
},
{
anchors = (
{
name = bottom;
pos = (249,0);
},
{
name = top;
pos = (336,496);
}
);
layerId = "897F30B6-1700-43C7-9C60-A606C7C7F267";
shapes = (
{
closed = 1;
nodes = (
(470,0,l),
(512,293,ls),
(533,441,o),
(465,508,o),
(351,508,cs),
(277,508,o),
(208,472,o),
(167,410,c),
(179,496,l),
(109,496,l),
(39,0,l),
(109,0,l),
(145,257,ls),
(162,380,o),
(239,447,o),
(330,447,cs),
(416,447,o),
(456,394,o),
(441,285,cs),
(401,0,l)
);
}
);
width = 569;
},
{
anchors = (
{
name = bottom;
pos = (249,0);
},
{
name = top;
pos = (336,496);
}
);
associatedMasterId = "897F30B6-1700-43C7-9C60-A606C7C7F267";
layerId = "3317AFC0-D515-4261-93EA-31E8D22CD807";
name = "29 Aug 24 at 16:28";
shapes = (
{
closed = 1;
nodes = (
(470,0,l),
(512,293,ls),
(533,441,o),
(465,508,o),
(351,508,cs),
(255,508,o),
(167,447,o),
(138,349,c),
(145,257,l),
(162,380,o),
(239,447,o),
(330,447,cs),
(416,447,o),
(456,394,o),
(441,285,cs),
(401,0,l)
);
},
{
closed = 1;
nodes = (
(109,0,l),
(159,358,l),
(179,496,l),
(109,496,l),
(39,0,l)
);
}
);
width = 569;
},
{
anchors = (
{
name = bottom;
pos = (254,0);
},
{
name = top;
pos = (344,496);
}
);
associatedMasterId = "BD1314B0-2F62-4F06-89D3-8B766BA843F0";
layerId = "6CEFEE41-267B-4450-B959-670CC6C0F9F8";
name = "29 Aug 24 at 16:28";
shapes = (
{
closed = 1;
nodes = (
(502,0,l),
(540,273,ls),
(561,422,o),
(502,508,o),
(374,508,cs),
(280,508,o),
(209,456,o),
(177,378,c),
(179,252,l),
(192,336,o),
(251,390,o),
(320,390,cs),
(389,390,o),
(412,349,o),
(401,268,cs),
(363,0,l)
);
},
{
closed = 1;
nodes = (
(144,0,l),
(196,370,l),
(214,496,l),
(75,496,l),
(5,0,l)
);
}
);
width = 569;
}
);
unicode = 110;
},
{
color = 11;
glyphname = o;
kernLeft = o;
kernRight = o;
lastChange = "2024-05-09 20:05:48 +0000";
layers = (
{
associatedMasterId = "897F30B6-1700-43C7-9C60-A606C7C7F267";
layerId = "02575D39-7864-4EEF-9012-950E1A85E8A1";
name = public.background;
shapes = (
{
closed = 1;
nodes = (
(446,-8,o),
(567,100,o),
(567,273,c),
(567,447,o),
(448,554,o),
(294,554,c),
(141,554,o),
(21,447,o),
(21,273,c),
(21,100,o),
(138,-8,o),
(292,-8,c)
);
},
{
closed = 1;
nodes = (
(188,53,o),
(92,123,o),
(92,273,c),
(92,423,o),
(189,493,o),
(293,493,c),
(397,493,o),
(495,423,o),
(495,273,c),
(495,123,o),
(395,53,o),
(292,53,c)
);
}
);
width = 610;
},
{
anchors = (
{
name = bottom;
pos = (253,0);
},
{
name = center;
pos = (288,248);
},
{
name = ogonek;
pos = (321,0);
},
{
name = top;
pos = (322,496);
},
{
name = topright;
pos = (608,496);
}
);
background = {
shapes = (
{
closed = 1;
nodes = (
(397,-12,o),
(529,95,o),
(551,248,cs),
(573,401,o),
(470,508,o),
(321,508,cs),
(172,508,o),
(39,401,o),
(17,248,cs),
(-5,95,o),
(97,-12,o),
(247,-12,cs)
);
},
{
closed = 1;
nodes = (
(196,109,o),
(148,156,o),
(161,248,cs),
(174,340,o),
(237,387,o),
(304,387,cs),
(371,387,o),
(420,340,o),
(407,248,cs),
(394,156,o),
(332,109,o),
(264,109,cs)
);
}
);
};
layerId = "BD1314B0-2F62-4F06-89D3-8B766BA843F0";
shapes = (
{
closed = 1;
nodes = (
(407,-12,o),
(531,92,o),
(552,237,cs),
(574,387,o),
(474,508,o),
(316,508,cs),
(170,508,o),
(45,405,o),
(24,260,cs),
(2,109,o),
(101,-12,o),
(259,-12,cs)
);
},
{
closed = 1;
nodes = (
(197,109,o),
(151,160,o),
(164,246,cs),
(178,339,o),
(238,387,o),
(311,387,cs),
(381,387,o),
(423,336,o),
(411,251,cs),
(398,159,o),
(337,109,o),
(264,109,cs)
);
}
);
width = 576;
},
{
anchors = (
{
name = bottom;
pos = (254,0);
},
{
name = center;
pos = (288,248);
},
{
name = ogonek;
pos = (315,0);
},
{
name = top;
pos = (324,496);
},
{
name = topright;
pos = (597,496);
}
);
background = {
shapes = (
{
closed = 1;
nodes = (
(395,-12,o),
(518,89,o),
(540,248,cs),
(562,407,o),
(471,508,o),
(326,508,cs),
(181,508,o),
(58,407,o),
(36,248,cs),
(14,89,o),
(105,-12,o),
(250,-12,cs)
);
},
{
closed = 1;
nodes = (
(163,48,o),
(89,115,o),
(108,248,cs),
(127,381,o),
(220,448,o),
(317,448,cs),
(413,448,o),
(487,381,o),
(468,248,cs),
(449,115,o),
(356,48,o),
(259,48,cs)
);
}
);
};
layerId = "897F30B6-1700-43C7-9C60-A606C7C7F267";
shapes = (
{
closed = 1;
nodes = (
(395,-12,o),
(516,89,o),
(539,241,cs),
(562,393,o),
(470,508,o),
(315,508,cs),
(182,508,o),
(60,407,o),
(37,254,cs),
(14,101,o),
(107,-12,o),
(261,-12,cs)
);
},
{
closed = 1;
nodes = (
(150,50,o),
(89,140,o),
(103,249,cs),
(119,377,o),
(217,448,o),
(308,448,cs),
(430,448,o),
(491,355,o),
(474,242,cs),
(457,127,o),
(372,50,o),
(272,50,cs)
);
}
);
width = 576;
},
{
anchors = (
{
name = bottom;
pos = (253,0);
},
{
name = center;
pos = (288,248);
},
{
name = ogonek;
pos = (321,0);
},
{
name = top;
pos = (322,496);
},
{
name = topright;
pos = (608,496);
}
);
associatedMasterId = "BD1314B0-2F62-4F06-89D3-8B766BA843F0";
background = {
shapes = (
{
closed = 1;
nodes = (
(397,-12,o),
(529,95,o),
(551,248,cs),
(573,401,o),
(470,508,o),
(321,508,cs),
(172,508,o),
(39,401,o),
(17,248,cs),
(-5,95,o),
(97,-12,o),
(247,-12,cs)
);
},
{
closed = 1;
nodes = (
(196,109,o),
(148,156,o),
(161,248,cs),
(174,340,o),
(237,387,o),
(304,387,cs),
(371,387,o),
(420,340,o),
(407,248,cs),
(394,156,o),
(332,109,o),
(264,109,cs)
);
}
);
};
layerId = "ED590C7A-4BA9-4AD7-9AE4-3D6F1BB924C4";
name = "6 May 24 at 23:09";
shapes = (
{
closed = 1;
nodes = (
(447,-12,o),
(556,121,o),
(556,264,cs),
(556,405,o),
(447,508,o),
(297,508,cs),
(132,508,o),
(20,377,o),
(20,232,cs),
(20,91,o),
(128,-12,o),
(279,-12,cs)
);
},
{
closed = 1;
nodes = (
(215,109,o),
(164,151,o),
(164,230,cs),
(164,311,o),
(211,387,o),
(295,387,cs),
(361,387,o),
(412,345,o),
(412,266,cs),
(412,187,o),
(367,109,o),
(281,109,cs)
);
}
);
width = 576;
}
);
unicode = 111;
},
{
color = 11;
glyphname = p;
kernRight = o;
lastChange = "2024-05-09 20:05:48 +0000";
layers = (
{
associatedMasterId = "897F30B6-1700-43C7-9C60-A606C7C7F267";
layerId = "02575D39-7864-4EEF-9012-950E1A85E8A1";
name = public.background;
shapes = (
{
closed = 1;
nodes = (
(140,-220,l),
(140,88,l),
(174,25,o),
(242,-12,o),
(326,-12,cs),
(477,-12,o),
(573,97,o),
(573,247,cs),
(573,397,o),
(477,508,o),
(327,508,cs),
(233,508,o),
(172,460,o),
(140,410,c),
(140,496,l),
(70,496,l),
(70,-220,l)
);
},
{
closed = 1;
nodes = (
(218,49,o),
(144,128,o),
(144,248,cs),
(144,368,o),
(218,447,o),
(323,447,cs),
(428,447,o),
(502,368,o),
(502,248,cs),
(502,128,o),
(428,49,o),
(323,49,cs)
);
}
);
width = 616;
},
{
layerId = "BD1314B0-2F62-4F06-89D3-8B766BA843F0";
shapes = (
{
closed = 1;
nodes = (
(112,-220,l),
(154,67,l),
(181,19,o),
(233,-12,o),
(309,-12,cs),
(445,-12,o),
(562,94,o),
(582,240,cs),
(603,393,o),
(511,508,o),
(371,508,cs),
(291,508,o),
(239,474,o),
(202,431,c),
(212,496,l),
(73,496,l),
(-28,-220,l)
);
},
{
closed = 1;
nodes = (
(206,110,o),
(163,165,o),
(173,241,cs),
(184,323,o),
(251,386,o),
(332,386,cs),
(407,386,o),
(453,331,o),
(441,254,cs),
(428,172,o),
(362,110,o),
(281,110,cs)
);
}
);
width = 602;
},
{
layerId = "897F30B6-1700-43C7-9C60-A606C7C7F267";
shapes = (
{
closed = 1;
nodes = (
(70,-220,l),
(113,87,l),
(138,25,o),
(201,-12,o),
(285,-12,cs),
(436,-12,o),
(545,105,o),
(566,246,cs),
(587,386,o),
(509,508,o),
(359,508,cs),
(265,508,o),
(198,460,o),
(158,410,c),
(171,496,l),
(101,496,l),
(0,-220,l)
);
},
{
closed = 1;
nodes = (
(183,49,o),
(121,128,o),
(136,242,cs),
(153,375,o),
(251,447,o),
(347,447,cs),
(454,447,o),
(512,359,o),
(496,247,cs),
(480,134,o),
(396,49,o),
(290,49,cs)
);
}
);
width = 602;
}
);
unicode = 112;
},
{
color = 11;
glyphname = q;
kernLeft = o;
lastChange = "2024-05-09 20:05:48 +0000";
layers = (
{
associatedMasterId = "897F30B6-1700-43C7-9C60-A606C7C7F267";
layerId = "02575D39-7864-4EEF-9012-950E1A85E8A1";
name = public.background;
shapes = (
{
closed = 1;
nodes = (
(524,-220,l),
(524,496,l),
(454,496,l),
(454,408,l),
(420,471,o),
(352,508,o),
(268,508,cs),
(117,508,o),
(21,399,o),
(21,249,cs),
(21,99,o),
(117,-12,o),
(267,-12,cs),
(361,-12,o),
(422,36,o),
(454,86,c),
(454,-220,l)
);
},
{
closed = 1;
nodes = (
(166,49,o),
(92,128,o),
(92,248,cs),
(92,368,o),
(166,447,o),
(271,447,cs),
(376,447,o),
(450,368,o),
(450,248,cs),
(450,128,o),
(376,49,o),
(271,49,cs)
);
}
);
width = 653;
},
{
layerId = "BD1314B0-2F62-4F06-89D3-8B766BA843F0";
shapes = (
{
closed = 1;
nodes = (
(498,-220,l),
(599,496,l),
(458,496,l),
(448,429,l),
(420,477,o),
(370,508,o),
(294,508,cs),
(157,508,o),
(41,402,o),
(20,256,cs),
(-2,104,o),
(91,-12,o),
(232,-12,cs),
(311,-12,o),
(363,22,o),
(400,65,c),
(358,-220,l)
);
},
{
closed = 1;
nodes = (
(196,110,o),
(150,166,o),
(161,242,cs),
(173,324,o),
(241,386,o),
(320,386,cs),
(395,386,o),
(440,331,o),
(429,255,cs),
(417,173,o),
(350,110,o),
(270,110,cs)
);
}
);
width = 602;
},
{
layerId = "897F30B6-1700-43C7-9C60-A606C7C7F267";
shapes = (
{
closed = 1;
nodes = (
(471,-220,l),
(571,496,l),
(501,496,l),
(489,408,l),
(464,471,o),
(401,508,o),
(317,508,cs),
(166,508,o),
(56,392,o),
(36,251,cs),
(15,101,o),
(93,-12,o),
(243,-12,cs),
(337,-12,o),
(404,36,o),
(444,86,c),
(401,-220,l)
);
},
{
closed = 1;
nodes = (
(146,50,o),
(88,139,o),
(104,251,cs),
(120,364,o),
(204,448,o),
(310,448,cs),
(417,448,o),
(479,369,o),
(464,255,cs),
(447,122,o),
(349,50,o),
(253,50,cs)
);
}
);
width = 602;
}
);
unicode = 113;
},
{
color = 0;
glyphname = r;
kernLeft = r;
kernRight = r;
lastChange = "2024-08-29 14:29:04 +0000";
layers = (
{
associatedMasterId = "897F30B6-1700-43C7-9C60-A606C7C7F267";
layerId = "02575D39-7864-4EEF-9012-950E1A85E8A1";
name = public.background;
shapes = (
{
closed = 1;
nodes = (
(140,0,l),
(140,496,l),
(70,496,l),
(70,0,l)
);
},
{
closed = 1;
nodes = (
(140,257,l),
(140,394,o),
(217,435,o),
(308,435,cs),
(327,435,l),
(327,508,l),
(187,508,o),
(118,420,o),
(118,287,c)
);
}
);
width = 353;
},
{
anchors = (
{
name = bottom;
pos = (74,0);
},
{
name = top;
pos = (256,496);
}
);
layerId = "BD1314B0-2F62-4F06-89D3-8B766BA843F0";
shapes = (
{
closed = 1;
nodes = (
(145,0,l),
(178,231,ls),
(191,325,o),
(235,377,o),
(305,377,cs),
(377,377,l),
(395,501,l),
(330,501,ls),
(280,501,o),
(237,472,o),
(205,425,c),
(214,496,l),
(75,496,l),
(5,0,l)
);
}
);
width = 381;
},
{
anchors = (
{
name = bottom;
pos = (76,0);
},
{
name = top;
pos = (251,496);
}
);
layerId = "897F30B6-1700-43C7-9C60-A606C7C7F267";
shapes = (
{
closed = 1;
nodes = (
(109,0,l),
(144,247,ls),
(163,384,o),
(219,432,o),
(280,432,cs),
(357,432,l),
(366,499,l),
(297,499,ls),
(238,499,o),
(196,469,o),
(168,417,c),
(179,496,l),
(109,496,l),
(39,0,l)
);
}
);
width = 381;
},
{
anchors = (
{
name = bottom;
pos = (76,0);
},
{
name = top;
pos = (251,496);
}
);
associatedMasterId = "897F30B6-1700-43C7-9C60-A606C7C7F267";
layerId = "E6393944-0F84-4203-9187-C2D1C9539B42";
name = "29 Aug 24 at 16:28";
shapes = (
{
closed = 1;
nodes = (
(109,0,l),
(163,383,l),
(179,496,l),
(109,496,l),
(39,0,l)
);
},
{
closed = 1;
nodes = (
(163,384,o),
(219,432,o),
(280,432,cs),
(357,432,l),
(366,499,l),
(297,499,ls),
(197,499,o),
(145,410,o),
(126,277,c),
(144,247,l)
);
}
);
width = 381;
},
{
anchors = (
{
name = bottom;
pos = (74,0);
},
{
name = top;
pos = (256,496);
}
);
associatedMasterId = "BD1314B0-2F62-4F06-89D3-8B766BA843F0";
layerId = "B1F079A4-38D4-488C-AA35-94F02AA61049";
name = "29 Aug 24 at 16:28";
shapes = (
{
closed = 1;
nodes = (
(145,0,l),
(200,387,l),
(214,496,l),
(75,496,l),
(5,0,l)
);
},
{
closed = 1;
nodes = (
(189,315,o),
(230,377,o),
(305,377,cs),
(377,377,l),
(395,501,l),
(330,501,ls),
(232,501,o),
(163,391,o),
(145,256,c),
(175,206,l)
);
}
);
width = 381;
}
);
unicode = 114;
},
{
color = 8;
glyphname = s;
kernLeft = s;
kernRight = s;
lastChange = "2024-05-09 20:05:48 +0000";
layers = (
{
associatedMasterId = "897F30B6-1700-43C7-9C60-A606C7C7F267";
layerId = "02575D39-7864-4EEF-9012-950E1A85E8A1";
name = public.background;
shapes = (
{
closed = 1;
nodes = (
(368,-8,o),
(445,57,o),
(445,145,c),
(442,338,o),
(119,259,o),
(119,407,c),
(119,455,o),
(165,494,o),
(238,494,cs),
(321,494,o),
(366,448,o),
(370,387,c),
(440,387,l),
(434,492,o),
(357,554,o),
(240,554,cs),
(125,554,o),
(48,487,o),
(48,406,c),
(48,201,o),
(376,280,o),
(376,145,c),
(376,93,o),
(332,51,o),
(254,51,cs),
(165,51,o),
(113,94,o),
(107,154,c),
(35,154,l),
(44,54,o),
(131,-8,o),
(255,-8,cs)
);
}
);
width = 532;
},
{
anchors = (
{
name = bottom;
pos = (211,0);
},
{
name = top;
pos = (280,496);
}
);
guides = (
{
pos = (-10,357);
}
);
layerId = "BD1314B0-2F62-4F06-89D3-8B766BA843F0";
shapes = (
{
closed = 1;
nodes = (
(370,-12,o),
(444,52,o),
(456,149,cs),
(469,254,o),
(398,283,o),
(316,299,cs),
(299,302,o),
(251,312,o),
(231,317,cs),
(197,325,o),
(176,334,o),
(180,359,cs),
(184,385,o),
(207,401,o),
(262,401,cs),
(300,401,o),
(337,378,o),
(336,343,c),
(469,343,l),
(473,444,o),
(397,508,o),
(264,508,cs),
(137,508,o),
(69,442,o),
(56,356,cs),
(42,265,o),
(104,230,o),
(190,207,cs),
(205,203,o),
(244,194,o),
(265,190,cs),
(294,184,o),
(332,179,o),
(325,137,cs),
(321,112,o),
(297,94,o),
(240,94,cs),
(194,94,o),
(147,112,o),
(146,161,c),
(4,161,l),
(0,59,o),
(95,-12,o),
(232,-12,cs)
);
}
);
width = 495;
},
{
anchors = (
{
name = bottom;
pos = (210,0);
},
{
name = top;
pos = (278,496);
}
);
guides = (
{
pos = (11,357);
}
);
layerId = "897F30B6-1700-43C7-9C60-A606C7C7F267";
shapes = (
{
closed = 1;
nodes = (
(344,-12,o),
(420,54,o),
(430,131,cs),
(445,244,o),
(358,264,o),
(303,277,cs),
(283,282,o),
(256,288,o),
(231,295,cs),
(176,310,o),
(145,329,o),
(151,374,cs),
(157,422,o),
(197,449,o),
(259,449,cs),
(325,449,o),
(379,423,o),
(376,357,c),
(447,357,l),
(451,465,o),
(370,508,o),
(269,508,cs),
(162,508,o),
(96,451,o),
(84,375,cs),
(69,279,o),
(143,248,o),
(204,231,cs),
(231,224,o),
(256,218,o),
(285,211,cs),
(324,202,o),
(371,192,o),
(364,137,cs),
(357,85,o),
(318,47,o),
(242,47,cs),
(159,47,o),
(100,86,o),
(99,154,c),
(26,154,l),
(24,40,o),
(115,-12,o),
(230,-12,cs)
);
}
);
width = 495;
}
);
unicode = 115;
},
{
glyphname = t;
kernLeft = t;
kernRight = t;
lastChange = "2024-08-28 18:29:15 +0000";
layers = (
{
associatedMasterId = "897F30B6-1700-43C7-9C60-A606C7C7F267";
layerId = "02575D39-7864-4EEF-9012-950E1A85E8A1";
name = public.background;
shapes = (
{
closed = 1;
nodes = (
(331,0,l),
(331,60,l),
(282,60,ls),
(214,60,o),
(190,78,o),
(190,145,cs),
(190,436,l),
(340,436,l),
(340,496,l),
(190,496,l),
(190,621,l),
(120,596,l),
(120,496,l),
(34,496,l),
(34,436,l),
(120,436,l),
(120,145,ls),
(120,36,o),
(171,0,o),
(258,0,cs)
);
}
);
width = 416;
},
{
anchors = (
{
name = bottom;
pos = (182,0);
},
{
name = topright;
pos = (295,816);
}
);
layerId = "BD1314B0-2F62-4F06-89D3-8B766BA843F0";
shapes = (
{
closed = 1;
nodes = (
(304,0,l),
(321,119,l),
(258,119,ls),
(211,119,o),
(203,125,o),
(209,171,cs),
(238,379,l),
(360,379,l),
(377,496,l),
(254,496,l),
(274,632,l),
(133,632,l),
(114,496,l),
(29,496,l),
(13,379,l),
(98,379,l),
(68,161,ls),
(50,31,o),
(103,0,o),
(207,0,cs)
);
}
);
width = 355;
},
{
anchors = (
{
name = bottom;
pos = (185,0);
},
{
name = topright;
pos = (293,763);
}
);
guides = (
{
angle = 20.03;
pos = (114,596);
},
{
pos = (-6,596);
},
{
pos = (-6,621);
}
);
layerId = "897F30B6-1700-43C7-9C60-A606C7C7F267";
shapes = (
{
closed = 1;
nodes = (
(264,0,l),
(272,60,l),
(229,60,ls),
(161,60,o),
(151,62,o),
(161,135,cs),
(204,436,l),
(335,436,l),
(343,496,l),
(212,496,l),
(228,611,l),
(158,611,l),
(142,496,l),
(56,496,l),
(47,436,l),
(134,436,l),
(89,122,ls),
(75,23,o),
(113,0,o),
(190,0,cs)
);
}
);
width = 355;
}
);
unicode = 116;
},
{
color = 0;
glyphname = u;
kernLeft = u;
kernRight = u;
lastChange = "2024-08-29 14:29:29 +0000";
layers = (
{
anchors = (
{
name = bottom;
pos = (239,0);
},
{
name = ogonek;
pos = (486,0);
},
{
name = top;
pos = (305,496);
},
{
name = topright;
pos = (556,496);
}
);
layerId = "BD1314B0-2F62-4F06-89D3-8B766BA843F0";
shapes = (
{
closed = 1;
nodes = (
(259,-12,o),
(318,19,o),
(356,69,c),
(346,0,l),
(485,0,l),
(555,496,l),
(416,496,l),
(379,231,ls),
(368,153,o),
(305,106,o),
(240,106,cs),
(172,106,o),
(150,147,o),
(161,228,cs),
(199,496,l),
(59,496,l),
(21,223,ls),
(0,74,o),
(60,-12,o),
(189,-12,cs)
);
}
);
width = 538;
},
{
anchors = (
{
name = bottom;
pos = (220,0);
},
{
name = ogonek;
pos = (440,0);
},
{
name = top;
pos = (290,496);
},
{
name = topright;
pos = (510,496);
}
);
layerId = "897F30B6-1700-43C7-9C60-A606C7C7F267";
shapes = (
{
closed = 1;
nodes = (
(271,-12,o),
(340,24,o),
(382,86,c),
(370,0,l),
(440,0,l),
(510,496,l),
(440,496,l),
(401,222,ls),
(385,109,o),
(306,49,o),
(219,49,cs),
(133,49,o),
(93,102,o),
(108,211,cs),
(147,496,l),
(78,496,l),
(37,203,ls),
(16,55,o),
(84,-12,o),
(198,-12,cs)
);
}
);
width = 538;
},
{
anchors = (
{
name = bottom;
pos = (220,0);
},
{
name = ogonek;
pos = (440,0);
},
{
name = top;
pos = (290,496);
},
{
name = topright;
pos = (510,496);
}
);
associatedMasterId = "897F30B6-1700-43C7-9C60-A606C7C7F267";
layerId = "E2A9F03A-A69B-4E75-9B7C-159828F2E1F6";
name = "29 Aug 24 at 16:29";
shapes = (
{
closed = 1;
nodes = (
(293,-12,o),
(381,49,o),
(411,147,c),
(404,239,l),
(386,116,o),
(310,49,o),
(219,49,cs),
(133,49,o),
(93,102,o),
(108,211,cs),
(147,496,l),
(78,496,l),
(37,203,ls),
(16,55,o),
(84,-12,o),
(198,-12,cs)
);
},
{
closed = 1;
nodes = (
(440,0,l),
(510,496,l),
(440,496,l),
(389,137,l),
(370,0,l)
);
}
);
width = 538;
},
{
anchors = (
{
name = bottom;
pos = (239,0);
},
{
name = ogonek;
pos = (486,0);
},
{
name = top;
pos = (305,496);
},
{
name = topright;
pos = (556,496);
}
);
associatedMasterId = "BD1314B0-2F62-4F06-89D3-8B766BA843F0";
layerId = "04661722-6EF4-40C8-95DA-D837E990CB5E";
name = "29 Aug 24 at 16:29";
shapes = (
{
closed = 1;
nodes = (
(280,-12,o),
(351,40,o),
(384,118,c),
(380,244,l),
(369,159,o),
(309,106,o),
(240,106,cs),
(172,106,o),
(150,147,o),
(161,228,cs),
(199,496,l),
(59,496,l),
(21,223,ls),
(0,74,o),
(60,-12,o),
(189,-12,cs)
);
},
{
closed = 1;
nodes = (
(485,0,l),
(555,496,l),
(416,496,l),
(364,126,l),
(346,0,l)
);
}
);
width = 538;
}
);
unicode = 117;
},
{
glyphname = v;
lastChange = "2024-05-09 20:05:48 +0000";
layers = (
{
associatedMasterId = "897F30B6-1700-43C7-9C60-A606C7C7F267";
layerId = "02575D39-7864-4EEF-9012-950E1A85E8A1";
name = public.background;
shapes = (
{
closed = 1;
nodes = (
(295,0,l),
(514,546,l),
(440,546,l),
(256,68,l),
(72,546,l),
(-3,546,l),
(216,0,l)
);
}
);
width = 562;
},
{
layerId = "BD1314B0-2F62-4F06-89D3-8B766BA843F0";
shapes = (
{
closed = 1;
nodes = (
(316,0,l),
(567,496,l),
(419,496,l),
(248,132,l),
(180,496,l),
(35,496,l),
(146,0,l)
);
}
);
width = 552;
},
{
layerId = "897F30B6-1700-43C7-9C60-A606C7C7F267";
shapes = (
{
closed = 1;
nodes = (
(269,0,l),
(529,496,l),
(457,496,l),
(239,68,l),
(143,496,l),
(69,496,l),
(190,0,l)
);
}
);
width = 552;
}
);
unicode = 118;
},
{
color = 4;
glyphname = w;
kernLeft = w;
kernRight = w;
lastChange = "2024-05-09 20:05:48 +0000";
layers = (
{
associatedMasterId = "897F30B6-1700-43C7-9C60-A606C7C7F267";
layerId = "02575D39-7864-4EEF-9012-950E1A85E8A1";
name = public.background;
shapes = (
{
closed = 1;
nodes = (
(218,0,l),
(385,507,l),
(352,508,l),
(520,0,l),
(590,0,l),
(761,546,l),
(692,546,l),
(544,25,l),
(571,25,l),
(406,546,l),
(336,546,l),
(168,25,l),
(196,25,l),
(47,546,l),
(-24,546,l),
(147,0,l)
);
}
);
width = 816;
},
{
anchors = (
{
name = bottom;
pos = (357,0);
},
{
name = top;
pos = (426,496);
}
);
layerId = "BD1314B0-2F62-4F06-89D3-8B766BA843F0";
shapes = (
{
closed = 1;
nodes = (
(256,0,l),
(437,428,l),
(398,428,l),
(460,0,l),
(604,0,l),
(820,496,l),
(681,496,l),
(523,79,l),
(559,80,l),
(503,496,l),
(348,496,l),
(176,80,l),
(211,79,l),
(171,496,l),
(35,496,l),
(111,0,l)
);
}
);
width = 806;
},
{
anchors = (
{
name = bottom;
pos = (369,0);
},
{
name = top;
pos = (438,496);
}
);
layerId = "897F30B6-1700-43C7-9C60-A606C7C7F267";
shapes = (
{
closed = 1;
nodes = (
(238,0,l),
(440,451,l),
(423,451,l),
(500,0,l),
(571,0,l),
(785,496,l),
(714,496,l),
(535,67,l),
(553,67,l),
(478,496,l),
(398,496,l),
(203,67,l),
(221,67,l),
(163,496,l),
(91,496,l),
(167,0,l)
);
}
);
width = 806;
}
);
unicode = 119;
},
{
glyphname = x;
lastChange = "2024-05-09 20:05:48 +0000";
layers = (
{
associatedMasterId = "897F30B6-1700-43C7-9C60-A606C7C7F267";
layerId = "02575D39-7864-4EEF-9012-950E1A85E8A1";
name = public.background;
shapes = (
{
closed = 1;
nodes = (
(420,0,l),
(103,496,l),
(30,496,l),
(347,0,l)
);
},
{
closed = 1;
nodes = (
(70,0,l),
(220,242,l),
(189,299,l),
(-4,0,l)
);
},
{
closed = 1;
nodes = (
(392,496,l),
(320,496,l),
(201,305,l),
(231,247,l)
);
}
);
width = 578;
},
{
layerId = "BD1314B0-2F62-4F06-89D3-8B766BA843F0";
shapes = (
{
closed = 1;
nodes = (
(118,0,l),
(265,168,l),
(361,0,l),
(508,0,l),
(362,248,l),
(580,496,l),
(428,496,l),
(282,328,l),
(186,496,l),
(37,496,l),
(183,248,l),
(-35,0,l)
);
}
);
width = 566;
},
{
layerId = "897F30B6-1700-43C7-9C60-A606C7C7F267";
shapes = (
{
closed = 1;
nodes = (
(94,0,l),
(268,214,l),
(381,0,l),
(456,0,l),
(322,248,l),
(526,496,l),
(451,496,l),
(277,282,l),
(164,496,l),
(89,496,l),
(222,248,l),
(19,0,l)
);
}
);
width = 566;
}
);
unicode = 120;
},
{
color = 4;
glyphname = y;
kernLeft = y;
kernRight = y;
lastChange = "2024-05-09 20:05:48 +0000";
layers = (
{
associatedMasterId = "897F30B6-1700-43C7-9C60-A606C7C7F267";
layerId = "02575D39-7864-4EEF-9012-950E1A85E8A1";
name = public.background;
shapes = (
{
closed = 1;
nodes = (
(195,-220,l),
(523,496,l),
(451,496,l),
(281,120,l),
(126,496,l),
(50,496,l),
(243,42,l),
(122,-220,l)
);
}
);
width = 608;
},
{
anchors = (
{
name = top;
pos = (328,496);
}
);
layerId = "BD1314B0-2F62-4F06-89D3-8B766BA843F0";
shapes = (
{
closed = 1;
nodes = (
(122,-220,ls),
(191,-220,o),
(207,-200,o),
(261,-107,cs),
(609,496,l),
(457,496,l),
(271,158,l),
(188,496,l),
(38,496,l),
(172,-4,l),
(141,-57,ls),
(112,-102,o),
(98,-110,o),
(68,-110,cs),
(4,-110,l),
(-12,-220,l)
);
}
);
width = 590;
},
{
anchors = (
{
name = top;
pos = (322,496);
}
);
layerId = "897F30B6-1700-43C7-9C60-A606C7C7F267";
shapes = (
{
closed = 1;
nodes = (
(88,-220,ls),
(145,-220,o),
(155,-209,o),
(221,-98,cs),
(577,496,l),
(505,496,l),
(266,98,l),
(150,496,l),
(74,496,l),
(221,23,l),
(157,-85,ls),
(118,-151,o),
(109,-160,o),
(81,-160,cs),
(33,-160,l),
(24,-220,l)
);
}
);
width = 590;
}
);
unicode = 121;
},
{
glyphname = z;
kernLeft = z;
kernRight = z;
lastChange = "2024-05-09 20:05:48 +0000";
layers = (
{
associatedMasterId = "897F30B6-1700-43C7-9C60-A606C7C7F267";
layerId = "02575D39-7864-4EEF-9012-950E1A85E8A1";
name = public.background;
shapes = (
{
closed = 1;
nodes = (
(402,0,l),
(402,58,l),
(116,58,l),
(397,488,l),
(397,546,l),
(41,546,l),
(41,488,l),
(317,488,l),
(36,58,l),
(36,0,l)
);
}
);
width = 486;
},
{
anchors = (
{
name = top;
pos = (270,496);
}
);
layerId = "BD1314B0-2F62-4F06-89D3-8B766BA843F0";
shapes = (
{
closed = 1;
nodes = (
(404,0,l),
(420,116,l),
(165,116,l),
(454,384,l),
(468,496,l),
(64,496,l),
(48,380,l),
(291,380,l),
(6,112,l),
(-9,0,l)
);
}
);
width = 465;
},
{
anchors = (
{
name = top;
pos = (264,496);
}
);
layerId = "897F30B6-1700-43C7-9C60-A606C7C7F267";
shapes = (
{
closed = 1;
nodes = (
(376,0,l),
(384,58,l),
(97,58,l),
(433,437,l),
(441,496,l),
(85,496,l),
(77,437,l),
(355,437,l),
(19,58,l),
(10,0,l)
);
}
);
width = 465;
}
);
unicode = 122;
},
{
glyphname = Aogonek;
kernLeft = A;
kernRight = A;
lastChange = "2024-05-08 13:02:05 +0000";
layers = (
{
associatedMasterId = "897F30B6-1700-43C7-9C60-A606C7C7F267";
layerId = "02575D39-7864-4EEF-9012-950E1A85E8A1";
name = public.background;
shapes = (
{
closed = 1;
nodes = (
(576,-201,o),
(602,-196,o),
(624,-188,c),
(624,-139,l),
(602,-148,o),
(579,-153,o),
(559,-153,cs),
(523,-153,o),
(498,-135,o),
(498,-102,cs),
(498,-76,o),
(513,-52,o),
(561,-29,cs),
(620,0,l),
(601,38,l),
(547,13,ls),
(468,-23,o),
(439,-64,o),
(439,-109,cs),
(439,-176,o),
(494,-201,o),
(552,-201,cs)
);
},
{
alignment = -1;
ref = A;
}
);
width = 716;
},
{
layerId = "BD1314B0-2F62-4F06-89D3-8B766BA843F0";
shapes = (
{
ref = A;
},
{
pos = (673,0);
ref = ogonekcomb.case;
}
);
width = 674;
},
{
layerId = "897F30B6-1700-43C7-9C60-A606C7C7F267";
shapes = (
{
ref = A;
},
{
pos = (569,0);
ref = ogonekcomb.case;
}
);
width = 674;
}
);
unicode = 260;
},
{
glyphname = AE;
kernLeft = AE;
kernRight = E;
lastChange = "2024-05-09 20:05:48 +0000";
layers = (
{
associatedMasterId = "897F30B6-1700-43C7-9C60-A606C7C7F267";
layerId = "02575D39-7864-4EEF-9012-950E1A85E8A1";
name = public.background;
shapes = (
{
closed = 1;
nodes = (
(109,0,l),
(479,640,l),
(479,0,l),
(844,0,l),
(844,56,l),
(549,56,l),
(549,324,l),
(814,324,l),
(814,380,l),
(549,380,l),
(549,644,l),
(844,644,l),
(844,700,l),
(438,700,l),
(32,0,l)
);
},
{
closed = 1;
nodes = (
(511,166,l),
(511,222,l),
(195,222,l),
(166,166,l)
);
}
);
width = 932;
},
{
anchors = (
{
name = bottom;
pos = (429,0);
},
{
name = top;
pos = (627,700);
}
);
layerId = "BD1314B0-2F62-4F06-89D3-8B766BA843F0";
shapes = (
{
closed = 1;
nodes = (
(123,0,l),
(521,594,l),
(436,0,l),
(842,0,l),
(858,111,l),
(592,111,l),
(619,303,l),
(855,303,l),
(871,410,l),
(634,410,l),
(659,589,l),
(925,589,l),
(940,700,l),
(439,700,l),
(-32,0,l)
);
},
{
closed = 1;
nodes = (
(523,133,l),
(537,240,l),
(204,240,l),
(131,133,l)
);
}
);
width = 904;
},
{
anchors = (
{
name = bottom;
pos = (429,0);
},
{
name = top;
pos = (627,700);
}
);
layerId = "897F30B6-1700-43C7-9C60-A606C7C7F267";
shapes = (
{
closed = 1;
nodes = (
(80,0,l),
(540,640,l),
(450,0,l),
(815,0,l),
(823,56,l),
(528,56,l),
(565,324,l),
(831,324,l),
(838,380,l),
(574,380,l),
(610,644,l),
(906,644,l),
(913,700,l),
(507,700,l),
(3,0,l)
);
},
{
closed = 1;
nodes = (
(506,166,l),
(513,222,l),
(198,222,l),
(160,166,l)
);
}
);
width = 904;
}
);
unicode = 198;
},
{
glyphname = Eth;
kernLeft = Dcroat;
kernRight = O;
lastChange = "2024-08-30 10:53:44 +0000";
layers = (
{
associatedMasterId = "897F30B6-1700-43C7-9C60-A606C7C7F267";
layerId = "02575D39-7864-4EEF-9012-950E1A85E8A1";
name = public.background;
shapes = (
{
closed = 1;
nodes = (
(312,0,l),
(545,0,o),
(682,131,o),
(682,348,c),
(682,567,o),
(545,699,o),
(312,699,c),
(104,699,l),
(104,0,l)
);
},
{
closed = 1;
nodes = (
(379,316,l),
(379,381,l),
(9,381,l),
(9,316,l)
);
},
{
closed = 1;
nodes = (
(175,642,l),
(312,642,l),
(509,642,o),
(610,529,o),
(610,348,c),
(610,168,o),
(509,55,o),
(312,55,c),
(175,55,l)
);
},
{
alignment = -1;
pos = (24,0);
ref = D;
}
);
width = 738;
},
{
anchors = (
{
name = top;
pos = (361,700);
}
);
layerId = "BD1314B0-2F62-4F06-89D3-8B766BA843F0";
shapes = (
{
closed = 1;
nodes = (
(391,291,l),
(408,409,l),
(28,409,l),
(11,291,l)
);
},
{
closed = 1;
nodes = (
(285,0,ls),
(530,0,o),
(660,135,o),
(689,343,cs),
(719,557,o),
(622,700,o),
(378,700,cs),
(135,700,l),
(36,0,l)
);
},
{
closed = 1;
nodes = (
(258,581,l),
(359,581,ls),
(528,581,o),
(568,498,o),
(548,357,cs),
(527,208,o),
(457,120,o),
(288,120,cs),
(193,120,l)
);
}
);
width = 709;
},
{
anchors = (
{
name = top;
pos = (374,700);
}
);
layerId = "897F30B6-1700-43C7-9C60-A606C7C7F267";
shapes = (
{
closed = 1;
nodes = (
(374,316,l),
(384,381,l),
(14,381,l),
(4,316,l)
);
},
{
closed = 1;
nodes = (
(274,0,ls),
(521,0,o),
(653,131,o),
(683,348,cs),
(713,568,o),
(620,700,o),
(373,700,cs),
(166,700,l),
(68,0,l)
);
},
{
closed = 1;
nodes = (
(227,642,l),
(365,642,ls),
(576,642,o),
(638,530,o),
(612,348,cs),
(586,168,o),
(495,58,o),
(282,58,cs),
(146,58,l)
);
}
);
width = 709;
},
{
associatedMasterId = "897F30B6-1700-43C7-9C60-A606C7C7F267";
layerId = "7F51E39F-0526-40C3-BA85-E5383C68A2E4";
name = "30 Aug 24 at 12:53";
shapes = (
{
closed = 1;
nodes = (
(374,316,l),
(384,381,l),
(14,381,l),
(4,316,l)
);
},
{
alignment = -1;
pos = (24,0);
ref = D;
}
);
width = 709;
},
{
associatedMasterId = "BD1314B0-2F62-4F06-89D3-8B766BA843F0";
layerId = "31BAAC7E-15FE-4D78-B2E2-DE0D961D32D2";
name = "30 Aug 24 at 12:53";
shapes = (
{
closed = 1;
nodes = (
(391,291,l),
(408,409,l),
(28,409,l),
(11,291,l)
);
},
{
alignment = -1;
pos = (24,0);
ref = D;
}
);
width = 709;
}
);
unicode = 208;
},
{
color = 11;
glyphname = Schwa;
kernRight = O;
lastChange = "2024-05-09 20:05:48 +0000";
layers = (
{
anchors = (
{
name = top;
pos = (382,700);
}
);
associatedMasterId = "897F30B6-1700-43C7-9C60-A606C7C7F267";
layerId = "C2F9BAFC-5580-4CF8-8BE5-F0A0A7E63D04";
name = "#instance";
shapes = (
{
closed = 1;
nodes = (
(587,-12,o),
(724,132,o),
(724,348,cs),
(724,568,o),
(586,712,o),
(382,712,cs),
(215,712,o),
(91,612,o),
(62,490,c),
(216,490,l),
(230,541,o),
(300,586,o),
(383,586,cs),
(494,586,o),
(578,507,o),
(578,374,cs),
(578,310,ls),
(578,186,o),
(489,116,o),
(380,116,cs),
(269,116,o),
(191,185,o),
(189,289,c),
(599,289,l),
(599,389,l),
(48,389,l),
(46,368,o),
(45,347,o),
(45,328,cs),
(45,115,o),
(181,-12,o),
(382,-12,cs)
);
}
);
width = 768;
},
{
associatedMasterId = "897F30B6-1700-43C7-9C60-A606C7C7F267";
layerId = "02575D39-7864-4EEF-9012-950E1A85E8A1";
name = public.background;
shapes = (
{
closed = 1;
nodes = (
(567,-7,o),
(701,137,o),
(701,350,cs),
(701,560,o),
(566,707,o),
(370,707,cs),
(211,707,o),
(90,616,o),
(49,476,c),
(129,476,l),
(161,581,o),
(255,643,o),
(370,643,cs),
(517,643,o),
(625,534,o),
(625,362,cs),
(625,325,ls),
(625,154,o),
(513,56,o),
(367,56,cs),
(215,56,o),
(115,157,o),
(118,311,c),
(640,311,l),
(640,376,l),
(48,376,l),
(46,356,o),
(45,337,o),
(45,318,cs),
(45,112,o),
(178,-7,o),
(367,-7,cs)
);
}
);
width = 757;
},
{
layerId = "BD1314B0-2F62-4F06-89D3-8B766BA843F0";
shapes = (
{
closed = 1;
nodes = (
(537,-12,o),
(691,128,o),
(721,341,cs),
(752,565,o),
(632,712,o),
(425,712,cs),
(261,712,o),
(125,616,o),
(79,494,c),
(238,494,l),
(259,542,o),
(335,586,o),
(420,586,cs),
(528,586,o),
(596,510,o),
(579,378,cs),
(571,314,ls),
(555,190,o),
(451,116,o),
(339,116,cs),
(232,116,o),
(165,181,o),
(178,285,c),
(589,289,l),
(602,389,l),
(51,393,l),
(47,372,o),
(43,351,o),
(41,335,cs),
(11,119,o),
(132,-12,o),
(335,-12,cs)
);
}
);
width = 736;
},
{
layerId = "897F30B6-1700-43C7-9C60-A606C7C7F267";
shapes = (
{
closed = 1;
nodes = (
(525,-12,o),
(679,132,o),
(710,345,cs),
(742,565,o),
(626,712,o),
(430,712,cs),
(281,712,o),
(148,621,o),
(86,481,c),
(167,481,l),
(213,586,o),
(317,648,o),
(421,648,cs),
(568,648,o),
(665,538,o),
(636,357,cs),
(630,320,ls),
(602,150,o),
(480,51,o),
(335,51,cs),
(193,51,o),
(106,152,o),
(131,306,c),
(643,306,l),
(652,371,l),
(71,371,l),
(66,351,o),
(62,332,o),
(59,312,cs),
(30,107,o),
(147,-12,o),
(325,-12,cs)
);
}
);
width = 736;
}
);
unicode = 399;
},
{
glyphname = Gcommaaccent;
kernLeft = O;
kernRight = G;
lastChange = "2024-08-29 14:23:20 +0000";
layers = (
{
associatedMasterId = "897F30B6-1700-43C7-9C60-A606C7C7F267";
layerId = "02575D39-7864-4EEF-9012-950E1A85E8A1";
name = public.background;
shapes = (
{
closed = 1;
nodes = (
(305,-226,l),
(361,-226,o),
(395,-197,o),
(395,-119,cs),
(395,-100,o),
(392,-76,o),
(387,-52,c),
(308,-52,l),
(308,-121,l),
(351,-121,l),
(351,-135,ls),
(351,-171,o),
(338,-191,o),
(305,-191,c)
);
},
{
alignment = -1;
ref = G;
}
);
width = 797;
},
{
layerId = "BD1314B0-2F62-4F06-89D3-8B766BA843F0";
shapes = (
{
ref = G;
},
{
pos = (386,103);
ref = commaaccentcomb.case;
}
);
width = 733;
},
{
layerId = "897F30B6-1700-43C7-9C60-A606C7C7F267";
shapes = (
{
ref = G;
},
{
pos = (385,97);
ref = commaaccentcomb.case;
}
);
width = 733;
}
);
unicode = 290;
},
{
color = 4;
glyphname = IJ;
kernRight = J;
lastChange = "2024-08-30 10:53:50 +0000";
layers = (
{
anchors = (
{
name = bottom;
pos = (183,0);
},
{
name = top;
pos = (282,700);
}
);
background = {
shapes = (
{
closed = 1;
nodes = (
(124,208,l),
(222,700,l),
(152,700,l),
(54,208,l)
);
}
);
};
layerId = "897F30B6-1700-43C7-9C60-A606C7C7F267";
shapes = (
{
closed = 1;
nodes = (
(147,209,l),
(216,700,l),
(149,700,l),
(80,209,l)
);
},
{
closed = 1;
nodes = (
(247,0,o),
(327,71,o),
(344,192,cs),
(416,700,l),
(345,700,l),
(274,192,ls),
(264,119,o),
(226,62,o),
(136,62,cs),
(17,62,l),
(8,0,l),
(127,0,ls)
);
}
);
width = 415;
},
{
anchors = (
{
name = bottom;
pos = (180,0);
},
{
name = top;
pos = (279,700);
}
);
background = {
shapes = (
{
closed = 1;
nodes = (
(163,208,l),
(262,700,l),
(123,700,l),
(24,208,l)
);
}
);
};
layerId = "BD1314B0-2F62-4F06-89D3-8B766BA843F0";
shapes = (
{
closed = 1;
nodes = (
(168,208,l),
(238,700,l),
(103,700,l),
(33,208,l)
);
},
{
closed = 1;
nodes = (
(252,0,o),
(344,73,o),
(364,216,cs),
(432,700,l),
(292,700,l),
(225,223,ls),
(217,165,o),
(186,125,o),
(129,125,cs),
(0,125,l),
(-17,0,l),
(117,0,ls)
);
}
);
width = 415;
},
{
associatedMasterId = "897F30B6-1700-43C7-9C60-A606C7C7F267";
background = {
shapes = (
{
closed = 1;
nodes = (
(124,208,l),
(222,700,l),
(152,700,l),
(54,208,l)
);
}
);
};
layerId = "B3CCA9E9-758B-4534-A84B-88928D2723A0";
name = "30 Aug 24 at 12:53";
shapes = (
{
closed = 1;
nodes = (
(147,209,l),
(216,700,l),
(149,700,l),
(80,209,l)
);
},
{
pos = (17,0);
ref = J;
}
);
width = 415;
},
{
associatedMasterId = "BD1314B0-2F62-4F06-89D3-8B766BA843F0";
background = {
shapes = (
{
closed = 1;
nodes = (
(163,208,l),
(262,700,l),
(123,700,l),
(24,208,l)
);
}
);
};
layerId = "66724904-6EDD-42DC-BAFC-5855A6C840E5";
name = "30 Aug 24 at 12:53";
shapes = (
{
closed = 1;
nodes = (
(168,208,l),
(238,700,l),
(103,700,l),
(33,208,l)
);
},
{
pos = (14,0);
ref = J;
}
);
width = 415;
}
);
unicode = 306;
},
{
glyphname = Kcommaaccent;
kernLeft = H;
kernRight = K;
lastChange = "2024-05-08 13:02:06 +0000";
layers = (
{
associatedMasterId = "897F30B6-1700-43C7-9C60-A606C7C7F267";
layerId = "02575D39-7864-4EEF-9012-950E1A85E8A1";
name = public.background;
shapes = (
{
closed = 1;
nodes = (
(238,-226,l),
(294,-226,o),
(328,-197,o),
(328,-119,cs),
(328,-100,o),
(325,-76,o),
(320,-52,c),
(241,-52,l),
(241,-121,l),
(284,-121,l),
(284,-135,ls),
(284,-171,o),
(271,-191,o),
(238,-191,c)
);
},
{
alignment = -1;
ref = K;
}
);
width = 564;
},
{
layerId = "BD1314B0-2F62-4F06-89D3-8B766BA843F0";
shapes = (
{
ref = K;
},
{
pos = (325,103);
ref = commaaccentcomb.case;
}
);
width = 630;
},
{
layerId = "897F30B6-1700-43C7-9C60-A606C7C7F267";
shapes = (
{
ref = K;
},
{
pos = (299,97);
ref = commaaccentcomb.case;
}
);
width = 630;
}
);
unicode = 310;
},
{
color = 4;
glyphname = Lcaron;
kernLeft = H;
kernRight = L_dot;
lastChange = "2024-09-01 14:18:35 +0000";
layers = (
{
associatedMasterId = "897F30B6-1700-43C7-9C60-A606C7C7F267";
layerId = "02575D39-7864-4EEF-9012-950E1A85E8A1";
name = public.background;
shapes = (
{
closed = 1;
nodes = (
(266,511,l),
(324,511,o),
(357,541,o),
(357,614,cs),
(357,638,o),
(354,666,o),
(348,699,c),
(267,699,l),
(267,623,l),
(313,623,l),
(313,599,ls),
(313,565,o),
(300,547,o),
(266,547,c)
);
},
{
alignment = -1;
ref = L;
}
);
width = 517;
},
{
background = {
shapes = (
{
closed = 1;
nodes = (
(422,455,o),
(471,503,o),
(483,589,cs),
(498,700,l),
(366,700,l),
(351,591,l),
(409,591,l),
(407,577,ls),
(401,534,o),
(377,511,o),
(344,511,c),
(338,455,l)
);
}
);
};
layerId = "BD1314B0-2F62-4F06-89D3-8B766BA843F0";
shapes = (
{
ref = L;
},
{
pos = (257,-40);
ref = caroncomb.alt;
}
);
width = 521;
},
{
background = {
shapes = (
{
closed = 1;
nodes = (
(364,512,o),
(400,542,o),
(411,615,cs),
(424,700,l),
(333,700,l),
(322,624,l),
(368,624,l),
(365,600,ls),
(361,566,o),
(344,548,o),
(311,548,c),
(306,512,l)
);
}
);
};
layerId = "897F30B6-1700-43C7-9C60-A606C7C7F267";
shapes = (
{
ref = L;
},
{
pos = (197,-40);
ref = caroncomb.alt;
}
);
width = 521;
}
);
unicode = 317;
},
{
glyphname = Lcommaaccent;
kernLeft = H;
kernRight = L;
lastChange = "2024-05-08 13:02:06 +0000";
layers = (
{
associatedMasterId = "897F30B6-1700-43C7-9C60-A606C7C7F267";
layerId = "02575D39-7864-4EEF-9012-950E1A85E8A1";
name = public.background;
shapes = (
{
closed = 1;
nodes = (
(196,-226,l),
(253,-226,o),
(287,-197,o),
(287,-119,cs),
(287,-100,o),
(284,-76,o),
(278,-52,c),
(200,-52,l),
(200,-121,l),
(242,-121,l),
(242,-135,ls),
(242,-171,o),
(229,-191,o),
(196,-191,c)
);
},
{
alignment = -1;
ref = L;
}
);
width = 517;
},
{
anchors = (
{
name = _commaaccent;
pos = (209,3);
},
{
name = bottom;
pos = (263,0);
},
{
name = center;
pos = (283,350);
},
{
name = commaaccent;
pos = (264,7);
},
{
name = top;
pos = (190,700);
},
{
name = topright;
pos = (558,700);
}
);
layerId = "BD1314B0-2F62-4F06-89D3-8B766BA843F0";
shapes = (
{
ref = L;
},
{
pos = (312,103);
ref = commaaccentcomb.case;
}
);
width = 521;
},
{
anchors = (
{
name = _commaaccent;
pos = (208,0);
},
{
name = bottom;
pos = (259,0);
},
{
name = center;
pos = (299,350);
},
{
name = commaaccent;
pos = (259,0);
},
{
name = top;
pos = (183,700);
},
{
name = topright;
pos = (543,700);
}
);
layerId = "897F30B6-1700-43C7-9C60-A606C7C7F267";
shapes = (
{
ref = L;
},
{
pos = (306,97);
ref = commaaccentcomb.case;
}
);
width = 521;
}
);
unicode = 315;
},
{
glyphname = Ldot;
kernLeft = H;
kernRight = L_dot;
lastChange = "2024-05-08 13:02:06 +0000";
layers = (
{
associatedMasterId = "897F30B6-1700-43C7-9C60-A606C7C7F267";
guides = (
{
pos = (0,351);
}
);
layerId = "02575D39-7864-4EEF-9012-950E1A85E8A1";
name = public.background;
shapes = (
{
closed = 1;
nodes = (
(401,0,l),
(401,57,l),
(150,57,l),
(150,699,l),
(80,699,l),
(80,0,l)
);
},
{
closed = 1;
nodes = (
(363,330,o),
(384,351,o),
(384,376,cs),
(384,401,o),
(363,422,o),
(338,422,cs),
(312,422,o),
(292,401,o),
(292,376,cs),
(292,351,o),
(312,330,o),
(338,330,cs)
);
},
{
alignment = -1;
ref = L;
},
{
alignment = -1;
pos = (260,4);
ref = periodcentered;
}
);
width = 521;
},
{
layerId = "BD1314B0-2F62-4F06-89D3-8B766BA843F0";
shapes = (
{
alignment = -1;
pos = (3,0);
ref = L;
},
{
alignment = -1;
pos = (258,25);
ref = periodcentered;
}
);
width = 521;
},
{
layerId = "897F30B6-1700-43C7-9C60-A606C7C7F267";
shapes = (
{
alignment = -1;
ref = L;
},
{
alignment = -1;
pos = (260,4);
ref = periodcentered;
}
);
width = 521;
}
);
unicode = 319;
},
{
glyphname = Lslash;
kernRight = L;
lastChange = "2024-08-30 10:53:54 +0000";
layers = (
{
associatedMasterId = "897F30B6-1700-43C7-9C60-A606C7C7F267";
layerId = "02575D39-7864-4EEF-9012-950E1A85E8A1";
name = public.background;
shapes = (
{
closed = 1;
nodes = (
(427,0,l),
(427,55,l),
(176,55,l),
(176,699,l),
(106,699,l),
(106,0,l)
);
},
{
closed = 1;
nodes = (
(301,399,l),
(301,454,l),
(20,344,l),
(20,289,l)
);
},
{
alignment = -1;
pos = (26,0);
ref = L;
}
);
width = 547;
},
{
anchors = (
{
name = bottom;
pos = (301,0);
},
{
name = center;
pos = (320,350);
},
{
name = commaaccent;
pos = (302,7);
},
{
name = top;
pos = (228,700);
},
{
name = topright;
pos = (595,700);
}
);
layerId = "BD1314B0-2F62-4F06-89D3-8B766BA843F0";
shapes = (
{
closed = 1;
nodes = (
(362,371,l),
(378,487,l),
(29,377,l),
(13,260,l)
);
},
{
closed = 1;
nodes = (
(489,0,l),
(504,109,l),
(198,109,l),
(281,700,l),
(142,700,l),
(43,0,l)
);
}
);
width = 572;
},
{
anchors = (
{
name = bottom;
pos = (297,0);
},
{
name = center;
pos = (337,350);
},
{
name = commaaccent;
pos = (297,0);
},
{
name = top;
pos = (221,700);
},
{
name = topright;
pos = (582,700);
}
);
layerId = "897F30B6-1700-43C7-9C60-A606C7C7F267";
shapes = (
{
closed = 1;
nodes = (
(337,399,l),
(345,454,l),
(49,344,l),
(41,289,l)
);
},
{
closed = 1;
nodes = (
(496,0,l),
(505,57,l),
(173,57,l),
(264,700,l),
(194,700,l),
(96,0,l)
);
}
);
width = 572;
},
{
anchors = (
{
name = bottom;
pos = (297,0);
},
{
name = center;
pos = (337,350);
},
{
name = commaaccent;
pos = (297,0);
},
{
name = top;
pos = (221,700);
},
{
name = topright;
pos = (582,700);
}
);
associatedMasterId = "897F30B6-1700-43C7-9C60-A606C7C7F267";
layerId = "F8FAD0CE-292C-48BE-BC26-1C2DC4A1945B";
name = "30 Aug 24 at 12:53";
shapes = (
{
closed = 1;
nodes = (
(337,399,l),
(345,454,l),
(49,344,l),
(41,289,l)
);
},
{
alignment = -1;
pos = (52,0);
ref = L;
}
);
width = 572;
},
{
anchors = (
{
name = bottom;
pos = (301,0);
},
{
name = center;
pos = (320,350);
},
{
name = commaaccent;
pos = (302,7);
},
{
name = top;
pos = (228,700);
},
{
name = topright;
pos = (595,700);
}
);
associatedMasterId = "BD1314B0-2F62-4F06-89D3-8B766BA843F0";
layerId = "47DA7651-10F2-4AAA-9B71-2AF6560C362C";
name = "30 Aug 24 at 12:53";
shapes = (
{
closed = 1;
nodes = (
(362,371,l),
(378,487,l),
(29,377,l),
(13,260,l)
);
},
{
alignment = -1;
pos = (31,0);
ref = L;
}
);
width = 572;
}
);
unicode = 321;
},
{
glyphname = Ncommaaccent;
kernLeft = H;
kernRight = H;
lastChange = "2024-05-08 13:02:06 +0000";
layers = (
{
associatedMasterId = "897F30B6-1700-43C7-9C60-A606C7C7F267";
layerId = "02575D39-7864-4EEF-9012-950E1A85E8A1";
name = public.background;
shapes = (
{
closed = 1;
nodes = (
(299,-226,l),
(355,-226,o),
(389,-197,o),
(389,-119,cs),
(389,-100,o),
(386,-76,o),
(380,-52,c),
(302,-52,l),
(302,-121,l),
(344,-121,l),
(344,-135,ls),
(344,-171,o),
(331,-191,o),
(299,-191,c)
);
},
{
alignment = -1;
ref = N;
}
);
width = 721;
},
{
layerId = "BD1314B0-2F62-4F06-89D3-8B766BA843F0";
shapes = (
{
ref = N;
},
{
pos = (361,103);
ref = commaaccentcomb.case;
}
);
width = 691;
},
{
layerId = "897F30B6-1700-43C7-9C60-A606C7C7F267";
shapes = (
{
ref = N;
},
{
pos = (359,97);
ref = commaaccentcomb.case;
}
);
width = 691;
}
);
unicode = 325;
},
{
color = 4;
glyphname = Eng;
kernLeft = H;
lastChange = "2024-08-28 18:35:22 +0000";
layers = (
{
anchors = (
{
name = bottom;
pos = (312,0);
},
{
name = top;
pos = (410,700);
}
);
layerId = "897F30B6-1700-43C7-9C60-A606C7C7F267";
shapes = (
{
closed = 1;
nodes = (
(118,0,l),
(199,583,l),
(504,0,l),
(491,-98,ls),
(484,-151,o),
(471,-160,o),
(419,-160,cs),
(371,-160,l),
(363,-220,l),
(422,-220,ls),
(509,-220,o),
(549,-189,o),
(561,-101,cs),
(673,700,l),
(603,700,l),
(521,118,l),
(216,700,l),
(146,700,l),
(48,0,l)
);
}
);
width = 691;
},
{
anchors = (
{
name = bottom;
pos = (311,0);
},
{
name = top;
pos = (410,700);
}
);
layerId = "BD1314B0-2F62-4F06-89D3-8B766BA843F0";
shapes = (
{
closed = 1;
nodes = (
(151,0,l),
(219,473,l),
(469,1,l),
(462,-51,ls),
(456,-91,o),
(444,-101,o),
(401,-101,cs),
(355,-101,l),
(339,-220,l),
(419,-220,ls),
(527,-220,o),
(582,-193,o),
(600,-65,cs),
(708,700,l),
(567,700,l),
(499,225,l),
(249,700,l),
(111,700,l),
(12,0,l)
);
}
);
width = 691;
}
);
unicode = 330;
},
{
glyphname = Oslash;
kernRight = Oslash;
lastChange = "2024-08-30 10:53:59 +0000";
layers = (
{
associatedMasterId = "897F30B6-1700-43C7-9C60-A606C7C7F267";
layerId = "02575D39-7864-4EEF-9012-950E1A85E8A1";
name = public.background;
shapes = (
{
closed = 1;
nodes = (
(102,0,l),
(745,700,l),
(686,700,l),
(42,0,l)
);
},
{
alignment = -1;
ref = O;
}
);
width = 784;
},
{
anchors = (
{
name = top;
pos = (460,700);
}
);
layerId = "BD1314B0-2F62-4F06-89D3-8B766BA843F0";
shapes = (
{
closed = 1;
nodes = (
(128,0,l),
(822,700,l),
(689,700,l),
(-5,0,l)
);
},
{
closed = 1;
nodes = (
(572,-12,o),
(733,132,o),
(762,336,cs),
(792,549,o),
(668,712,o),
(445,712,cs),
(249,712,o),
(89,568,o),
(60,364,cs),
(30,153,o),
(153,-12,o),
(376,-12,cs)
);
},
{
closed = 1;
nodes = (
(246,114,o),
(178,211,o),
(199,350,cs),
(221,495,o),
(319,586,o),
(440,586,cs),
(574,586,o),
(641,490,o),
(621,351,cs),
(600,205,o),
(501,114,o),
(381,114,cs)
);
}
);
width = 787;
},
{
anchors = (
{
name = top;
pos = (460,700);
}
);
layerId = "897F30B6-1700-43C7-9C60-A606C7C7F267";
shapes = (
{
closed = 1;
nodes = (
(88,0,l),
(809,700,l),
(729,700,l),
(8,0,l)
);
},
{
closed = 1;
nodes = (
(567,-12,o),
(723,135,o),
(753,337,cs),
(783,540,o),
(669,712,o),
(451,712,cs),
(255,712,o),
(98,564,o),
(68,359,cs),
(38,155,o),
(154,-12,o),
(370,-12,cs)
);
},
{
closed = 1;
nodes = (
(207,49,o),
(116,181,o),
(142,359,cs),
(168,539,o),
(292,650,o),
(443,650,cs),
(614,650,o),
(708,515,o),
(681,337,cs),
(654,161,o),
(529,49,o),
(379,49,cs)
);
}
);
width = 787;
},
{
associatedMasterId = "897F30B6-1700-43C7-9C60-A606C7C7F267";
layerId = "3C37C332-28A6-4BDE-9505-F84C310748F0";
name = "30 Aug 24 at 12:53";
shapes = (
{
closed = 1;
nodes = (
(88,0,l),
(809,700,l),
(729,700,l),
(8,0,l)
);
},
{
alignment = -1;
pos = (16,0);
ref = O;
}
);
width = 787;
},
{
associatedMasterId = "BD1314B0-2F62-4F06-89D3-8B766BA843F0";
layerId = "ACFFDFD1-09B8-4B53-A2C4-AB6E6D99972C";
name = "30 Aug 24 at 12:53";
shapes = (
{
closed = 1;
nodes = (
(128,0,l),
(822,700,l),
(689,700,l),
(-5,0,l)
);
},
{
alignment = -1;
pos = (17,0);
ref = O;
}
);
width = 787;
}
);
unicode = 216;
},
{
color = 11;
glyphname = OE;
kernLeft = O;
kernRight = E;
lastChange = "2024-05-09 20:05:48 +0000";
layers = (
{
associatedMasterId = "897F30B6-1700-43C7-9C60-A606C7C7F267";
layerId = "02575D39-7864-4EEF-9012-950E1A85E8A1";
name = public.background;
shapes = (
{
closed = 1;
nodes = (
(514,-7,o),
(620,59,o),
(665,171,c),
(665,0,l),
(1031,0,l),
(1031,56,l),
(735,56,l),
(735,324,l),
(1001,324,l),
(1001,379,l),
(735,379,l),
(735,643,l),
(1031,643,l),
(1031,699,l),
(665,699,l),
(665,530,l),
(620,640,o),
(514,707,o),
(386,707,c),
(195,707,o),
(45,560,o),
(45,350,c),
(45,140,o),
(195,-7,o),
(386,-7,c)
);
},
{
closed = 1;
nodes = (
(236,56,o),
(117,169,o),
(117,350,c),
(117,531,o),
(236,643,o),
(391,643,c),
(546,643,o),
(665,531,o),
(665,350,c),
(665,169,o),
(546,56,o),
(391,56,c)
);
}
);
width = 1119;
},
{
background = {
shapes = (
{
pos = (550,0);
ref = E;
}
);
};
layerId = "BD1314B0-2F62-4F06-89D3-8B766BA843F0";
shapes = (
{
closed = 1;
nodes = (
(423,-12,o),
(516,22,o),
(575,86,c),
(561,0,l),
(995,0,l),
(1010,112,l),
(717,112,l),
(743,301,l),
(1007,301,l),
(1022,410,l),
(759,410,l),
(784,587,l),
(1077,587,l),
(1092,700,l),
(660,700,l),
(645,606,l),
(604,672,o),
(518,712,o),
(429,712,cs),
(236,712,o),
(72,568,o),
(42,357,cs),
(11,140,o),
(140,-12,o),
(339,-12,cs)
);
},
{
closed = 1;
nodes = (
(243,114,o),
(161,200,o),
(182,343,cs),
(204,493,o),
(315,586,o),
(435,586,cs),
(551,586,o),
(630,500,o),
(610,357,cs),
(589,207,o),
(478,114,o),
(357,114,cs)
);
}
);
width = 1059;
},
{
background = {
shapes = (
{
closed = 1;
nodes = (
(439,-12,o),
(545,37,o),
(621,133,c),
(602,0,l),
(989,0,l),
(997,58,l),
(680,58,l),
(718,323,l),
(1004,323,l),
(1012,381,l),
(725,381,l),
(762,642,l),
(1079,642,l),
(1087,700,l),
(700,700,l),
(681,567,l),
(632,661,o),
(541,712,o),
(446,712,cs),
(270,712,o),
(99,564,o),
(69,350,cs),
(39,135,o),
(168,-12,o),
(344,-12,cs)
);
},
{
closed = 1;
nodes = (
(221,49,o),
(115,162,o),
(141,350,cs),
(167,537,o),
(307,650,o),
(437,650,cs),
(568,650,o),
(675,537,o),
(649,350,cs),
(623,162,o),
(483,49,o),
(352,49,cs)
);
}
);
};
layerId = "897F30B6-1700-43C7-9C60-A606C7C7F267";
shapes = (
{
closed = 1;
nodes = (
(432,-12,o),
(542,37,o),
(621,133,c),
(602,0,l),
(989,0,l),
(997,58,l),
(680,58,l),
(718,323,l),
(1004,323,l),
(1012,381,l),
(725,381,l),
(762,642,l),
(1079,642,l),
(1087,700,l),
(700,700,l),
(681,567,l),
(632,661,o),
(535,712,o),
(436,712,cs),
(255,712,o),
(79,564,o),
(49,350,cs),
(19,135,o),
(152,-12,o),
(334,-12,cs)
);
},
{
closed = 1;
nodes = (
(205,49,o),
(95,162,o),
(121,350,cs),
(147,537,o),
(293,650,o),
(427,650,cs),
(585,650,o),
(675,537,o),
(649,350,cs),
(623,162,o),
(495,49,o),
(342,49,cs)
);
}
);
width = 1059;
}
);
unicode = 338;
},
{
glyphname = Thorn;
kernLeft = H;
lastChange = "2024-05-09 20:05:48 +0000";
layers = (
{
associatedMasterId = "897F30B6-1700-43C7-9C60-A606C7C7F267";
layerId = "02575D39-7864-4EEF-9012-950E1A85E8A1";
name = public.background;
shapes = (
{
closed = 1;
nodes = (
(146,0,l),
(146,150,l),
(287,150,ls),
(451,150,o),
(523,236,o),
(523,350,cs),
(523,465,o),
(449,551,o),
(287,551,cs),
(145,551,l),
(145,700,l),
(76,700,l),
(76,0,l)
);
},
{
closed = 1;
nodes = (
(146,494,l),
(287,494,ls),
(405,494,o),
(451,439,o),
(451,350,cs),
(451,264,o),
(405,207,o),
(287,207,cs),
(146,207,l)
);
}
);
width = 570;
},
{
layerId = "BD1314B0-2F62-4F06-89D3-8B766BA843F0";
shapes = (
{
closed = 1;
nodes = (
(158,0,l),
(176,133,l),
(306,133,ls),
(480,133,o),
(568,230,o),
(584,342,cs),
(602,470,o),
(530,568,o),
(362,568,cs),
(238,568,l),
(256,700,l),
(117,700,l),
(18,0,l)
);
},
{
closed = 1;
nodes = (
(222,454,l),
(343,454,ls),
(426,454,o),
(452,418,o),
(444,356,cs),
(435,289,o),
(391,245,o),
(308,245,cs),
(193,245,l)
);
}
);
width = 589;
},
{
layerId = "897F30B6-1700-43C7-9C60-A606C7C7F267";
shapes = (
{
closed = 1;
nodes = (
(114,0,l),
(135,150,l),
(299,150,ls),
(462,150,o),
(545,237,o),
(562,350,cs),
(579,465,o),
(518,551,o),
(355,551,cs),
(191,551,l),
(212,700,l),
(142,700,l),
(44,0,l)
);
},
{
closed = 1;
nodes = (
(183,492,l),
(347,492,ls),
(465,492,o),
(503,440,o),
(491,350,cs),
(480,264,o),
(425,210,o),
(307,210,cs),
(143,210,l)
);
}
);
width = 589;
}
);
unicode = 222;
},
{
glyphname = Rcommaaccent;
kernLeft = H;
kernRight = R;
lastChange = "2024-05-08 13:29:11 +0000";
layers = (
{
associatedMasterId = "897F30B6-1700-43C7-9C60-A606C7C7F267";
layerId = "02575D39-7864-4EEF-9012-950E1A85E8A1";
name = public.background;
shapes = (
{
closed = 1;
nodes = (
(247,-226,l),
(303,-226,o),
(337,-197,o),
(337,-119,cs),
(337,-100,o),
(334,-76,o),
(329,-52,c),
(250,-52,l),
(250,-121,l),
(292,-121,l),
(292,-135,ls),
(292,-171,o),
(279,-191,o),
(247,-191,c)
);
},
{
alignment = -1;
ref = R;
}
);
width = 583;
},
{
layerId = "BD1314B0-2F62-4F06-89D3-8B766BA843F0";
shapes = (
{
ref = R;
},
{
pos = (367,103);
ref = commaaccentcomb.case;
}
);
width = 640;
},
{
layerId = "897F30B6-1700-43C7-9C60-A606C7C7F267";
shapes = (
{
ref = R;
},
{
pos = (346,97);
ref = commaaccentcomb.case;
}
);
width = 640;
}
);
unicode = 342;
},
{
glyphname = Scommaaccent;
kernLeft = S;
kernRight = S;
lastChange = "2024-05-08 13:02:07 +0000";
layers = (
{
associatedMasterId = "897F30B6-1700-43C7-9C60-A606C7C7F267";
layerId = "02575D39-7864-4EEF-9012-950E1A85E8A1";
name = public.background;
shapes = (
{
closed = 1;
nodes = (
(253,-226,l),
(310,-226,o),
(344,-197,o),
(344,-119,cs),
(344,-100,o),
(341,-76,o),
(336,-52,c),
(257,-52,l),
(257,-121,l),
(300,-121,l),
(300,-135,ls),
(300,-171,o),
(286,-191,o),
(253,-191,c)
);
},
{
alignment = -1;
ref = S;
}
);
width = 602;
},
{
layerId = "BD1314B0-2F62-4F06-89D3-8B766BA843F0";
shapes = (
{
ref = S;
},
{
pos = (322,103);
ref = commaaccentcomb.case;
}
);
width = 607;
},
{
layerId = "897F30B6-1700-43C7-9C60-A606C7C7F267";
shapes = (
{
ref = S;
},
{
pos = (312,98);
ref = commaaccentcomb.case;
}
);
width = 607;
}
);
unicode = 536;
},
{
color = 8;
glyphname = Germandbls;
kernLeft = H;
kernRight = B;
lastChange = "2024-05-09 20:05:48 +0000";
layers = (
{
layerId = "897F30B6-1700-43C7-9C60-A606C7C7F267";
shapes = (
{
closed = 1;
nodes = (
(114,0,l),
(204,641,l),
(514,641,l),
(502,668,l),
(309,409,l),
(302,355,l),
(329,355,ls),
(433,355,o),
(499,313,o),
(499,223,cs),
(499,113,o),
(433,60,o),
(317,60,cs),
(181,60,l),
(173,0,l),
(309,0,ls),
(485,0,o),
(571,91,o),
(571,232,cs),
(571,343,o),
(486,406,o),
(369,412,c),
(364,383,l),
(560,647,l),
(567,700,l),
(142,700,l),
(44,0,l)
);
}
);
width = 643;
},
{
layerId = "BD1314B0-2F62-4F06-89D3-8B766BA843F0";
shapes = (
{
closed = 1;
nodes = (
(153,0,l),
(234,581,l),
(516,581,l),
(493,634,l),
(300,403,l),
(289,318,l),
(352,318,ls),
(439,318,o),
(486,292,o),
(486,230,cs),
(486,163,o),
(439,119,o),
(344,119,cs),
(209,119,l),
(192,0,l),
(327,0,ls),
(525,0,o),
(614,108,o),
(614,230,cs),
(614,344,o),
(533,400,o),
(393,408,c),
(388,350,l),
(605,594,l),
(620,700,l),
(111,700,l),
(13,0,l)
);
}
);
width = 643;
},
{
associatedMasterId = "897F30B6-1700-43C7-9C60-A606C7C7F267";
layerId = "FB103197-62EA-435B-8C38-F6B4635706B6";
name = "19 Apr 24 at 16:01";
shapes = (
{
closed = 1;
nodes = (
(177,3,l),
(200,-3,o),
(233,-7,o),
(271,-7,cs),
(418,-7,o),
(529,80,o),
(546,206,cs),
(563,326,o),
(490,396,o),
(371,410,c),
(546,647,l),
(554,700,l),
(141,700,l),
(42,0,l),
(112,0,l),
(202,641,l),
(460,641,l),
(288,409,l),
(280,355,l),
(307,355,ls),
(422,355,o),
(490,304,o),
(476,204,cs),
(462,106,o),
(379,54,o),
(272,54,cs),
(237,54,o),
(208,58,o),
(185,64,c)
);
}
);
width = 643;
},
{
associatedMasterId = "BD1314B0-2F62-4F06-89D3-8B766BA843F0";
layerId = "1A62DB56-7086-4A75-8CAD-654C8396CFE8";
name = "19 Apr 24 at 16:01";
shapes = (
{
closed = 1;
nodes = (
(212,7,l),
(248,-6,o),
(291,-12,o),
(336,-12,cs),
(467,-12,o),
(592,70,o),
(612,209,cs),
(627,318,o),
(565,382,o),
(446,402,c),
(598,594,l),
(613,700,l),
(111,700,l),
(13,0,l),
(153,0,l),
(234,581,l),
(433,581,l),
(300,403,l),
(288,318,l),
(323,318,ls),
(455,318,o),
(490,263,o),
(483,213,cs),
(476,165,o),
(439,106,o),
(333,106,cs),
(291,106,o),
(252,112,o),
(227,118,c)
);
}
);
width = 643;
}
);
unicode = 7838;
},
{
glyphname = Tcommaaccent;
kernLeft = T;
kernRight = T;
lastChange = "2024-05-08 13:02:07 +0000";
layers = (
{
associatedMasterId = "897F30B6-1700-43C7-9C60-A606C7C7F267";
layerId = "02575D39-7864-4EEF-9012-950E1A85E8A1";
name = public.background;
shapes = (
{
closed = 1;
nodes = (
(215,-226,l),
(271,-226,o),
(305,-197,o),
(305,-119,cs),
(305,-100,o),
(302,-76,o),
(297,-52,c),
(218,-52,l),
(218,-121,l),
(261,-121,l),
(261,-135,ls),
(261,-171,o),
(247,-191,o),
(215,-191,c)
);
},
{
alignment = -1;
ref = T;
}
);
width = 599;
},
{
layerId = "BD1314B0-2F62-4F06-89D3-8B766BA843F0";
shapes = (
{
ref = T;
},
{
pos = (307,103);
ref = commaaccentcomb.case;
}
);
width = 587;
},
{
layerId = "897F30B6-1700-43C7-9C60-A606C7C7F267";
shapes = (
{
ref = T;
},
{
pos = (305,97);
ref = commaaccentcomb.case;
}
);
width = 587;
}
);
unicode = 538;
},
{
color = 8;
glyphname = ae;
kernLeft = a;
kernRight = e;
lastChange = "2024-08-29 14:44:35 +0000";
layers = (
{
associatedMasterId = "897F30B6-1700-43C7-9C60-A606C7C7F267";
layerId = "02575D39-7864-4EEF-9012-950E1A85E8A1";
name = public.background;
shapes = (
{
closed = 1;
nodes = (
(408,-8,o),
(486,49,o),
(521,126,c),
(521,0,l),
(582,0,l),
(582,126,l),
(618,41,o),
(704,-8,o),
(801,-8,cs),
(934,-8,o),
(1022,70,o),
(1047,173,c),
(971,173,l),
(954,99,o),
(887,51,o),
(790,51,cs),
(691,51,o),
(590,120,o),
(590,265,cs),
(590,283,ls),
(590,421,o),
(685,494,o),
(791,494,cs),
(895,494,o),
(987,429,o),
(983,300,c),
(580,300,l),
(580,248,l),
(1051,248,l),
(1054,267,o),
(1055,281,o),
(1055,302,cs),
(1055,438,o),
(959,554,o),
(801,554,cs),
(706,554,o),
(626,512,o),
(582,422,c),
(582,546,l),
(523,546,l),
(523,423,l),
(484,503,o),
(408,554,o),
(306,554,c),
(153,554,o),
(42,445,o),
(42,274,c),
(42,103,o),
(153,-8,o),
(303,-8,c)
);
},
{
closed = 1;
nodes = (
(201,53,o),
(113,136,o),
(113,274,c),
(113,413,o),
(201,493,o),
(316,493,c),
(428,493,o),
(519,409,o),
(519,273,c),
(519,137,o),
(428,53,o),
(316,53,c)
);
}
);
width = 1145;
},
{
anchors = (
{
name = bottom;
pos = (415,0);
},
{
name = top;
pos = (485,496);
}
);
layerId = "BD1314B0-2F62-4F06-89D3-8B766BA843F0";
shapes = (
{
closed = 1;
nodes = (
(291,-12,o),
(354,26,o),
(405,86,c),
(440,28,o),
(509,-12,o),
(599,-12,cs),
(720,-12,o),
(817,58,o),
(857,161,c),
(717,161,l),
(695,123,o),
(657,102,o),
(602,102,cs),
(545,102,o),
(503,141,o),
(507,208,c),
(873,208,l),
(877,226,o),
(880,243,o),
(881,252,cs),
(902,400,o),
(809,508,o),
(660,508,cs),
(596,508,o),
(531,485,o),
(480,441,c),
(448,481,o),
(389,508,o),
(307,508,cs),
(186,508,o),
(85,445,o),
(61,339,c),
(197,339,l),
(210,380,o),
(254,395,o),
(304,395,cs),
(352,395,o),
(382,372,o),
(377,308,cs),
(376,296,l),
(241,296,ls),
(95,296,o),
(23,233,o),
(10,147,cs),
(-3,60,o),
(61,-12,o),
(193,-12,cs)
);
},
{
closed = 1;
nodes = (
(178,96,o),
(153,115,o),
(158,147,cs),
(164,183,o),
(196,212,o),
(254,212,cs),
(358,212,l),
(339,134,o),
(273,96,o),
(217,96,cs)
);
},
{
closed = 1;
nodes = (
(544,358,o),
(600,395,o),
(657,395,cs),
(712,395,o),
(750,361,o),
(747,300,c),
(522,293,l)
);
}
);
width = 900;
},
{
anchors = (
{
name = bottom;
pos = (416,0);
},
{
name = top;
pos = (486,496);
}
);
background = {
shapes = (
{
closed = 1;
nodes = (
(136,50,o),
(99,87,o),
(107,144,cs),
(115,199,o),
(159,237,o),
(264,237,cs),
(398,237,l),
(394,214,ls),
(379,129,o),
(297,50,o),
(207,50,cs)
);
}
);
};
layerId = "897F30B6-1700-43C7-9C60-A606C7C7F267";
shapes = (
{
closed = 1;
nodes = (
(291,-12,o),
(364,42,o),
(412,111,c),
(442,34,o),
(511,-12,o),
(599,-12,cs),
(717,-12,o),
(804,62,o),
(842,161,c),
(775,161,l),
(743,91,o),
(687,48,o),
(608,48,cs),
(529,48,o),
(453,109,o),
(468,237,c),
(858,237,l),
(862,256,o),
(864,269,o),
(866,283,cs),
(882,398,o),
(813,508,o),
(675,508,cs),
(595,508,o),
(521,473,o),
(470,411,c),
(448,471,o),
(393,508,o),
(306,508,cs),
(211,508,o),
(106,451,o),
(79,344,c),
(153,344,l),
(175,412,o),
(234,448,o),
(298,448,cs),
(374,448,o),
(419,398,o),
(407,305,cs),
(406,297,l),
(267,297,ls),
(143,297,o),
(49,246,o),
(34,142,cs),
(22,60,o),
(72,-12,o),
(197,-12,cs)
);
},
{
closed = 1;
nodes = (
(136,50,o),
(99,87,o),
(107,144,cs),
(115,199,o),
(159,237,o),
(264,237,cs),
(398,237,l),
(386,113,o),
(279,50,o),
(207,50,cs)
);
},
{
closed = 1;
nodes = (
(501,395,o),
(583,448,o),
(665,448,cs),
(748,448,o),
(808,392,o),
(800,297,c),
(477,297,l)
);
}
);
width = 900;
}
);
unicode = 230;
},
{
color = 11;
glyphname = eth;
lastChange = "2024-05-09 20:05:48 +0000";
layers = (
{
associatedMasterId = "897F30B6-1700-43C7-9C60-A606C7C7F267";
layerId = "02575D39-7864-4EEF-9012-950E1A85E8A1";
name = public.background;
shapes = (
{
closed = 1;
nodes = (
(112,47,o),
(21,125,o),
(21,249,cs),
(21,373,o),
(112,451,o),
(212,451,cs),
(312,451,o),
(403,373,o),
(403,249,cs),
(403,125,o),
(312,47,o),
(212,47,cs)
);
}
);
width = 446;
},
{
layerId = "BD1314B0-2F62-4F06-89D3-8B766BA843F0";
shapes = (
{
closed = 1;
nodes = (
(420,-12,o),
(556,101,o),
(582,286,cs),
(601,421,o),
(561,584,o),
(446,698,c),
(320,702,l),
(400,624,o),
(455,512,o),
(463,406,c),
(487,426,l),
(440,476,o),
(387,502,o),
(317,502,cs),
(170,502,o),
(46,397,o),
(26,253,cs),
(5,105,o),
(105,-12,o),
(267,-12,cs)
);
},
{
closed = 1;
nodes = (
(207,107,o),
(155,156,o),
(167,239,cs),
(180,326,o),
(252,383,o),
(326,383,cs),
(394,383,o),
(445,333,o),
(434,253,cs),
(422,164,o),
(349,107,o),
(275,107,cs)
);
},
{
closed = 1;
nodes = (
(590,627,l),
(601,709,l),
(295,616,l),
(283,533,l)
);
}
);
width = 589;
},
{
layerId = "897F30B6-1700-43C7-9C60-A606C7C7F267";
shapes = (
{
closed = 1;
nodes = (
(407,-12,o),
(539,104,o),
(562,266,cs),
(587,443,o),
(531,583,o),
(406,700,c),
(335,700,l),
(441,602,o),
(490,506,o),
(507,395,c),
(513,393,l),
(483,478,o),
(403,508,o),
(327,508,cs),
(184,508,o),
(56,399,o),
(35,247,cs),
(15,104,o),
(107,-12,o),
(259,-12,cs)
);
},
{
closed = 1;
nodes = (
(168,47,o),
(89,125,o),
(105,249,cs),
(121,371,o),
(225,449,o),
(325,449,cs),
(425,449,o),
(506,371,o),
(488,249,cs),
(470,125,o),
(368,47,o),
(268,47,cs)
);
},
{
closed = 1;
nodes = (
(578,657,l),
(586,708,l),
(285,606,l),
(278,555,l)
);
}
);
width = 589;
}
);
unicode = 240;
},
{
color = 11;
glyphname = dcaron;
kernLeft = o;
kernRight = dcaron;
lastChange = "2024-09-01 14:22:02 +0000";
layers = (
{
associatedMasterId = "897F30B6-1700-43C7-9C60-A606C7C7F267";
layerId = "02575D39-7864-4EEF-9012-950E1A85E8A1";
name = public.background;
shapes = (
{
closed = 1;
nodes = (
(674,552,l),
(733,552,o),
(766,581,o),
(766,655,cs),
(766,679,o),
(763,707,o),
(756,740,c),
(675,740,l),
(675,664,l),
(721,664,l),
(721,639,ls),
(721,606,o),
(709,588,o),
(674,588,c)
);
},
{
alignment = -1;
ref = d;
}
);
width = 884;
},
{
background = {
shapes = (
{
closed = 1;
nodes = (
(307,-12,o),
(361,25,o),
(398,68,c),
(389,0,l),
(529,0,l),
(630,720,l),
(490,720,l),
(450,432,l),
(422,480,o),
(372,508,o),
(299,508,cs),
(160,508,o),
(40,398,o),
(19,249,cs),
(-2,100,o),
(87,-12,o),
(226,-12,cs)
);
},
{
closed = 1;
nodes = (
(198,110,o),
(151,169,o),
(162,249,cs),
(173,328,o),
(237,386,o),
(314,386,cs),
(392,386,o),
(439,328,o),
(428,248,cs),
(417,169,o),
(353,110,o),
(275,110,cs)
);
},
{
closed = 1;
nodes = (
(737,495,o),
(786,547,o),
(798,632,cs),
(813,740,l),
(680,740,l),
(665,631,l),
(723,631,l),
(720,613,ls),
(714,571,o),
(695,551,o),
(661,551,c),
(653,495,l)
);
}
);
};
layerId = "BD1314B0-2F62-4F06-89D3-8B766BA843F0";
shapes = (
{
alignment = -1;
ref = d;
},
{
pos = (588,-20);
ref = caroncomb.alt;
}
);
width = 674;
},
{
background = {
shapes = (
{
closed = 1;
nodes = (
(336,-12,o),
(404,36,o),
(443,86,c),
(431,0,l),
(501,0,l),
(602,720,l),
(532,720,l),
(488,408,l),
(463,471,o),
(400,508,o),
(316,508,cs),
(165,508,o),
(54,399,o),
(33,249,cs),
(12,99,o),
(92,-12,o),
(242,-12,cs)
);
},
{
closed = 1;
nodes = (
(150,49,o),
(87,128,o),
(104,248,cs),
(121,368,o),
(206,447,o),
(311,447,cs),
(416,447,o),
(479,368,o),
(462,248,cs),
(445,128,o),
(360,49,o),
(255,49,cs)
);
},
{
closed = 1;
nodes = (
(692,552,o),
(729,581,o),
(740,655,cs),
(752,740,l),
(661,740,l),
(650,664,l),
(696,664,l),
(693,639,ls),
(688,606,o),
(673,588,o),
(638,588,c),
(633,552,l)
);
}
);
};
layerId = "897F30B6-1700-43C7-9C60-A606C7C7F267";
shapes = (
{
alignment = -1;
ref = d;
},
{
pos = (539,-20);
ref = caroncomb.alt;
}
);
width = 674;
}
);
metricLeft = d;
unicode = 271;
},
{
color = 11;
glyphname = dcroat;
kernLeft = o;
lastChange = "2024-08-30 10:54:03 +0000";
layers = (
{
associatedMasterId = "897F30B6-1700-43C7-9C60-A606C7C7F267";
layerId = "02575D39-7864-4EEF-9012-950E1A85E8A1";
name = public.background;
shapes = (
{
closed = 1;
nodes = (
(685,618,l),
(685,662,l),
(412,662,l),
(412,618,l)
);
},
{
alignment = -1;
ref = d;
}
);
width = 650;
},
{
anchors = (
{
name = bottom;
pos = (271,0);
},
{
name = center;
pos = (306,248);
},
{
name = top;
pos = (372,720);
},
{
name = topright;
pos = (631,741);
}
);
layerId = "BD1314B0-2F62-4F06-89D3-8B766BA843F0";
shapes = (
{
closed = 1;
nodes = (
(693,552,l),
(705,635,l),
(367,635,l),
(355,552,l)
);
},
{
closed = 1;
nodes = (
(311,-12,o),
(363,22,o),
(400,65,c),
(389,0,l),
(529,0,l),
(630,720,l),
(490,720,l),
(448,429,l),
(420,477,o),
(370,508,o),
(294,508,cs),
(157,508,o),
(41,402,o),
(20,256,cs),
(-2,104,o),
(91,-12,o),
(232,-12,cs)
);
},
{
closed = 1;
nodes = (
(196,110,o),
(150,166,o),
(161,242,cs),
(173,324,o),
(241,386,o),
(320,386,cs),
(395,386,o),
(440,331,o),
(429,255,cs),
(417,173,o),
(350,110,o),
(270,110,cs)
);
}
);
width = 656;
},
{
anchors = (
{
name = bottom;
pos = (263,0);
},
{
name = center;
pos = (298,248);
},
{
name = top;
pos = (364,720);
},
{
name = topright;
pos = (628,740);
}
);
layerId = "897F30B6-1700-43C7-9C60-A606C7C7F267";
shapes = (
{
closed = 1;
nodes = (
(661,572,l),
(669,632,l),
(372,632,l),
(364,572,l)
);
},
{
closed = 1;
nodes = (
(337,-12,o),
(404,36,o),
(444,86,c),
(431,0,l),
(502,0,l),
(603,720,l),
(532,720,l),
(489,408,l),
(464,471,o),
(401,508,o),
(317,508,cs),
(166,508,o),
(56,392,o),
(36,251,cs),
(16,110,o),
(93,-12,o),
(243,-12,cs)
);
},
{
closed = 1;
nodes = (
(150,49,o),
(89,137,o),
(106,250,cs),
(123,362,o),
(206,447,o),
(312,447,cs),
(417,447,o),
(479,368,o),
(463,248,cs),
(447,128,o),
(361,49,o),
(255,49,cs)
);
}
);
width = 656;
},
{
associatedMasterId = "897F30B6-1700-43C7-9C60-A606C7C7F267";
layerId = "4354CD73-8BC5-47F4-8B9B-15F73FFF9220";
name = "30 Aug 24 at 12:54";
shapes = (
{
closed = 1;
nodes = (
(661,572,l),
(669,632,l),
(372,632,l),
(364,572,l)
);
},
{
alignment = -1;
ref = d;
}
);
width = 656;
},
{
associatedMasterId = "BD1314B0-2F62-4F06-89D3-8B766BA843F0";
layerId = "F81B31F2-48AE-4540-9336-D0DAE8294480";
name = "30 Aug 24 at 12:54";
shapes = (
{
closed = 1;
nodes = (
(693,552,l),
(705,635,l),
(367,635,l),
(355,552,l)
);
},
{
alignment = -1;
ref = d;
}
);
width = 656;
}
);
metricLeft = d;
unicode = 273;
},
{
color = 11;
glyphname = schwa;
kernRight = o;
lastChange = "2024-05-09 20:05:48 +0000";
layers = (
{
layerId = "BD1314B0-2F62-4F06-89D3-8B766BA843F0";
shapes = (
{
closed = 1;
nodes = (
(402,-12,o),
(516,95,o),
(537,246,cs),
(558,400,o),
(464,508,o),
(308,508,cs),
(192,508,o),
(94,439,o),
(55,346,c),
(202,346,l),
(222,376,o),
(257,394,o),
(306,394,cs),
(374,394,o),
(411,348,o),
(403,272,cs),
(400,243,ls),
(390,150,o),
(323,101,o),
(251,101,cs),
(193,101,o),
(159,132,o),
(162,207,c),
(434,211,l),
(445,295,l),
(35,299,l),
(29,281,o),
(25,252,o),
(24,242,cs),
(4,97,o),
(97,-12,o),
(248,-12,cs)
);
}
);
width = 559;
},
{
layerId = "897F30B6-1700-43C7-9C60-A606C7C7F267";
shapes = (
{
closed = 1;
nodes = (
(383,-12,o),
(501,89,o),
(523,247,cs),
(545,405,o),
(458,508,o),
(310,508,cs),
(190,508,o),
(100,441,o),
(63,350,c),
(130,350,l),
(163,411,o),
(223,448,o),
(302,448,cs),
(394,448,o),
(476,384,o),
(456,249,cs),
(452,222,ls),
(435,109,o),
(342,48,o),
(247,48,cs),
(149,48,o),
(85,107,o),
(98,221,c),
(466,221,l),
(474,281,l),
(45,281,l),
(37,262,o),
(32,236,o),
(29,217,cs),
(13,98,o),
(84,-12,o),
(235,-12,cs)
);
}
);
width = 559;
}
);
unicode = 601;
},
{
glyphname = gcommaaccent;
kernLeft = g;
kernRight = g;
lastChange = "2024-10-09 14:19:02 +0000";
layers = (
{
associatedMasterId = "897F30B6-1700-43C7-9C60-A606C7C7F267";
layerId = "02575D39-7864-4EEF-9012-950E1A85E8A1";
name = public.background;
shapes = (
{
closed = 1;
nodes = (
(406,595,l),
(406,672,l),
(360,672,l),
(360,696,ls),
(360,730,o),
(373,747,o),
(407,747,c),
(407,783,l),
(349,783,o),
(316,754,o),
(316,680,cs),
(316,656,o),
(319,628,o),
(325,595,c)
);
},
{
alignment = -1;
ref = g;
}
);
width = 668;
},
{
layerId = "BD1314B0-2F62-4F06-89D3-8B766BA843F0";
shapes = (
{
ref = g;
},
{
pos = (202,0);
ref = commaturnedabovecomb;
}
);
width = 620;
},
{
layerId = "897F30B6-1700-43C7-9C60-A606C7C7F267";
shapes = (
{
ref = g;
},
{
pos = (257,0);
ref = commaturnedabovecomb;
}
);
width = 620;
}
);
unicode = 291;
},
{
color = 8;
glyphname = hbar;
kernRight = n;
lastChange = "2024-08-30 10:54:07 +0000";
layers = (
{
anchors = (
{
name = bottom;
pos = (308,0);
},
{
name = center;
pos = (356,360);
},
{
name = top;
pos = (235,720);
}
);
layerId = "897F30B6-1700-43C7-9C60-A606C7C7F267";
shapes = (
{
closed = 1;
nodes = (
(372,572,l),
(380,632,l),
(73,632,l),
(65,572,l)
);
},
{
closed = 1;
nodes = (
(527,0,l),
(569,293,ls),
(590,441,o),
(522,508,o),
(411,508,cs),
(339,508,o),
(266,471,o),
(223,409,c),
(267,720,l),
(197,720,l),
(96,0,l),
(166,0,l),
(203,263,ls),
(220,382,o),
(301,447,o),
(391,447,cs),
(476,447,o),
(514,394,o),
(499,285,cs),
(459,0,l)
);
}
);
width = 626;
},
{
anchors = (
{
name = bottom;
pos = (311,0);
},
{
name = center;
pos = (361,360);
},
{
name = top;
pos = (233,720);
}
);
layerId = "BD1314B0-2F62-4F06-89D3-8B766BA843F0";
shapes = (
{
closed = 1;
nodes = (
(388,552,l),
(400,635,l),
(62,635,l),
(50,552,l)
);
},
{
closed = 1;
nodes = (
(559,0,l),
(597,273,ls),
(618,422,o),
(559,508,o),
(432,508,cs),
(360,508,o),
(300,477,o),
(261,426,c),
(303,720,l),
(163,720,l),
(62,0,l),
(201,0,l),
(239,266,ls),
(250,343,o),
(313,390,o),
(380,390,cs),
(447,390,o),
(469,349,o),
(458,268,cs),
(420,0,l)
);
}
);
width = 626;
},
{
associatedMasterId = "897F30B6-1700-43C7-9C60-A606C7C7F267";
layerId = "3EF8B1B8-C510-4CA2-A634-3CDDC763EE81";
name = "30 Aug 24 at 12:54";
shapes = (
{
closed = 1;
nodes = (
(372,572,l),
(380,632,l),
(73,632,l),
(65,572,l)
);
},
{
alignment = -1;
pos = (57,0);
ref = h;
}
);
width = 626;
},
{
associatedMasterId = "BD1314B0-2F62-4F06-89D3-8B766BA843F0";
layerId = "56F04CE2-29E9-496E-AB14-6FB9DF04E4FA";
name = "30 Aug 24 at 12:54";
shapes = (
{
closed = 1;
nodes = (
(388,552,l),
(400,635,l),
(62,635,l),
(50,552,l)
);
},
{
alignment = -1;
pos = (57,0);
ref = h;
}
);
width = 626;
}
);
unicode = 295;
},
{
glyphname = idotless;
kernLeft = i;
kernRight = i;
lastChange = "2024-05-09 20:05:48 +0000";
layers = (
{
associatedMasterId = "897F30B6-1700-43C7-9C60-A606C7C7F267";
layerId = "02575D39-7864-4EEF-9012-950E1A85E8A1";
name = public.background;
shapes = (
{
closed = 1;
nodes = (
(140,0,l),
(140,546,l),
(70,546,l),
(70,0,l)
);
}
);
width = 210;
},
{
anchors = (
{
name = ogonek;
pos = (141,0);
},
{
name = top;
pos = (142,496);
}
);
layerId = "BD1314B0-2F62-4F06-89D3-8B766BA843F0";
shapes = (
{
closed = 1;
nodes = (
(141,0,l),
(211,496,l),
(72,496,l),
(2,0,l)
);
}
);
width = 210;
},
{
anchors = (
{
name = ogonek;
pos = (106,0);
},
{
name = top;
pos = (140,496);
}
);
layerId = "897F30B6-1700-43C7-9C60-A606C7C7F267";
shapes = (
{
closed = 1;
nodes = (
(106,0,l),
(176,496,l),
(106,496,l),
(36,0,l)
);
}
);
width = 210;
}
);
unicode = 305;
},
{
color = 8;
glyphname = ij;
kernRight = j;
lastChange = "2024-08-30 10:54:12 +0000";
layers = (
{
anchors = (
{
name = ogonek;
pos = (116,0);
}
);
layerId = "897F30B6-1700-43C7-9C60-A606C7C7F267";
shapes = (
{
closed = 1;
nodes = (
(131,-220,l),
(139,-160,l),
(43,-160,l),
(35,-220,l)
);
},
{
closed = 1;
nodes = (
(116,0,l),
(185,496,l),
(115,496,l),
(45,0,l)
);
},
{
closed = 1;
nodes = (
(219,617,l),
(234,720,l),
(131,720,l),
(116,617,l)
);
},
{
closed = 1;
nodes = (
(160,-220,ls),
(247,-220,o),
(287,-189,o),
(299,-101,cs),
(382,496,l),
(312,496,l),
(229,-98,ls),
(222,-151,o),
(209,-160,o),
(157,-160,cs),
(109,-160,l),
(101,-220,l)
);
},
{
closed = 1;
nodes = (
(415,617,l),
(430,720,l),
(329,720,l),
(314,617,l)
);
}
);
width = 445;
},
{
anchors = (
{
name = ogonek;
pos = (158,0);
}
);
layerId = "BD1314B0-2F62-4F06-89D3-8B766BA843F0";
shapes = (
{
closed = 1;
nodes = (
(119,-220,l),
(135,-101,l),
(23,-101,l),
(7,-220,l)
);
},
{
closed = 1;
nodes = (
(158,0,l),
(228,496,l),
(89,496,l),
(19,0,l)
);
},
{
closed = 1;
nodes = (
(255,564,l),
(277,720,l),
(104,720,l),
(82,564,l)
);
},
{
closed = 1;
nodes = (
(168,-220,ls),
(276,-220,o),
(331,-193,o),
(349,-65,cs),
(427,496,l),
(288,496,l),
(211,-51,ls),
(205,-91,o),
(193,-101,o),
(150,-101,cs),
(104,-101,l),
(88,-220,l)
);
},
{
closed = 1;
nodes = (
(453,564,l),
(475,720,l),
(304,720,l),
(283,564,l)
);
}
);
width = 445;
},
{
associatedMasterId = "897F30B6-1700-43C7-9C60-A606C7C7F267";
layerId = "15AB1D50-8874-43A2-9159-A784F0761EF5";
name = "30 Aug 24 at 12:54";
shapes = (
{
closed = 1;
nodes = (
(131,-220,l),
(139,-160,l),
(43,-160,l),
(35,-220,l)
);
},
{
alignment = -1;
pos = (10,0);
ref = i;
},
{
pos = (206,0);
ref = j;
}
);
width = 445;
},
{
associatedMasterId = "BD1314B0-2F62-4F06-89D3-8B766BA843F0";
layerId = "89445195-B137-4D4B-87DF-5113CDBD2A6B";
name = "30 Aug 24 at 12:54";
shapes = (
{
closed = 1;
nodes = (
(119,-220,l),
(135,-101,l),
(23,-101,l),
(7,-220,l)
);
},
{
alignment = -1;
pos = (19,0);
ref = i;
},
{
pos = (215,0);
ref = j;
}
);
width = 445;
}
);
unicode = 307;
},
{
color = 4;
glyphname = jdotless;
kernLeft = j;
kernRight = j;
lastChange = "2024-08-28 18:43:37 +0000";
layers = (
{
anchors = (
{
name = bottom;
pos = (49,-270);
},
{
name = top;
pos = (157,496);
}
);
layerId = "897F30B6-1700-43C7-9C60-A606C7C7F267";
shapes = (
{
closed = 1;
nodes = (
(-17,-220,ls),
(70,-220,o),
(110,-189,o),
(122,-101,cs),
(205,496,l),
(135,496,l),
(52,-98,ls),
(45,-151,o),
(32,-160,o),
(-20,-160,cs),
(-68,-160,l),
(-76,-220,l)
);
}
);
width = 244;
},
{
anchors = (
{
name = bottom;
pos = (49,-270);
},
{
name = top;
pos = (157,496);
}
);
layerId = "BD1314B0-2F62-4F06-89D3-8B766BA843F0";
shapes = (
{
closed = 1;
nodes = (
(-35,-220,ls),
(73,-220,o),
(128,-193,o),
(146,-65,cs),
(224,496,l),
(85,496,l),
(8,-51,ls),
(2,-91,o),
(-10,-101,o),
(-53,-101,cs),
(-99,-101,l),
(-115,-220,l)
);
}
);
width = 244;
}
);
unicode = 567;
},
{
glyphname = kcommaaccent;
kernLeft = k;
kernRight = k;
lastChange = "2024-05-08 13:02:09 +0000";
layers = (
{
associatedMasterId = "897F30B6-1700-43C7-9C60-A606C7C7F267";
layerId = "02575D39-7864-4EEF-9012-950E1A85E8A1";
name = public.background;
shapes = (
{
closed = 1;
nodes = (
(198,-226,l),
(254,-226,o),
(288,-197,o),
(288,-119,cs),
(288,-100,o),
(285,-76,o),
(280,-52,c),
(201,-52,l),
(201,-121,l),
(244,-121,l),
(244,-135,ls),
(244,-171,o),
(231,-191,o),
(198,-191,c)
);
},
{
alignment = -1;
ref = k;
}
);
width = 484;
},
{
layerId = "BD1314B0-2F62-4F06-89D3-8B766BA843F0";
shapes = (
{
ref = k;
},
{
pos = (241,-166);
ref = commaaccentcomb;
}
);
width = 530;
},
{
layerId = "897F30B6-1700-43C7-9C60-A606C7C7F267";
shapes = (
{
ref = k;
},
{
pos = (141,-135);
ref = commaaccentcomb;
}
);
width = 530;
}
);
unicode = 311;
},
{
color = 4;
glyphname = lcaron;
kernLeft = h;
kernRight = dcaron;
lastChange = "2024-09-01 14:22:30 +0000";
layers = (
{
associatedMasterId = "897F30B6-1700-43C7-9C60-A606C7C7F267";
layerId = "02575D39-7864-4EEF-9012-950E1A85E8A1";
name = public.background;
shapes = (
{
closed = 1;
nodes = (
(217,552,l),
(275,552,o),
(308,581,o),
(308,655,cs),
(308,679,o),
(306,707,o),
(299,740,c),
(218,740,l),
(218,664,l),
(264,664,l),
(264,639,ls),
(264,606,o),
(251,588,o),
(217,588,c)
);
},
{
alignment = -1;
ref = l;
}
);
width = 426;
},
{
background = {
shapes = (
{
closed = 1;
nodes = (
(-81,-12,o),
(-27,25,o),
(10,68,c),
(1,0,l),
(141,0,l),
(242,720,l),
(102,720,l),
(62,432,l),
(34,480,o),
(-16,508,o),
(-89,508,cs),
(-228,508,o),
(-348,398,o),
(-369,249,cs),
(-390,100,o),
(-301,-12,o),
(-162,-12,cs)
);
},
{
closed = 1;
nodes = (
(-190,110,o),
(-237,169,o),
(-226,249,cs),
(-215,328,o),
(-151,386,o),
(-74,386,cs),
(4,386,o),
(51,328,o),
(40,248,cs),
(29,169,o),
(-35,110,o),
(-113,110,cs)
);
},
{
closed = 1;
nodes = (
(349,495,o),
(398,547,o),
(410,632,cs),
(425,740,l),
(292,740,l),
(277,631,l),
(335,631,l),
(332,613,ls),
(326,571,o),
(307,551,o),
(273,551,c),
(265,495,l)
);
}
);
};
layerId = "BD1314B0-2F62-4F06-89D3-8B766BA843F0";
shapes = (
{
alignment = -1;
ref = l;
},
{
pos = (195,-20);
ref = caroncomb.alt;
}
);
width = 280;
},
{
background = {
shapes = (
{
closed = 1;
nodes = (
(-50,-12,o),
(18,36,o),
(57,86,c),
(45,0,l),
(115,0,l),
(216,720,l),
(146,720,l),
(102,408,l),
(77,471,o),
(14,508,o),
(-70,508,cs),
(-221,508,o),
(-332,399,o),
(-353,249,cs),
(-374,99,o),
(-294,-12,o),
(-144,-12,cs)
);
},
{
closed = 1;
nodes = (
(-236,49,o),
(-299,128,o),
(-282,248,cs),
(-265,368,o),
(-180,447,o),
(-75,447,cs),
(30,447,o),
(93,368,o),
(76,248,cs),
(59,128,o),
(-26,49,o),
(-131,49,cs)
);
},
{
closed = 1;
nodes = (
(306,552,o),
(343,581,o),
(354,655,cs),
(366,740,l),
(275,740,l),
(264,664,l),
(310,664,l),
(307,639,ls),
(302,606,o),
(287,588,o),
(252,588,c),
(247,552,l)
);
}
);
};
layerId = "897F30B6-1700-43C7-9C60-A606C7C7F267";
shapes = (
{
alignment = -1;
ref = l;
},
{
pos = (143,-20);
ref = caroncomb.alt;
}
);
width = 280;
}
);
metricLeft = l;
unicode = 318;
},
{
glyphname = lcommaaccent;
kernLeft = l;
kernRight = l;
lastChange = "2024-05-08 13:02:09 +0000";
layers = (
{
associatedMasterId = "897F30B6-1700-43C7-9C60-A606C7C7F267";
layerId = "02575D39-7864-4EEF-9012-950E1A85E8A1";
name = public.background;
shapes = (
{
closed = 1;
nodes = (
(69,-226,l),
(126,-226,o),
(160,-197,o),
(160,-119,cs),
(160,-100,o),
(157,-76,o),
(152,-52,c),
(73,-52,l),
(73,-121,l),
(116,-121,l),
(116,-135,ls),
(116,-171,o),
(102,-191,o),
(69,-191,c)
);
},
{
alignment = -1;
ref = l;
}
);
width = 275;
},
{
layerId = "BD1314B0-2F62-4F06-89D3-8B766BA843F0";
shapes = (
{
ref = l;
},
{
pos = (84,-166);
ref = commaaccentcomb;
}
);
width = 212;
},
{
layerId = "897F30B6-1700-43C7-9C60-A606C7C7F267";
shapes = (
{
ref = l;
},
{
pos = (11,-135);
ref = commaaccentcomb;
}
);
width = 212;
}
);
unicode = 316;
},
{
color = 8;
glyphname = ldot;
kernLeft = l;
lastChange = "2024-08-30 10:54:17 +0000";
layers = (
{
associatedMasterId = "897F30B6-1700-43C7-9C60-A606C7C7F267";
layerId = "02575D39-7864-4EEF-9012-950E1A85E8A1";
name = public.background;
shapes = (
{
closed = 1;
nodes = (
(150,0,l),
(150,740,l),
(80,740,l),
(80,0,l)
);
},
{
closed = 1;
nodes = (
(280,322,o),
(301,343,o),
(301,368,cs),
(301,393,o),
(280,414,o),
(255,414,cs),
(229,414,o),
(209,393,o),
(209,368,cs),
(209,343,o),
(229,322,o),
(255,322,cs)
);
}
);
width = 407;
},
{
layerId = "BD1314B0-2F62-4F06-89D3-8B766BA843F0";
shapes = (
{
closed = 1;
nodes = (
(145,0,l),
(247,720,l),
(106,720,l),
(5,0,l)
);
},
{
closed = 1;
nodes = (
(334,284,o),
(370,320,o),
(377,364,cs),
(383,410,o),
(357,445,o),
(311,445,cs),
(266,445,o),
(230,410,o),
(223,364,cs),
(217,320,o),
(243,284,o),
(289,284,cs)
);
}
);
width = 375;
},
{
layerId = "897F30B6-1700-43C7-9C60-A606C7C7F267";
shapes = (
{
closed = 1;
nodes = (
(110,0,l),
(211,720,l),
(140,720,l),
(39,0,l)
);
},
{
closed = 1;
nodes = (
(286,316,o),
(310,339,o),
(315,368,cs),
(319,397,o),
(300,419,o),
(273,419,cs),
(245,419,o),
(221,397,o),
(217,368,cs),
(213,339,o),
(231,316,o),
(259,316,cs)
);
}
);
width = 375;
},
{
associatedMasterId = "897F30B6-1700-43C7-9C60-A606C7C7F267";
layerId = "30882C73-E76D-46CF-BCEF-CF90EBD032C7";
name = "30 Aug 24 at 12:54";
shapes = (
{
closed = 1;
nodes = (
(110,0,l),
(211,720,l),
(140,720,l),
(39,0,l)
);
},
{
alignment = -1;
pos = (140,21);
ref = periodcentered;
}
);
width = 375;
},
{
associatedMasterId = "BD1314B0-2F62-4F06-89D3-8B766BA843F0";
layerId = "B91B5DB0-1D2A-40AF-A744-E7B64453F74D";
name = "30 Aug 24 at 12:54";
shapes = (
{
closed = 1;
nodes = (
(145,0,l),
(247,720,l),
(106,720,l),
(5,0,l)
);
},
{
alignment = -1;
pos = (177,40);
ref = periodcentered;
}
);
width = 375;
}
);
unicode = 320;
},
{
glyphname = lslash;
lastChange = "2024-05-09 20:05:48 +0000";
layers = (
{
associatedMasterId = "897F30B6-1700-43C7-9C60-A606C7C7F267";
layerId = "02575D39-7864-4EEF-9012-950E1A85E8A1";
name = public.background;
shapes = (
{
closed = 1;
nodes = (
(154,0,l),
(154,740,l),
(84,740,l),
(84,0,l)
);
},
{
closed = 1;
nodes = (
(230,439,l),
(230,494,l),
(9,398,l),
(9,343,l)
);
}
);
width = 299;
},
{
layerId = "BD1314B0-2F62-4F06-89D3-8B766BA843F0";
shapes = (
{
closed = 1;
nodes = (
(179,0,l),
(280,720,l),
(140,720,l),
(39,0,l)
);
},
{
closed = 1;
nodes = (
(301,375,l),
(317,493,l),
(27,400,l),
(12,283,l)
);
}
);
width = 289;
},
{
layerId = "897F30B6-1700-43C7-9C60-A606C7C7F267";
shapes = (
{
closed = 1;
nodes = (
(144,0,l),
(246,720,l),
(175,720,l),
(74,0,l)
);
},
{
closed = 1;
nodes = (
(283,439,l),
(290,494,l),
(55,398,l),
(47,343,l)
);
}
);
width = 289;
}
);
unicode = 322;
},
{
glyphname = ncommaaccent;
kernLeft = n;
kernRight = n;
lastChange = "2024-05-08 13:02:10 +0000";
layers = (
{
associatedMasterId = "897F30B6-1700-43C7-9C60-A606C7C7F267";
layerId = "02575D39-7864-4EEF-9012-950E1A85E8A1";
name = public.background;
shapes = (
{
closed = 1;
nodes = (
(275,-226,l),
(331,-226,o),
(365,-197,o),
(365,-119,cs),
(365,-100,o),
(362,-76,o),
(357,-52,c),
(278,-52,l),
(278,-121,l),
(321,-121,l),
(321,-135,ls),
(321,-171,o),
(308,-191,o),
(275,-191,c)
);
},
{
alignment = -1;
ref = n;
}
);
width = 618;
},
{
layerId = "BD1314B0-2F62-4F06-89D3-8B766BA843F0";
shapes = (
{
ref = n;
},
{
pos = (266,-166);
ref = commaaccentcomb;
}
);
width = 569;
},
{
layerId = "897F30B6-1700-43C7-9C60-A606C7C7F267";
shapes = (
{
ref = n;
},
{
pos = (189,-135);
ref = commaaccentcomb;
}
);
width = 569;
}
);
unicode = 326;
},
{
color = 4;
glyphname = eng;
kernLeft = n;
kernRight = n;
lastChange = "2024-08-30 10:55:37 +0000";
layers = (
{
anchors = (
{
name = bottom;
pos = (249,0);
},
{
name = top;
pos = (336,496);
}
);
layerId = "897F30B6-1700-43C7-9C60-A606C7C7F267";
shapes = (
{
closed = 1;
nodes = (
(319,-220,ls),
(406,-220,o),
(446,-189,o),
(458,-101,cs),
(512,293,ls),
(533,441,o),
(465,508,o),
(351,508,cs),
(277,508,o),
(208,472,o),
(167,410,c),
(179,496,l),
(109,496,l),
(39,0,l),
(109,0,l),
(145,257,ls),
(162,380,o),
(239,447,o),
(330,447,cs),
(416,447,o),
(456,394,o),
(441,285,cs),
(388,-98,ls),
(381,-151,o),
(368,-160,o),
(316,-160,cs),
(268,-160,l),
(260,-220,l)
);
}
);
width = 569;
},
{
anchors = (
{
name = bottom;
pos = (254,0);
},
{
name = top;
pos = (344,496);
}
);
layerId = "BD1314B0-2F62-4F06-89D3-8B766BA843F0";
shapes = (
{
closed = 1;
nodes = (
(312,-220,ls),
(420,-220,o),
(475,-194,o),
(493,-65,cs),
(540,273,ls),
(561,422,o),
(502,508,o),
(374,508,cs),
(301,508,o),
(242,477,o),
(204,426,c),
(214,496,l),
(75,496,l),
(5,0,l),
(144,0,l),
(181,262,l),
(197,340,o),
(254,390,o),
(320,390,cs),
(389,390,o),
(412,349,o),
(401,268,cs),
(355,-51,ls),
(349,-91,o),
(337,-101,o),
(294,-101,cs),
(248,-101,l),
(232,-220,l)
);
}
);
width = 569;
},
{
associatedMasterId = "897F30B6-1700-43C7-9C60-A606C7C7F267";
layerId = "9C519A68-6F23-42AB-BAB1-661142495BCA";
name = "30 Aug 24 at 12:54";
shapes = (
{
closed = 1;
nodes = (
(319,-220,ls),
(406,-220,o),
(446,-189,o),
(458,-101,cs),
(513,293,l),
(443,293,l),
(388,-98,ls),
(381,-151,o),
(368,-160,o),
(316,-160,cs),
(268,-160,l),
(260,-220,l)
);
},
{
alignment = -1;
ref = n;
}
);
width = 569;
},
{
associatedMasterId = "BD1314B0-2F62-4F06-89D3-8B766BA843F0";
layerId = "E3B04DD1-7B42-418E-969C-6C58714E1007";
name = "30 Aug 24 at 12:54";
shapes = (
{
closed = 1;
nodes = (
(312,-220,ls),
(420,-220,o),
(475,-193,o),
(493,-65,cs),
(540,273,l),
(402,273,l),
(355,-51,ls),
(349,-91,o),
(337,-101,o),
(294,-101,cs),
(248,-101,l),
(232,-220,l)
);
},
{
alignment = -1;
ref = n;
}
);
width = 569;
}
);
unicode = 331;
},
{
color = 4;
glyphname = oslash;
kernRight = oslash;
lastChange = "2024-05-09 20:05:48 +0000";
layers = (
{
associatedMasterId = "897F30B6-1700-43C7-9C60-A606C7C7F267";
layerId = "02575D39-7864-4EEF-9012-950E1A85E8A1";
name = public.background;
shapes = (
{
closed = 1;
nodes = (
(100,0,l),
(596,546,l),
(544,546,l),
(47,0,l)
);
}
);
width = 586;
},
{
layerId = "BD1314B0-2F62-4F06-89D3-8B766BA843F0";
shapes = (
{
closed = 1;
nodes = (
(393,-12,o),
(515,92,o),
(537,241,cs),
(560,397,o),
(461,508,o),
(314,508,cs),
(174,508,o),
(50,405,o),
(29,255,cs),
(7,99,o),
(106,-12,o),
(252,-12,cs)
);
},
{
closed = 1;
nodes = (
(90,0,l),
(586,496,l),
(478,496,l),
(-19,0,l)
);
},
{
closed = 1;
nodes = (
(191,96,o),
(145,144,o),
(159,241,cs),
(174,345,o),
(241,400,o),
(311,400,cs),
(375,400,o),
(422,353,o),
(408,255,cs),
(393,151,o),
(327,96,o),
(255,96,cs)
);
}
);
width = 567;
},
{
layerId = "897F30B6-1700-43C7-9C60-A606C7C7F267";
shapes = (
{
closed = 1;
nodes = (
(385,-12,o),
(507,89,o),
(530,248,cs),
(553,407,o),
(461,508,o),
(322,508,cs),
(183,508,o),
(60,407,o),
(38,248,cs),
(16,89,o),
(108,-12,o),
(247,-12,cs)
);
},
{
closed = 1;
nodes = (
(70,0,l),
(570,496,l),
(499,496,l),
(-2,0,l)
);
},
{
closed = 1;
nodes = (
(165,48,o),
(91,115,o),
(110,248,cs),
(129,381,o),
(223,448,o),
(313,448,cs),
(403,448,o),
(477,381,o),
(458,248,cs),
(439,115,o),
(345,48,o),
(255,48,cs)
);
}
);
width = 567;
}
);
unicode = 248;
},
{
color = 11;
glyphname = oe;
kernLeft = o;
kernRight = e;
lastChange = "2024-08-29 14:46:02 +0000";
layers = (
{
associatedMasterId = "897F30B6-1700-43C7-9C60-A606C7C7F267";
layerId = "02575D39-7864-4EEF-9012-950E1A85E8A1";
name = public.background;
shapes = (
{
closed = 1;
nodes = (
(399,-8,o),
(488,47,o),
(529,144,c),
(568,47,o),
(653,-8,o),
(760,-8,cs),
(897,-8,o),
(986,70,o),
(1011,173,c),
(937,173,l),
(917,100,o),
(854,51,o),
(760,51,cs),
(655,51,o),
(567,122,o),
(567,258,cs),
(567,286,ls),
(567,424,o),
(657,494,o),
(760,494,cs),
(861,494,o),
(953,429,o),
(950,298,c),
(540,298,l),
(540,248,l),
(1017,248,l),
(1020,267,o),
(1021,281,o),
(1021,302,cs),
(1021,440,o),
(924,554,o),
(763,554,cs),
(654,554,o),
(568,499,o),
(530,403,c),
(489,499,o),
(401,554,o),
(294,554,c),
(141,554,o),
(21,447,o),
(21,273,c),
(21,100,o),
(137,-8,o),
(292,-8,c)
);
},
{
closed = 1;
nodes = (
(188,51,o),
(92,123,o),
(92,273,c),
(92,423,o),
(189,494,o),
(293,494,c),
(397,494,o),
(495,423,o),
(495,273,c),
(495,123,o),
(395,51,o),
(292,51,c)
);
}
);
width = 1111;
},
{
background = {
shapes = (
{
closed = 1;
nodes = (
(319,-12,o),
(385,15,o),
(435,70,c),
(471,21,o),
(536,-12,o),
(620,-12,cs),
(742,-12,o),
(842,65,o),
(883,168,c),
(743,174,l),
(720,135,o),
(679,102,o),
(624,102,cs),
(561,102,o),
(520,142,o),
(524,210,c),
(896,210,l),
(900,227,o),
(904,244,o),
(905,254,cs),
(925,399,o),
(832,508,o),
(682,508,cs),
(603,508,o),
(532,480,o),
(479,424,c),
(446,474,o),
(388,508,o),
(308,508,cs),
(168,508,o),
(43,405,o),
(23,255,cs),
(2,99,o),
(100,-12,o),
(246,-12,cs)
);
},
{
closed = 1;
nodes = (
(193,109,o),
(150,152,o),
(163,241,cs),
(177,336,o),
(239,387,o),
(303,387,cs),
(362,387,o),
(404,344,o),
(391,255,cs),
(377,159,o),
(317,109,o),
(252,109,cs)
);
},
{
closed = 1;
nodes = (
(562,359,o),
(617,395,o),
(678,395,cs),
(736,395,o),
(774,359,o),
(769,302,c),
(540,295,l)
);
}
);
};
layerId = "BD1314B0-2F62-4F06-89D3-8B766BA843F0";
shapes = (
{
closed = 1;
nodes = (
(336,-12,o),
(416,21,o),
(465,78,c),
(506,12,o),
(571,-12,o),
(654,-12,cs),
(776,-12,o),
(868,53,o),
(916,171,c),
(772,171,l),
(749,122,o),
(699,102,o),
(662,102,cs),
(595,102,o),
(551,145,o),
(554,214,c),
(930,214,l),
(934,231,o),
(937,248,o),
(939,262,cs),
(959,403,o),
(865,508,o),
(712,508,cs),
(631,508,o),
(562,477,o),
(509,424,c),
(473,477,o),
(414,508,o),
(324,508,cs),
(175,508,o),
(43,401,o),
(21,248,cs),
(-1,95,o),
(100,-12,o),
(250,-12,cs)
);
},
{
closed = 1;
nodes = (
(200,109,o),
(153,152,o),
(167,248,cs),
(180,343,o),
(244,387,o),
(313,387,cs),
(382,387,o),
(428,334,o),
(416,248,cs),
(404,165,o),
(346,109,o),
(266,109,cs)
);
},
{
closed = 1;
nodes = (
(591,363,o),
(641,395,o),
(697,395,cs),
(761,395,o),
(803,356,o),
(799,298,c),
(570,298,l)
);
}
);
width = 960;
},
{
background = {
shapes = (
{
closed = 1;
nodes = (
(329,-12,o),
(410,33,o),
(461,110,c),
(489,33,o),
(556,-12,o),
(647,-12,cs),
(766,-12,o),
(852,62,o),
(890,161,c),
(823,161,l),
(792,91,o),
(733,48,o),
(656,48,cs),
(575,48,o),
(502,108,o),
(514,233,c),
(906,233,l),
(910,252,o),
(911,265,o),
(913,279,cs),
(930,398,o),
(863,508,o),
(723,508,cs),
(630,508,o),
(548,463,o),
(499,387,c),
(471,464,o),
(404,508,o),
(316,508,cs),
(181,508,o),
(58,407,o),
(36,248,cs),
(14,89,o),
(105,-12,o),
(240,-12,cs)
);
},
{
closed = 1;
nodes = (
(163,48,o),
(89,115,o),
(108,248,cs),
(127,381,o),
(220,448,o),
(307,448,cs),
(393,448,o),
(467,381,o),
(448,248,cs),
(429,115,o),
(336,48,o),
(249,48,cs)
);
},
{
closed = 1;
nodes = (
(523,293,l),
(546,394,o),
(627,448,o),
(711,448,cs),
(799,448,o),
(857,390,o),
(847,293,c)
);
}
);
};
layerId = "897F30B6-1700-43C7-9C60-A606C7C7F267";
shapes = (
{
closed = 1;
nodes = (
(334,-14,o),
(412,31,o),
(461,108,c),
(490,31,o),
(558,-14,o),
(647,-14,cs),
(764,-14,o),
(852,61,o),
(889,161,c),
(822,161,l),
(790,90,o),
(731,46,o),
(656,46,cs),
(576,46,o),
(502,106,o),
(515,232,c),
(906,232,l),
(908,247,o),
(911,264,o),
(913,279,cs),
(930,397,o),
(861,506,o),
(722,506,cs),
(628,506,o),
(549,459,o),
(499,385,c),
(473,460,o),
(408,506,o),
(318,506,cs),
(182,506,o),
(59,405,o),
(36,246,cs),
(13,87,o),
(107,-14,o),
(243,-14,cs)
);
},
{
closed = 1;
nodes = (
(164,46,o),
(89,113,o),
(108,246,cs),
(127,379,o),
(222,446,o),
(309,446,cs),
(399,446,o),
(467,379,o),
(448,246,cs),
(429,113,o),
(342,46,o),
(251,46,cs)
);
},
{
closed = 1;
nodes = (
(546,394,o),
(626,448,o),
(711,448,cs),
(796,448,o),
(857,390,o),
(846,292,c),
(524,292,l)
);
}
);
width = 960;
},
{
associatedMasterId = "BD1314B0-2F62-4F06-89D3-8B766BA843F0";
background = {
shapes = (
{
closed = 1;
nodes = (
(328,-12,o),
(398,18,o),
(448,70,c),
(488,18,o),
(553,-12,o),
(638,-12,cs),
(767,-12,o),
(875,68,o),
(916,171,c),
(772,171,l),
(749,132,o),
(707,102,o),
(653,102,cs),
(585,102,o),
(541,145,o),
(544,214,c),
(930,214,l),
(934,231,o),
(937,248,o),
(939,262,cs),
(959,403,o),
(865,508,o),
(712,508,cs),
(627,508,o),
(552,477,o),
(499,424,c),
(463,477,o),
(404,508,o),
(324,508,cs),
(175,508,o),
(43,401,o),
(21,248,cs),
(-1,95,o),
(100,-12,o),
(250,-12,cs)
);
},
{
closed = 1;
nodes = (
(202,109,o),
(154,156,o),
(167,248,cs),
(180,340,o),
(243,387,o),
(307,387,cs),
(371,387,o),
(419,340,o),
(406,248,cs),
(393,156,o),
(331,109,o),
(267,109,cs)
);
},
{
closed = 1;
nodes = (
(560,298,l),
(581,363,o),
(637,395,o),
(697,395,cs),
(761,395,o),
(803,356,o),
(799,298,c)
);
}
);
};
layerId = "9B806BF0-D1E1-4AE3-8FBA-2FC1399A9B92";
name = "7 May 24 at 16:09";
shapes = (
{
closed = 1;
nodes = (
(319,-12,o),
(385,15,o),
(435,70,c),
(471,21,o),
(536,-12,o),
(620,-12,cs),
(742,-12,o),
(842,65,o),
(883,168,c),
(743,174,l),
(720,135,o),
(679,102,o),
(624,102,cs),
(561,102,o),
(520,142,o),
(524,210,c),
(896,210,l),
(900,227,o),
(904,244,o),
(905,254,cs),
(925,399,o),
(832,508,o),
(682,508,cs),
(603,508,o),
(532,480,o),
(479,424,c),
(446,474,o),
(388,508,o),
(308,508,cs),
(168,508,o),
(43,405,o),
(23,255,cs),
(2,99,o),
(100,-12,o),
(246,-12,cs)
);
},
{
closed = 1;
nodes = (
(193,109,o),
(150,152,o),
(163,241,cs),
(177,336,o),
(239,387,o),
(303,387,cs),
(362,387,o),
(404,344,o),
(391,255,cs),
(377,159,o),
(317,109,o),
(252,109,cs)
);
},
{
closed = 1;
nodes = (
(562,359,o),
(617,395,o),
(678,395,cs),
(736,395,o),
(774,359,o),
(769,302,c),
(540,295,l)
);
}
);
width = 960;
}
);
unicode = 339;
},
{
color = 4;
glyphname = thorn;
kernRight = o;
lastChange = "2024-05-09 20:05:48 +0000";
layers = (
{
associatedMasterId = "897F30B6-1700-43C7-9C60-A606C7C7F267";
layerId = "02575D39-7864-4EEF-9012-950E1A85E8A1";
name = public.background;
shapes = (
{
closed = 1;
nodes = (
(139,-258,l),
(139,136,l),
(171,53,o),
(247,-8,o),
(356,-8,c),
(505,-8,o),
(616,103,o),
(616,274,c),
(616,445,o),
(505,554,o),
(356,554,c),
(247,554,o),
(171,494,o),
(139,412,c),
(139,740,l),
(70,740,l),
(70,-258,l)
);
},
{
closed = 1;
nodes = (
(231,53,o),
(139,137,o),
(139,273,c),
(139,409,o),
(231,493,o),
(342,493,c),
(457,493,o),
(545,413,o),
(545,274,c),
(545,136,o),
(457,53,o),
(342,53,c)
);
}
);
width = 659;
},
{
layerId = "BD1314B0-2F62-4F06-89D3-8B766BA843F0";
shapes = (
{
closed = 1;
nodes = (
(118,-220,l),
(160,67,l),
(187,19,o),
(239,-12,o),
(315,-12,cs),
(451,-12,o),
(568,94,o),
(588,240,cs),
(609,393,o),
(517,508,o),
(377,508,cs),
(298,508,o),
(245,474,o),
(208,431,c),
(251,720,l),
(110,720,l),
(-22,-220,l)
);
},
{
closed = 1;
nodes = (
(212,110,o),
(169,165,o),
(179,241,cs),
(190,323,o),
(257,386,o),
(338,386,cs),
(413,386,o),
(459,331,o),
(447,254,cs),
(434,172,o),
(368,110,o),
(287,110,cs)
);
}
);
width = 605;
},
{
layerId = "897F30B6-1700-43C7-9C60-A606C7C7F267";
shapes = (
{
closed = 1;
nodes = (
(67,-220,l),
(110,87,l),
(135,25,o),
(198,-12,o),
(282,-12,cs),
(433,-12,o),
(544,97,o),
(565,247,cs),
(586,397,o),
(506,508,o),
(356,508,cs),
(262,508,o),
(195,460,o),
(155,410,c),
(199,720,l),
(129,720,l),
(-3,-220,l)
);
},
{
closed = 1;
nodes = (
(182,49,o),
(119,128,o),
(136,248,cs),
(153,368,o),
(238,447,o),
(344,447,cs),
(449,447,o),
(511,368,o),
(495,248,cs),
(479,128,o),
(393,49,o),
(287,49,cs)
);
}
);
width = 605;
}
);
unicode = 254;
},
{
glyphname = rcommaaccent;
kernLeft = r;
kernRight = r;
lastChange = "2024-05-08 13:02:10 +0000";
layers = (
{
associatedMasterId = "897F30B6-1700-43C7-9C60-A606C7C7F267";
layerId = "02575D39-7864-4EEF-9012-950E1A85E8A1";
name = public.background;
shapes = (
{
closed = 1;
nodes = (
(69,-226,l),
(126,-226,o),
(159,-197,o),
(159,-119,cs),
(159,-100,o),
(157,-76,o),
(151,-52,c),
(72,-52,l),
(72,-121,l),
(115,-121,l),
(115,-135,ls),
(115,-171,o),
(102,-191,o),
(69,-191,c)
);
},
{
alignment = -1;
ref = r;
}
);
width = 353;
},
{
layerId = "BD1314B0-2F62-4F06-89D3-8B766BA843F0";
shapes = (
{
ref = r;
},
{
pos = (86,-166);
ref = commaaccentcomb;
}
);
width = 381;
},
{
layerId = "897F30B6-1700-43C7-9C60-A606C7C7F267";
shapes = (
{
ref = r;
},
{
pos = (16,-135);
ref = commaaccentcomb;
}
);
width = 381;
}
);
unicode = 343;
},
{
glyphname = scommaaccent;
kernLeft = s;
kernRight = s;
lastChange = "2024-05-08 13:02:10 +0000";
layers = (
{
associatedMasterId = "897F30B6-1700-43C7-9C60-A606C7C7F267";
layerId = "02575D39-7864-4EEF-9012-950E1A85E8A1";
name = public.background;
shapes = (
{
closed = 1;
nodes = (
(221,-226,l),
(277,-226,o),
(311,-197,o),
(311,-119,cs),
(311,-100,o),
(308,-76,o),
(303,-52,c),
(224,-52,l),
(224,-121,l),
(267,-121,l),
(267,-135,ls),
(267,-171,o),
(254,-191,o),
(221,-191,c)
);
},
{
alignment = -1;
ref = s;
}
);
width = 532;
},
{
layerId = "BD1314B0-2F62-4F06-89D3-8B766BA843F0";
shapes = (
{
ref = s;
},
{
pos = (223,-166);
ref = commaaccentcomb;
}
);
width = 495;
},
{
layerId = "897F30B6-1700-43C7-9C60-A606C7C7F267";
shapes = (
{
ref = s;
},
{
pos = (150,-135);
ref = commaaccentcomb;
}
);
width = 495;
}
);
unicode = 537;
},
{
color = 8;
glyphname = germandbls;
kernRight = B;
lastChange = "2024-05-09 20:05:48 +0000";
layers = (
{
associatedMasterId = "897F30B6-1700-43C7-9C60-A606C7C7F267";
layerId = "02575D39-7864-4EEF-9012-950E1A85E8A1";
name = public.background;
shapes = (
{
closed = 1;
nodes = (
(543,-10,o),
(610,54,o),
(610,147,cs),
(610,222,o),
(570,271,o),
(474,302,cs),
(381,332,o),
(357,352,o),
(357,385,cs),
(357,453,o),
(503,486,o),
(503,609,cs),
(503,695,o),
(430,768,o),
(295,768,cs),
(146,768,o),
(72,679,o),
(72,560,cs),
(72,0,l),
(142,0,l),
(142,552,ls),
(142,649,o),
(190,709,o),
(294,709,cs),
(380,709,o),
(433,668,o),
(433,604,cs),
(433,509,o),
(286,479,o),
(286,376,cs),
(286,316,o),
(327,284,o),
(432,249,cs),
(509,224,o),
(538,195,o),
(538,142,cs),
(538,83,o),
(498,47,o),
(430,47,cs),
(355,47,o),
(309,95,o),
(303,167,c),
(232,167,l),
(242,57,o),
(319,-10,o),
(430,-10,cs)
);
}
);
width = 719;
},
{
layerId = "BD1314B0-2F62-4F06-89D3-8B766BA843F0";
shapes = (
{
closed = 1;
nodes = (
(145,0,l),
(214,489,ls),
(222,551,o),
(260,594,o),
(327,594,cs),
(384,594,o),
(418,568,o),
(418,527,cs),
(418,460,o),
(363,425,o),
(283,425,cs),
(267,425,l),
(253,318,l),
(296,318,ls),
(390,318,o),
(418,281,o),
(418,233,cs),
(418,182,o),
(393,116,o),
(291,116,cs),
(213,116,l),
(197,0,l),
(307,0,ls),
(483,0,o),
(561,123,o),
(561,243,cs),
(561,331,o),
(506,384,o),
(412,402,c),
(409,375,l),
(498,403,o),
(558,467,o),
(558,552,cs),
(558,637,o),
(490,712,o),
(354,712,cs),
(194,712,o),
(94,633,o),
(75,499,cs),
(5,0,l)
);
}
);
width = 579;
},
{
layerId = "897F30B6-1700-43C7-9C60-A606C7C7F267";
shapes = (
{
closed = 1;
nodes = (
(109,0,l),
(180,505,ls),
(193,601,o),
(259,650,o),
(336,650,cs),
(415,650,o),
(456,609,o),
(456,549,cs),
(456,468,o),
(392,411,o),
(285,411,cs),
(242,411,l),
(233,350,l),
(288,350,ls),
(403,350,o),
(465,304,o),
(465,224,cs),
(465,104,o),
(382,61,o),
(264,61,cs),
(182,61,l),
(173,0,l),
(280,0,ls),
(445,0,o),
(537,92,o),
(537,227,cs),
(537,306,o),
(490,375,o),
(361,400,c),
(389,385,l),
(482,407,o),
(530,481,o),
(530,559,cs),
(530,634,o),
(479,712,o),
(345,712,cs),
(228,712,o),
(128,633,o),
(113,524,cs),
(39,0,l)
);
}
);
width = 579;
},
{
associatedMasterId = "897F30B6-1700-43C7-9C60-A606C7C7F267";
layerId = "BFF2115A-0488-4902-8433-65FD85E85E6D";
name = "19 Apr 24 at 16:01";
shapes = (
{
closed = 1;
nodes = (
(464,405,o),
(509,473,o),
(518,540,cs),
(532,634,o),
(460,712,o),
(346,712,cs),
(229,712,o),
(128,633,o),
(113,524,cs),
(39,0,l),
(109,0,l),
(180,505,ls),
(194,601,o),
(260,650,o),
(337,650,cs),
(408,650,o),
(455,602,o),
(446,536,cs),
(435,459,o),
(372,411,o),
(285,411,cs),
(242,411,l),
(234,350,l),
(281,350,ls),
(409,350,o),
(466,294,o),
(453,204,cs),
(441,116,o),
(366,54,o),
(269,54,cs),
(234,54,o),
(206,58,o),
(182,64,c),
(174,3,l),
(197,-3,o),
(230,-7,o),
(268,-7,cs),
(405,-7,o),
(507,90,o),
(523,206,cs),
(539,316,o),
(477,396,o),
(358,410,c),
(380,385,l)
);
}
);
width = 579;
},
{
associatedMasterId = "BD1314B0-2F62-4F06-89D3-8B766BA843F0";
layerId = "59D756DE-39CC-4EEA-A8F0-C7196D11C1EC";
name = "19 Apr 24 at 16:01";
shapes = (
{
closed = 1;
nodes = (
(496,388,o),
(547,444,o),
(558,524,cs),
(571,614,o),
(510,712,o),
(342,712,cs),
(197,712,o),
(97,633,o),
(78,499,cs),
(8,0,l),
(148,0,l),
(217,489,ls),
(225,551,o),
(253,594,o),
(325,594,cs),
(387,594,o),
(423,561,o),
(416,513,cs),
(408,455,o),
(358,425,o),
(286,425,cs),
(270,425,l),
(256,318,l),
(299,318,ls),
(423,318,o),
(449,263,o),
(442,213,cs),
(435,165,o),
(406,106,o),
(306,106,cs),
(266,106,o),
(240,112,o),
(216,118,c),
(201,7,l),
(225,-6,o),
(265,-12,o),
(308,-12,cs),
(431,-12,o),
(552,70,o),
(571,209,cs),
(587,318,o),
(526,382,o),
(415,402,c),
(425,369,l)
);
}
);
width = 579;
}
);
unicode = 223;
},
{
color = 4;
glyphname = tcaron;
kernLeft = t;
lastChange = "2024-09-01 14:18:35 +0000";
layers = (
{
associatedMasterId = "897F30B6-1700-43C7-9C60-A606C7C7F267";
layerId = "02575D39-7864-4EEF-9012-950E1A85E8A1";
name = public.background;
shapes = (
{
closed = 1;
nodes = (
(243,591,l),
(301,591,o),
(334,616,o),
(334,683,cs),
(334,708,o),
(331,730,o),
(325,763,c),
(244,763,l),
(244,687,l),
(290,687,l),
(290,665,ls),
(290,640,o),
(277,627,o),
(243,627,c)
);
},
{
alignment = -1;
ref = t;
}
);
width = 416;
},
{
background = {
shapes = (
{
closed = 1;
nodes = (
(416,571,o),
(464,623,o),
(476,708,cs),
(491,816,l),
(358,816,l),
(343,707,l),
(401,707,l),
(398,689,ls),
(393,647,o),
(374,627,o),
(340,627,c),
(332,571,l)
);
}
);
};
layerId = "BD1314B0-2F62-4F06-89D3-8B766BA843F0";
shapes = (
{
ref = t;
},
{
pos = (237,76);
ref = caroncomb.alt;
}
);
width = 355;
},
{
background = {
shapes = (
{
closed = 1;
nodes = (
(385,575,o),
(422,604,o),
(433,678,cs),
(445,763,l),
(355,763,l),
(344,687,l),
(390,687,l),
(386,662,ls),
(382,629,o),
(366,611,o),
(332,611,c),
(327,575,l)
);
}
);
};
layerId = "897F30B6-1700-43C7-9C60-A606C7C7F267";
shapes = (
{
ref = t;
},
{
pos = (190,23);
ref = caroncomb.alt;
}
);
width = 355;
}
);
unicode = 357;
},
{
glyphname = tcedilla;
kernLeft = t;
kernRight = t;
lastChange = "2024-05-08 13:02:11 +0000";
layers = (
{
associatedMasterId = "897F30B6-1700-43C7-9C60-A606C7C7F267";
layerId = "02575D39-7864-4EEF-9012-950E1A85E8A1";
name = public.background;
shapes = (
{
closed = 1;
nodes = (
(331,0,l),
(331,60,l),
(267,60,ls),
(204,60,o),
(181,81,o),
(181,148,cs),
(181,683,l),
(110,683,l),
(110,148,ls),
(110,39,o),
(161,0,o),
(256,0,cs)
);
},
{
closed = 1;
nodes = (
(247,-258,ls),
(317,-258,o),
(364,-220,o),
(364,-160,cs),
(364,-98,o),
(314,-65,o),
(236,-67,c),
(236,35,l),
(186,35,l),
(186,-112,l),
(233,-112,ls),
(283,-112,o),
(304,-129,o),
(304,-160,cs),
(304,-194,o),
(283,-211,o),
(233,-211,cs),
(147,-211,l),
(147,-258,l)
);
},
{
closed = 1;
nodes = (
(331,487,l),
(331,546,l),
(34,546,l),
(34,487,l)
);
},
{
alignment = -1;
ref = t;
}
);
width = 416;
},
{
layerId = "BD1314B0-2F62-4F06-89D3-8B766BA843F0";
shapes = (
{
ref = t;
},
{
pos = (215,-3);
ref = cedillacomb;
}
);
width = 355;
},
{
layerId = "897F30B6-1700-43C7-9C60-A606C7C7F267";
shapes = (
{
ref = t;
},
{
pos = (103,0);
ref = cedillacomb;
}
);
width = 355;
}
);
unicode = 355;
},
{
glyphname = tcommaaccent;
kernLeft = t;
kernRight = t;
lastChange = "2024-05-08 13:02:11 +0000";
layers = (
{
associatedMasterId = "897F30B6-1700-43C7-9C60-A606C7C7F267";
layerId = "02575D39-7864-4EEF-9012-950E1A85E8A1";
name = public.background;
shapes = (
{
closed = 1;
nodes = (
(34,-226,l),
(90,-226,o),
(124,-197,o),
(124,-119,cs),
(124,-100,o),
(122,-76,o),
(116,-52,c),
(37,-52,l),
(37,-121,l),
(80,-121,l),
(80,-135,ls),
(80,-171,o),
(67,-191,o),
(34,-191,c)
);
}
);
width = 200;
},
{
layerId = "BD1314B0-2F62-4F06-89D3-8B766BA843F0";
shapes = (
{
ref = t;
},
{
pos = (194,-166);
ref = commaaccentcomb;
}
);
width = 355;
},
{
layerId = "897F30B6-1700-43C7-9C60-A606C7C7F267";
shapes = (
{
ref = t;
},
{
pos = (125,-135);
ref = commaaccentcomb;
}
);
width = 355;
}
);
unicode = 539;
},
{
color = 8;
glyphname = dieresiscomb;
lastChange = "2024-08-29 08:01:23 +0000";
layers = (
{
associatedMasterId = "897F30B6-1700-43C7-9C60-A606C7C7F267";
layerId = "02575D39-7864-4EEF-9012-950E1A85E8A1";
name = public.background;
shapes = (
{
closed = 1;
nodes = (
(71,623,o),
(92,644,o),
(92,669,cs),
(92,694,o),
(71,715,o),
(46,715,cs),
(20,715,o),
(0,694,o),
(0,669,cs),
(0,644,o),
(20,623,o),
(46,623,cs)
);
},
{
closed = 1;
nodes = (
(225,623,o),
(245,644,o),
(245,669,cs),
(245,694,o),
(225,715,o),
(200,715,cs),
(174,715,o),
(154,694,o),
(154,669,cs),
(154,644,o),
(174,623,o),
(200,623,cs)
);
}
);
width = 316;
},
{
anchors = (
{
name = _top;
pos = (35,496);
}
);
layerId = "BD1314B0-2F62-4F06-89D3-8B766BA843F0";
shapes = (
{
closed = 1;
nodes = (
(16,575,l),
(34,705,l),
(-90,705,l),
(-108,575,l)
);
},
{
closed = 1;
nodes = (
(199,575,l),
(217,705,l),
(93,705,l),
(75,575,l)
);
}
);
width = 0;
},
{
anchors = (
{
name = _top;
pos = (36,496);
}
);
layerId = "897F30B6-1700-43C7-9C60-A606C7C7F267";
shapes = (
{
closed = 1;
nodes = (
(23,597,l),
(37,700,l),
(-59,700,l),
(-73,597,l)
);
},
{
closed = 1;
nodes = (
(172,597,l),
(186,700,l),
(90,700,l),
(76,597,l)
);
}
);
width = 0;
},
{
anchors = (
{
name = _top;
pos = (193,496);
}
);
associatedMasterId = "BD1314B0-2F62-4F06-89D3-8B766BA843F0";
layerId = "50958C3A-B8FA-483C-AE76-624582ED54CC";
name = "28 Jan 23, 22:59";
shapes = (
{
closed = 1;
nodes = (
(46,564,l),
(175,564,l),
(197,720,l),
(67,720,l)
);
},
{
closed = 1;
nodes = (
(231,564,l),
(361,564,l),
(383,720,l),
(253,720,l)
);
}
);
width = 316;
},
{
anchors = (
{
name = _top;
pos = (157,496);
}
);
associatedMasterId = "897F30B6-1700-43C7-9C60-A606C7C7F267";
layerId = "1A205F0B-A2B3-4C2B-A69A-120983CA3A0D";
name = "28 Jan 23, 22:59";
shapes = (
{
closed = 1;
nodes = (
(52,620,l),
(148,620,l),
(163,723,l),
(67,723,l)
);
},
{
closed = 1;
nodes = (
(201,620,l),
(297,620,l),
(312,723,l),
(216,723,l)
);
}
);
width = 245;
}
);
unicode = 776;
},
{
color = 8;
glyphname = dotaccentcomb;
lastChange = "2024-10-09 14:19:19 +0000";
layers = (
{
associatedMasterId = "897F30B6-1700-43C7-9C60-A606C7C7F267";
layerId = "02575D39-7864-4EEF-9012-950E1A85E8A1";
name = public.background;
shapes = (
{
closed = 1;
nodes = (
(71,623,o),
(92,644,o),
(92,669,cs),
(92,694,o),
(71,715,o),
(46,715,cs),
(21,715,o),
(0,694,o),
(0,669,cs),
(0,644,o),
(21,623,o),
(46,623,cs)
);
}
);
width = 130;
},
{
anchors = (
{
name = _top;
pos = (110,496);
}
);
layerId = "BD1314B0-2F62-4F06-89D3-8B766BA843F0";
shapes = (
{
closed = 1;
nodes = (
(186,575,l),
(204,705,l),
(74,705,l),
(56,575,l)
);
}
);
width = 150;
},
{
anchors = (
{
name = _top;
pos = (117,496);
}
);
layerId = "897F30B6-1700-43C7-9C60-A606C7C7F267";
shapes = (
{
closed = 1;
nodes = (
(181,597,l),
(195,700,l),
(94,700,l),
(80,597,l)
);
}
);
width = 0;
},
{
anchors = (
{
name = _top;
pos = (100,496);
}
);
associatedMasterId = "BD1314B0-2F62-4F06-89D3-8B766BA843F0";
layerId = "7492DC90-AD22-4F32-B500-B580B99457B2";
name = "28 Jan 23, 22:59";
shapes = (
{
closed = 1;
nodes = (
(174,560,l),
(192,690,l),
(63,690,l),
(44,560,l)
);
}
);
width = 130;
},
{
anchors = (
{
name = _top;
pos = (81,496);
}
);
associatedMasterId = "897F30B6-1700-43C7-9C60-A606C7C7F267";
layerId = "CCADB098-2576-469C-AD01-66DC17919C0F";
name = "28 Jan 23, 22:59";
shapes = (
{
closed = 1;
nodes = (
(137,562,l),
(149,655,l),
(57,655,l),
(45,562,l)
);
}
);
width = 92;
}
);
unicode = 775;
},
{
color = 8;
glyphname = gravecomb;
lastChange = "2024-09-01 14:27:10 +0000";
layers = (
{
associatedMasterId = "897F30B6-1700-43C7-9C60-A606C7C7F267";
layerId = "02575D39-7864-4EEF-9012-950E1A85E8A1";
name = public.background;
shapes = (
{
closed = 1;
nodes = (
(205,642,l),
(0,770,l),
(0,707,l),
(205,588,l)
);
}
);
width = 230;
},
{
anchors = (
{
name = _top;
pos = (34,496);
}
);
layerId = "BD1314B0-2F62-4F06-89D3-8B766BA843F0";
shapes = (
{
closed = 1;
nodes = (
(73,555,l),
(-17,753,l),
(-148,753,l),
(-25,555,l)
);
}
);
width = 0;
},
{
anchors = (
{
name = _top;
pos = (34,496);
}
);
layerId = "897F30B6-1700-43C7-9C60-A606C7C7F267";
shapes = (
{
closed = 1;
nodes = (
(49,558,l),
(-48,737,l),
(-125,737,l),
(-5,558,l)
);
}
);
width = 0;
},
{
anchors = (
{
name = _top;
pos = (214,496);
}
);
associatedMasterId = "BD1314B0-2F62-4F06-89D3-8B766BA843F0";
layerId = "622C0FDC-00A9-4ACC-9C78-B0A530A89390";
name = "28 Jan 23, 22:59";
shapes = (
{
closed = 1;
nodes = (
(284,634,l),
(71,753,l),
(57,642,l),
(271,535,l)
);
}
);
width = 230;
},
{
anchors = (
{
name = _top;
pos = (197,496);
}
);
associatedMasterId = "897F30B6-1700-43C7-9C60-A606C7C7F267";
layerId = "6A51AE82-2C5D-454B-859F-A50FCC29C9A0";
name = "28 Jan 23, 22:59";
shapes = (
{
closed = 1;
nodes = (
(256,612,l),
(69,740,l),
(57,657,l),
(246,537,l)
);
}
);
width = 205;
},
{
anchors = (
{
name = _top;
pos = (227,496);
}
);
associatedMasterId = "897F30B6-1700-43C7-9C60-A606C7C7F267";
layerId = "7AB977C9-DA8A-4E4C-9E09-22B3E95CD762";
name = "1 Sep 24 at 16:26";
shapes = (
{
closed = 1;
nodes = (
(286,612,l),
(99,740,l),
(88,657,l),
(276,538,l)
);
}
);
width = 0;
},
{
anchors = (
{
name = _top;
pos = (36,496);
}
);
associatedMasterId = "BD1314B0-2F62-4F06-89D3-8B766BA843F0";
layerId = "07EE3075-96AE-4793-9E89-E4834727147A";
name = "1 Sep 24 at 16:26";
shapes = (
{
closed = 1;
nodes = (
(107,634,l),
(-107,753,l),
(-122,642,l),
(93,535,l)
);
}
);
width = 0;
}
);
unicode = 768;
},
{
color = 8;
glyphname = acutecomb;
lastChange = "2024-09-01 14:29:05 +0000";
layers = (
{
associatedMasterId = "897F30B6-1700-43C7-9C60-A606C7C7F267";
layerId = "02575D39-7864-4EEF-9012-950E1A85E8A1";
name = public.background;
shapes = (
{
closed = 1;
nodes = (
(205,707,l),
(205,770,l),
(0,642,l),
(0,588,l)
);
}
);
width = 230;
},
{
anchors = (
{
name = _top;
pos = (35,496);
}
);
layerId = "BD1314B0-2F62-4F06-89D3-8B766BA843F0";
shapes = (
{
closed = 1;
nodes = (
(94,555,l),
(217,753,l),
(86,753,l),
(-4,555,l)
);
}
);
width = 0;
},
{
anchors = (
{
name = _top;
pos = (35,496);
}
);
layerId = "897F30B6-1700-43C7-9C60-A606C7C7F267";
shapes = (
{
closed = 1;
nodes = (
(74,558,l),
(194,737,l),
(117,737,l),
(20,558,l)
);
}
);
width = 0;
},
{
anchors = (
{
name = _top;
pos = (86,496);
}
);
associatedMasterId = "BD1314B0-2F62-4F06-89D3-8B766BA843F0";
layerId = "AED43135-8B5B-4B29-A4D1-B6CE3155D1E3";
name = "28 Jan 23, 22:59";
shapes = (
{
closed = 1;
nodes = (
(286,642,l),
(300,753,l),
(55,634,l),
(41,535,l)
);
}
);
width = 230;
},
{
anchors = (
{
name = _top;
pos = (78,496);
}
);
associatedMasterId = "897F30B6-1700-43C7-9C60-A606C7C7F267";
layerId = "8F77ED23-425A-4D65-B166-D0879FD5DD4B";
name = "28 Jan 23, 22:59";
shapes = (
{
closed = 1;
nodes = (
(262,657,l),
(274,740,l),
(51,612,l),
(41,537,l)
);
}
);
width = 205;
},
{
anchors = (
{
name = _top;
pos = (108,496);
}
);
associatedMasterId = "897F30B6-1700-43C7-9C60-A606C7C7F267";
layerId = "F13DEC56-3180-46B7-954D-E8853697EC54";
name = "1 Sep 24 at 16:28";
shapes = (
{
closed = 1;
nodes = (
(293,657,l),
(304,740,l),
(81,612,l),
(71,538,l)
);
}
);
width = 0;
},
{
anchors = (
{
name = _top;
pos = (35,496);
}
);
associatedMasterId = "BD1314B0-2F62-4F06-89D3-8B766BA843F0";
layerId = "B2D3ABF9-785B-494E-A7B7-32FB0060A2D3";
name = "1 Sep 24 at 16:28";
shapes = (
{
closed = 1;
nodes = (
(235,642,l),
(250,753,l),
(4,634,l),
(-10,535,l)
);
}
);
width = 0;
}
);
unicode = 769;
},
{
color = 8;
glyphname = hungarumlautcomb;
lastChange = "2024-05-09 20:05:48 +0000";
layers = (
{
associatedMasterId = "897F30B6-1700-43C7-9C60-A606C7C7F267";
layerId = "02575D39-7864-4EEF-9012-950E1A85E8A1";
name = public.background;
shapes = (
{
closed = 1;
nodes = (
(186,601,l),
(270,740,l),
(207,740,l),
(138,601,l)
);
},
{
closed = 1;
nodes = (
(49,601,l),
(128,740,l),
(65,740,l),
(0,601,l)
);
}
);
width = 373;
},
{
anchors = (
{
name = _top;
pos = (37,496);
}
);
layerId = "BD1314B0-2F62-4F06-89D3-8B766BA843F0";
shapes = (
{
closed = 1;
nodes = (
(164,543,l),
(299,730,l),
(186,730,l),
(76,543,l)
);
},
{
closed = 1;
nodes = (
(-12,543,l),
(111,730,l),
(-2,730,l),
(-100,543,l)
);
}
);
width = 0;
},
{
anchors = (
{
name = _top;
pos = (168,496);
}
);
layerId = "897F30B6-1700-43C7-9C60-A606C7C7F267";
shapes = (
{
closed = 1;
nodes = (
(259,551,l),
(363,690,l),
(280,690,l),
(191,551,l)
);
},
{
closed = 1;
nodes = (
(142,551,l),
(241,690,l),
(158,690,l),
(73,551,l)
);
}
);
width = 0;
},
{
anchors = (
{
name = _top;
pos = (180,496);
}
);
associatedMasterId = "BD1314B0-2F62-4F06-89D3-8B766BA843F0";
layerId = "C713C8DC-C1AC-4F5E-A16F-3C48FC8E9736";
name = "28 Jan 23, 22:59";
shapes = (
{
closed = 1;
nodes = (
(307,543,l),
(442,730,l),
(328,730,l),
(217,543,l)
);
},
{
closed = 1;
nodes = (
(131,543,l),
(255,730,l),
(139,730,l),
(41,543,l)
);
}
);
width = 373;
},
{
anchors = (
{
name = _top;
pos = (137,496);
}
);
associatedMasterId = "897F30B6-1700-43C7-9C60-A606C7C7F267";
layerId = "405DF284-029A-4F49-9F5C-FED48B957390";
name = "28 Jan 23, 22:59";
shapes = (
{
closed = 1;
nodes = (
(229,551,l),
(333,690,l),
(250,690,l),
(161,551,l)
);
},
{
closed = 1;
nodes = (
(112,551,l),
(211,690,l),
(128,690,l),
(43,551,l)
);
}
);
width = 270;
}
);
unicode = 779;
},
{
color = 8;
glyphname = circumflexcomb;
lastChange = "2024-05-09 20:05:48 +0000";
layers = (
{
associatedMasterId = "897F30B6-1700-43C7-9C60-A606C7C7F267";
layerId = "02575D39-7864-4EEF-9012-950E1A85E8A1";
name = public.background;
shapes = (
{
closed = 1;
nodes = (
(134,688,l),
(268,604,l),
(268,661,l),
(134,743,l),
(0,661,l),
(0,604,l)
);
}
);
width = 297;
},
{
anchors = (
{
name = _top;
pos = (36,496);
}
);
layerId = "BD1314B0-2F62-4F06-89D3-8B766BA843F0";
shapes = (
{
closed = 1;
nodes = (
(54,623,l),
(190,540,l),
(204,639,l),
(68,719,l),
(-93,639,l),
(-107,540,l)
);
}
);
width = 0;
},
{
anchors = (
{
name = _top;
pos = (199,496);
}
);
layerId = "897F30B6-1700-43C7-9C60-A606C7C7F267";
shapes = (
{
closed = 1;
nodes = (
(219,638,l),
(341,554,l),
(352,631,l),
(229,713,l),
(84,631,l),
(73,554,l)
);
}
);
width = 0;
},
{
anchors = (
{
name = _top;
pos = (184,496);
}
);
associatedMasterId = "BD1314B0-2F62-4F06-89D3-8B766BA843F0";
layerId = "015C7E92-5956-4E4B-88E9-E52F83C6E97A";
name = "28 Jan 23, 22:59";
shapes = (
{
closed = 1;
nodes = (
(203,623,l),
(339,540,l),
(351,639,l),
(214,719,l),
(54,639,l),
(42,540,l)
);
}
);
width = 297;
},
{
anchors = (
{
name = _top;
pos = (169,496);
}
);
associatedMasterId = "897F30B6-1700-43C7-9C60-A606C7C7F267";
layerId = "C7195411-45EC-4142-835E-6A9CD1DA1CBF";
name = "28 Jan 23, 22:59";
shapes = (
{
closed = 1;
nodes = (
(189,637,l),
(312,554,l),
(323,631,l),
(200,712,l),
(55,631,l),
(43,554,l)
);
}
);
width = 268;
}
);
unicode = 770;
},
{
color = 8;
glyphname = caroncomb;
lastChange = "2024-05-09 20:05:48 +0000";
layers = (
{
associatedMasterId = "897F30B6-1700-43C7-9C60-A606C7C7F267";
layerId = "02575D39-7864-4EEF-9012-950E1A85E8A1";
name = public.background;
shapes = (
{
closed = 1;
nodes = (
(268,685,l),
(268,741,l),
(134,658,l),
(0,741,l),
(0,685,l),
(134,603,l)
);
}
);
width = 297;
},
{
anchors = (
{
name = _top;
pos = (35,496);
}
);
layerId = "BD1314B0-2F62-4F06-89D3-8B766BA843F0";
shapes = (
{
closed = 1;
nodes = (
(201,620,l),
(215,719,l),
(54,633,l),
(-82,719,l),
(-96,620,l),
(41,540,l)
);
}
);
width = 0;
},
{
anchors = (
{
name = _top;
pos = (199,496);
}
);
layerId = "897F30B6-1700-43C7-9C60-A606C7C7F267";
shapes = (
{
closed = 1;
nodes = (
(352,635,l),
(363,711,l),
(217,628,l),
(95,711,l),
(84,635,l),
(207,553,l)
);
}
);
width = 0;
},
{
anchors = (
{
name = _top;
pos = (184,496);
}
);
associatedMasterId = "BD1314B0-2F62-4F06-89D3-8B766BA843F0";
layerId = "BB83E501-9E11-4946-9568-59627714004C";
name = "28 Jan 23, 22:59";
shapes = (
{
closed = 1;
nodes = (
(350,620,l),
(363,719,l),
(202,633,l),
(66,719,l),
(53,620,l),
(192,540,l)
);
}
);
width = 297;
},
{
anchors = (
{
name = _top;
pos = (169,496);
}
);
associatedMasterId = "897F30B6-1700-43C7-9C60-A606C7C7F267";
layerId = "3F1E6CE1-53D2-4CA9-A44E-954F13AF0750";
name = "28 Jan 23, 22:59";
shapes = (
{
closed = 1;
nodes = (
(324,635,l),
(334,711,l),
(188,628,l),
(65,711,l),
(55,635,l),
(178,553,l)
);
}
);
width = 268;
}
);
unicode = 780;
},
{
color = 8;
glyphname = brevecomb;
lastChange = "2024-05-09 20:05:48 +0000";
layers = (
{
associatedMasterId = "897F30B6-1700-43C7-9C60-A606C7C7F267";
layerId = "02575D39-7864-4EEF-9012-950E1A85E8A1";
name = public.background;
shapes = (
{
closed = 1;
nodes = (
(225,606,o),
(271,662,o),
(271,729,cs),
(271,742,l),
(226,742,l),
(226,691,o),
(199,662,o),
(135,662,c),
(71,662,o),
(44,691,o),
(44,742,c),
(0,742,l),
(0,729,ls),
(0,662,o),
(45,606,o),
(135,606,c)
);
}
);
width = 320;
},
{
anchors = (
{
name = _top;
pos = (34,496);
}
);
layerId = "BD1314B0-2F62-4F06-89D3-8B766BA843F0";
shapes = (
{
closed = 1;
nodes = (
(138,543,o),
(213,601,o),
(224,700,cs),
(226,718,l),
(141,718,l),
(136,678,o),
(110,630,o),
(54,630,cs),
(-3,630,o),
(-15,678,o),
(-10,718,c),
(-94,718,l),
(-96,700,ls),
(-107,601,o),
(-55,543,o),
(42,543,cs)
);
}
);
width = 0;
},
{
anchors = (
{
name = _top;
pos = (201,496);
}
);
layerId = "897F30B6-1700-43C7-9C60-A606C7C7F267";
shapes = (
{
closed = 1;
nodes = (
(300,573,o),
(354,629,o),
(364,696,cs),
(366,709,l),
(311,709,l),
(304,664,o),
(275,629,o),
(218,629,cs),
(161,629,o),
(142,664,o),
(149,709,c),
(95,709,l),
(93,696,ls),
(83,629,o),
(120,573,o),
(210,573,cs)
);
}
);
width = 0;
},
{
anchors = (
{
name = _top;
pos = (194,496);
}
);
associatedMasterId = "BD1314B0-2F62-4F06-89D3-8B766BA843F0";
layerId = "0C617EDE-A13F-454F-B7BE-EA81071513A3";
name = "28 Jan 23, 22:59";
shapes = (
{
closed = 1;
nodes = (
(301,543,o),
(369,598,o),
(384,696,cs),
(387,718,l),
(303,722,l),
(296,681,o),
(267,630,o),
(208,630,cs),
(155,630,o),
(144,674,o),
(151,715,c),
(66,718,l),
(65,704,ls),
(51,606,o),
(108,543,o),
(208,543,cs)
);
}
);
width = 320;
},
{
anchors = (
{
name = _top;
pos = (170,496);
}
);
associatedMasterId = "897F30B6-1700-43C7-9C60-A606C7C7F267";
layerId = "3946A9EA-593C-473D-B41F-F83DE702D975";
name = "28 Jan 23, 22:59";
shapes = (
{
closed = 1;
nodes = (
(271,573,o),
(326,629,o),
(335,696,cs),
(336,709,l),
(282,709,l),
(276,664,o),
(246,629,o),
(189,629,cs),
(132,629,o),
(113,664,o),
(119,709,c),
(65,709,l),
(63,696,ls),
(54,629,o),
(91,573,o),
(181,573,cs)
);
}
);
width = 271;
}
);
unicode = 774;
},
{
color = 8;
glyphname = ringcomb;
lastChange = "2024-05-09 20:05:48 +0000";
layers = (
{
associatedMasterId = "897F30B6-1700-43C7-9C60-A606C7C7F267";
layerId = "02575D39-7864-4EEF-9012-950E1A85E8A1";
name = public.background;
shapes = (
{
closed = 1;
nodes = (
(159,610,o),
(204,648,o),
(204,710,cs),
(204,772,o),
(159,810,o),
(102,810,cs),
(47,810,o),
(0,772,o),
(0,710,cs),
(0,648,o),
(47,610,o),
(102,610,cs)
);
},
{
closed = 1;
nodes = (
(70,649,o),
(44,673,o),
(44,710,cs),
(44,748,o),
(70,771,o),
(102,771,cs),
(135,771,o),
(161,748,o),
(161,710,cs),
(161,673,o),
(135,649,o),
(102,649,cs)
);
}
);
width = 232;
},
{
anchors = (
{
name = _top;
pos = (35,496);
}
);
layerId = "BD1314B0-2F62-4F06-89D3-8B766BA843F0";
shapes = (
{
closed = 1;
nodes = (
(106,544,o),
(164,588,o),
(174,659,cs),
(184,730,o),
(138,773,o),
(74,773,cs),
(11,773,o),
(-48,730,o),
(-58,659,cs),
(-68,588,o),
(-21,544,o),
(42,544,cs)
);
},
{
closed = 1;
nodes = (
(26,611,o),
(8,630,o),
(12,659,cs),
(16,688,o),
(40,706,o),
(65,706,cs),
(91,706,o),
(108,688,o),
(104,659,cs),
(100,630,o),
(77,611,o),
(51,611,cs)
);
}
);
width = 0;
},
{
anchors = (
{
name = _top;
pos = (167,496);
}
);
layerId = "897F30B6-1700-43C7-9C60-A606C7C7F267";
shapes = (
{
closed = 1;
nodes = (
(233,560,o),
(283,598,o),
(292,660,cs),
(301,722,o),
(261,760,o),
(204,760,cs),
(149,760,o),
(97,722,o),
(88,660,cs),
(79,598,o),
(121,560,o),
(176,560,cs)
);
},
{
closed = 1;
nodes = (
(158,611,o),
(140,630,o),
(144,660,cs),
(148,690,o),
(172,709,o),
(197,709,cs),
(224,709,o),
(241,690,o),
(237,660,cs),
(233,630,o),
(210,611,o),
(183,611,cs)
);
}
);
width = 0;
},
{
anchors = (
{
name = _top;
pos = (151,496);
}
);
associatedMasterId = "BD1314B0-2F62-4F06-89D3-8B766BA843F0";
layerId = "5D5F5505-DEF2-427A-B041-6062862BC3EF";
name = "28 Jan 23, 22:59";
shapes = (
{
closed = 1;
nodes = (
(225,544,o),
(280,584,o),
(289,651,cs),
(299,726,o),
(251,773,o),
(184,773,cs),
(124,773,o),
(69,733,o),
(59,667,cs),
(48,592,o),
(98,544,o),
(164,544,cs)
);
},
{
closed = 1;
nodes = (
(136,606,o),
(118,623,o),
(122,651,cs),
(127,687,o),
(157,711,o),
(188,711,cs),
(214,711,o),
(231,695,o),
(226,667,cs),
(221,631,o),
(193,606,o),
(161,606,cs)
);
}
);
width = 232;
},
{
anchors = (
{
name = _top;
pos = (136,496);
}
);
associatedMasterId = "897F30B6-1700-43C7-9C60-A606C7C7F267";
layerId = "B9FE76CD-9598-4EDA-82FC-B9F46F6B6646";
name = "28 Jan 23, 22:59";
shapes = (
{
closed = 1;
nodes = (
(203,560,o),
(253,598,o),
(261,660,cs),
(271,722,o),
(231,760,o),
(174,760,cs),
(119,760,o),
(67,722,o),
(58,660,cs),
(49,598,o),
(91,560,o),
(146,560,cs)
);
},
{
closed = 1;
nodes = (
(128,611,o),
(109,630,o),
(113,660,cs),
(118,690,o),
(142,709,o),
(167,709,cs),
(194,709,o),
(211,690,o),
(207,660,cs),
(203,630,o),
(180,611,o),
(153,611,cs)
);
}
);
width = 204;
}
);
unicode = 778;
},
{
color = 8;
glyphname = tildecomb;
lastChange = "2024-05-09 20:05:48 +0000";
layers = (
{
associatedMasterId = "897F30B6-1700-43C7-9C60-A606C7C7F267";
layerId = "02575D39-7864-4EEF-9012-950E1A85E8A1";
name = public.background;
shapes = (
{
closed = 1;
nodes = (
(244,604,o),
(280,638,o),
(286,697,c),
(244,697,l),
(240,667,o),
(222,652,o),
(200,652,cs),
(157,652,o),
(140,699,o),
(88,699,cs),
(41,699,o),
(8,667,o),
(0,606,c),
(43,606,l),
(47,637,o),
(63,651,o),
(85,651,cs),
(126,651,o),
(144,604,o),
(197,604,cs)
);
}
);
width = 365;
},
{
anchors = (
{
name = _top;
pos = (35,496);
}
);
layerId = "BD1314B0-2F62-4F06-89D3-8B766BA843F0";
shapes = (
{
closed = 1;
nodes = (
(172,560,o),
(226,601,o),
(253,691,c),
(174,691,l),
(166,661,o),
(148,646,o),
(125,646,cs),
(84,646,o),
(63,692,o),
(-5,692,cs),
(-70,692,o),
(-109,660,o),
(-140,561,c),
(-62,561,l),
(-53,592,o),
(-35,606,o),
(-12,606,cs),
(28,606,o),
(49,560,o),
(115,560,cs)
);
}
);
width = 0;
},
{
anchors = (
{
name = _top;
pos = (30,496);
}
);
layerId = "897F30B6-1700-43C7-9C60-A606C7C7F267";
shapes = (
{
closed = 1;
nodes = (
(151,554,o),
(194,588,o),
(211,667,c),
(151,667,l),
(145,634,o),
(129,619,o),
(111,619,cs),
(80,619,o),
(59,664,o),
(7,664,cs),
(-40,664,o),
(-77,633,o),
(-97,556,c),
(-36,556,l),
(-30,586,o),
(-19,599,o),
(0,599,cs),
(33,599,o),
(50,554,o),
(108,554,cs)
);
}
);
width = 0;
},
{
anchors = (
{
name = _top;
pos = (214,496);
}
);
associatedMasterId = "BD1314B0-2F62-4F06-89D3-8B766BA843F0";
layerId = "6472ED7D-25BB-4E46-993C-CC7871D714EB";
name = "28 Jan 23, 22:59";
shapes = (
{
closed = 1;
nodes = (
(351,546,o),
(400,583,o),
(426,673,c),
(352,680,l),
(343,651,o),
(323,632,o),
(297,632,cs),
(259,632,o),
(238,678,o),
(178,678,cs),
(117,678,o),
(69,642,o),
(42,551,c),
(115,544,l),
(125,574,o),
(147,592,o),
(172,592,cs),
(209,592,o),
(230,546,o),
(290,546,cs)
);
}
);
width = 365;
},
{
anchors = (
{
name = _top;
pos = (167,496);
}
);
associatedMasterId = "897F30B6-1700-43C7-9C60-A606C7C7F267";
layerId = "DFAA4FDA-EBC0-4510-A468-1A72F0C28023";
name = "28 Jan 23, 22:59";
shapes = (
{
closed = 1;
nodes = (
(288,554,o),
(328,587,o),
(345,667,c),
(288,667,l),
(283,637,o),
(265,624,o),
(247,624,cs),
(220,624,o),
(199,669,o),
(147,669,cs),
(100,669,o),
(63,637,o),
(44,556,c),
(101,556,l),
(108,586,o),
(122,599,o),
(141,599,cs),
(166,599,o),
(188,554,o),
(240,554,cs)
);
}
);
width = 286;
}
);
unicode = 771;
},
{
color = 8;
glyphname = macroncomb;
lastChange = "2024-05-09 20:05:48 +0000";
layers = (
{
associatedMasterId = "897F30B6-1700-43C7-9C60-A606C7C7F267";
layerId = "02575D39-7864-4EEF-9012-950E1A85E8A1";
name = public.background;
shapes = (
{
closed = 1;
nodes = (
(339,646,l),
(339,700,l),
(0,700,l),
(0,646,l)
);
}
);
width = 381;
},
{
anchors = (
{
name = _top;
pos = (35,496);
}
);
layerId = "BD1314B0-2F62-4F06-89D3-8B766BA843F0";
shapes = (
{
closed = 1;
nodes = (
(236,575,l),
(250,674,l),
(-130,674,l),
(-144,575,l)
);
}
);
width = 0;
},
{
anchors = (
{
name = _top;
pos = (235,496);
}
);
layerId = "897F30B6-1700-43C7-9C60-A606C7C7F267";
shapes = (
{
closed = 1;
nodes = (
(418,596,l),
(428,670,l),
(89,670,l),
(79,596,l)
);
}
);
width = 0;
},
{
anchors = (
{
name = _top;
pos = (226,496);
}
);
associatedMasterId = "BD1314B0-2F62-4F06-89D3-8B766BA843F0";
layerId = "3F62AA9D-1E72-448E-BB61-548EB55052E8";
name = "28 Jan 23, 22:59";
shapes = (
{
closed = 1;
nodes = (
(427,575,l),
(441,674,l),
(60,674,l),
(46,575,l)
);
}
);
width = 381;
},
{
anchors = (
{
name = _top;
pos = (205,496);
}
);
associatedMasterId = "897F30B6-1700-43C7-9C60-A606C7C7F267";
layerId = "DF0BA990-E647-41E8-83CD-AEF1B09A6F95";
name = "28 Jan 23, 22:59";
shapes = (
{
closed = 1;
nodes = (
(388,596,l),
(398,670,l),
(60,670,l),
(49,596,l)
);
}
);
width = 339;
}
);
unicode = 772;
},
{
color = 8;
glyphname = commaturnedabovecomb;
lastChange = "2024-10-09 14:19:02 +0000";
layers = (
{
anchors = (
{
name = _top;
pos = (81,496);
},
{
name = top;
pos = (63,593);
}
);
layerId = "897F30B6-1700-43C7-9C60-A606C7C7F267";
shapes = (
{
closed = 1;
nodes = (
(103,750,o),
(66,721,o),
(56,648,cs),
(44,562,l),
(135,562,l),
(145,638,l),
(99,638,l),
(103,663,ls),
(108,697,o),
(122,715,o),
(156,715,c),
(161,750,l)
);
}
);
width = 91;
},
{
anchors = (
{
name = _top;
pos = (122,496);
},
{
name = top;
pos = (50,599);
}
);
layerId = "BD1314B0-2F62-4F06-89D3-8B766BA843F0";
shapes = (
{
closed = 1;
nodes = (
(180,805,o),
(126,759,o),
(105,684,cs),
(75,575,l),
(207,575,l),
(237,684,l),
(179,684,l),
(185,703,ls),
(194,734,o),
(215,749,o),
(249,749,c),
(264,805,l)
);
}
);
width = 196;
},
{
associatedMasterId = "BD1314B0-2F62-4F06-89D3-8B766BA843F0";
layerId = "4DC6EC72-E323-4588-B00E-6546AC2B897E";
name = "28 Jan 23, 22:59";
shapes = (
{
angle = 180;
pos = (230,496);
ref = commaaccentcomb;
}
);
width = 230;
},
{
associatedMasterId = "897F30B6-1700-43C7-9C60-A606C7C7F267";
layerId = "0615D212-A984-42B2-A1BA-66877CF5CF05";
name = "28 Jan 23, 22:59";
shapes = (
{
angle = 180;
pos = (230,496);
ref = commaaccentcomb;
}
);
width = 230;
}
);
unicode = 786;
},
{
color = 8;
glyphname = commaaccentcomb;
lastChange = "2024-05-09 20:05:48 +0000";
layers = (
{
anchors = (
{
name = _bottom;
pos = (60,135);
},
{
name = bottom;
pos = (28,-97);
}
);
layerId = "897F30B6-1700-43C7-9C60-A606C7C7F267";
shapes = (
{
closed = 1;
nodes = (
(40,-97,o),
(77,-68,o),
(87,5,cs),
(99,91,l),
(8,91,l),
(-2,15,l),
(44,15,l),
(40,-10,ls),
(35,-44,o),
(21,-62,o),
(-13,-62,c),
(-18,-97,l)
);
}
);
width = 0;
},
{
anchors = (
{
name = _bottom;
pos = (-12,166);
},
{
name = bottom;
pos = (-50,-103);
}
);
layerId = "BD1314B0-2F62-4F06-89D3-8B766BA843F0";
shapes = (
{
closed = 1;
nodes = (
(-25,-103,o),
(23,-57,o),
(33,18,cs),
(48,127,l),
(-84,127,l),
(-99,18,l),
(-41,18,l),
(-44,-1,ls),
(-49,-32,o),
(-67,-47,o),
(-101,-47,c),
(-109,-103,l)
);
}
);
width = 0;
},
{
associatedMasterId = "BD1314B0-2F62-4F06-89D3-8B766BA843F0";
layerId = "540DE9A3-7E47-407D-8F45-B04774A915D3";
name = "28 Jan 23, 22:59";
shapes = (
{
closed = 1;
nodes = (
(15,-128,l),
(99,-128,o),
(144,-80,o),
(156,4,cs),
(171,117,l),
(40,117,l),
(24,8,l),
(83,8,l),
(81,-7,ls),
(74,-48,o),
(51,-72,o),
(17,-72,c)
);
}
);
width = 230;
},
{
associatedMasterId = "897F30B6-1700-43C7-9C60-A606C7C7F267";
layerId = "0B108474-94D2-45CE-B9B5-A429A2BDAD37";
name = "28 Jan 23, 22:59";
shapes = (
{
closed = 1;
nodes = (
(21,-97,l),
(79,-97,o),
(117,-68,o),
(126,5,cs),
(139,91,l),
(48,91,l),
(37,15,l),
(84,15,l),
(79,-10,ls),
(75,-44,o),
(61,-62,o),
(26,-62,c)
);
}
);
width = 230;
}
);
unicode = 806;
},
